G04 #@! TF.FileFunction,Legend,Top*
%FSLAX46Y46*%
G04 Gerber Fmt 4.6, Leading zero omitted, Abs format (unit mm)*
G04 Created by KiCad (PCBNEW 4.0.6-e0-6349~52~ubuntu17.04.1) date Tue Apr 18 18:47:06 2017*
%MOMM*%
%LPD*%
G01*
G04 APERTURE LIST*
%ADD10C,0.100000*%
%ADD11C,0.120000*%
%ADD12C,0.150000*%
G04 APERTURE END LIST*
D10*
D11*
X92670000Y-81270000D02*
X92670000Y-91490000D01*
X92670000Y-91490000D02*
X95330000Y-91490000D01*
X95330000Y-91490000D02*
X95330000Y-81270000D01*
X95330000Y-81270000D02*
X92670000Y-81270000D01*
X92670000Y-80000000D02*
X92670000Y-78670000D01*
X92670000Y-78670000D02*
X94000000Y-78670000D01*
X102307185Y-96080827D02*
G75*
G03X107655000Y-96544830I2787815J1080827D01*
G01*
X102307185Y-93919173D02*
G75*
G02X107655000Y-93455170I2787815J-1080827D01*
G01*
X102840521Y-96080429D02*
G75*
G03X107349684Y-96080000I2254479J1080429D01*
G01*
X102840521Y-93919571D02*
G75*
G02X107349684Y-93920000I2254479J-1080429D01*
G01*
X107655000Y-96545000D02*
X107655000Y-96080000D01*
X107655000Y-93920000D02*
X107655000Y-93455000D01*
X114670000Y-81270000D02*
X114670000Y-91490000D01*
X114670000Y-91490000D02*
X117330000Y-91490000D01*
X117330000Y-91490000D02*
X117330000Y-81270000D01*
X117330000Y-81270000D02*
X114670000Y-81270000D01*
X114670000Y-80000000D02*
X114670000Y-78670000D01*
X114670000Y-78670000D02*
X116000000Y-78670000D01*
X111300000Y-82300000D02*
X110100000Y-82300000D01*
X107700000Y-82300000D02*
X107900000Y-82300000D01*
X107700000Y-88300000D02*
X107900000Y-88300000D01*
X111300000Y-82300000D02*
X111300000Y-88300000D01*
X111300000Y-88300000D02*
X110100000Y-88300000D01*
X107700000Y-82300000D02*
X107700000Y-88300000D01*
X112550000Y-87480000D02*
X112550000Y-87880000D01*
X112550000Y-87480000D02*
X112950000Y-87480000D01*
X112550000Y-87480000D02*
X113350000Y-88280000D01*
X112950000Y-86480000D02*
X113750000Y-87280000D01*
X112950000Y-86480000D02*
X113350000Y-86480000D01*
X112950000Y-86480000D02*
X112950000Y-86880000D01*
X111351321Y-87937685D02*
G75*
G03X111300000Y-82760000I-1151321J2577685D01*
G01*
D12*
X91880952Y-78122381D02*
X91880952Y-77122381D01*
X92357142Y-77455714D02*
X92357142Y-78122381D01*
X92357142Y-77550952D02*
X92404761Y-77503333D01*
X92499999Y-77455714D01*
X92642857Y-77455714D01*
X92738095Y-77503333D01*
X92785714Y-77598571D01*
X92785714Y-78122381D01*
X93261904Y-77455714D02*
X93261904Y-78455714D01*
X93261904Y-77503333D02*
X93357142Y-77455714D01*
X93547619Y-77455714D01*
X93642857Y-77503333D01*
X93690476Y-77550952D01*
X93738095Y-77646190D01*
X93738095Y-77931905D01*
X93690476Y-78027143D01*
X93642857Y-78074762D01*
X93547619Y-78122381D01*
X93357142Y-78122381D01*
X93261904Y-78074762D01*
X94595238Y-77455714D02*
X94595238Y-78122381D01*
X94166666Y-77455714D02*
X94166666Y-77979524D01*
X94214285Y-78074762D01*
X94309523Y-78122381D01*
X94452381Y-78122381D01*
X94547619Y-78074762D01*
X94595238Y-78027143D01*
X94928571Y-77455714D02*
X95309523Y-77455714D01*
X95071428Y-77122381D02*
X95071428Y-77979524D01*
X95119047Y-78074762D01*
X95214285Y-78122381D01*
X95309523Y-78122381D01*
X96166667Y-78122381D02*
X95595238Y-78122381D01*
X95880952Y-78122381D02*
X95880952Y-77122381D01*
X95785714Y-77265238D01*
X95690476Y-77360476D01*
X95595238Y-77408095D01*
X103975953Y-99412381D02*
X103499762Y-99412381D01*
X103499762Y-98412381D01*
X104309286Y-98888571D02*
X104642620Y-98888571D01*
X104785477Y-99412381D02*
X104309286Y-99412381D01*
X104309286Y-98412381D01*
X104785477Y-98412381D01*
X105214048Y-99412381D02*
X105214048Y-98412381D01*
X105452143Y-98412381D01*
X105595001Y-98460000D01*
X105690239Y-98555238D01*
X105737858Y-98650476D01*
X105785477Y-98840952D01*
X105785477Y-98983810D01*
X105737858Y-99174286D01*
X105690239Y-99269524D01*
X105595001Y-99364762D01*
X105452143Y-99412381D01*
X105214048Y-99412381D01*
X106737858Y-99412381D02*
X106166429Y-99412381D01*
X106452143Y-99412381D02*
X106452143Y-98412381D01*
X106356905Y-98555238D01*
X106261667Y-98650476D01*
X106166429Y-98698095D01*
X113499999Y-77122381D02*
X113690476Y-77122381D01*
X113785714Y-77170000D01*
X113880952Y-77265238D01*
X113928571Y-77455714D01*
X113928571Y-77789048D01*
X113880952Y-77979524D01*
X113785714Y-78074762D01*
X113690476Y-78122381D01*
X113499999Y-78122381D01*
X113404761Y-78074762D01*
X113309523Y-77979524D01*
X113261904Y-77789048D01*
X113261904Y-77455714D01*
X113309523Y-77265238D01*
X113404761Y-77170000D01*
X113499999Y-77122381D01*
X114785714Y-77455714D02*
X114785714Y-78122381D01*
X114357142Y-77455714D02*
X114357142Y-77979524D01*
X114404761Y-78074762D01*
X114499999Y-78122381D01*
X114642857Y-78122381D01*
X114738095Y-78074762D01*
X114785714Y-78027143D01*
X115119047Y-77455714D02*
X115499999Y-77455714D01*
X115261904Y-77122381D02*
X115261904Y-77979524D01*
X115309523Y-78074762D01*
X115404761Y-78122381D01*
X115499999Y-78122381D01*
X115833333Y-77455714D02*
X115833333Y-78455714D01*
X115833333Y-77503333D02*
X115928571Y-77455714D01*
X116119048Y-77455714D01*
X116214286Y-77503333D01*
X116261905Y-77550952D01*
X116309524Y-77646190D01*
X116309524Y-77931905D01*
X116261905Y-78027143D01*
X116214286Y-78074762D01*
X116119048Y-78122381D01*
X115928571Y-78122381D01*
X115833333Y-78074762D01*
X117166667Y-77455714D02*
X117166667Y-78122381D01*
X116738095Y-77455714D02*
X116738095Y-77979524D01*
X116785714Y-78074762D01*
X116880952Y-78122381D01*
X117023810Y-78122381D01*
X117119048Y-78074762D01*
X117166667Y-78027143D01*
X117500000Y-77455714D02*
X117880952Y-77455714D01*
X117642857Y-77122381D02*
X117642857Y-77979524D01*
X117690476Y-78074762D01*
X117785714Y-78122381D01*
X117880952Y-78122381D01*
X118738096Y-78122381D02*
X118166667Y-78122381D01*
X118452381Y-78122381D02*
X118452381Y-77122381D01*
X118357143Y-77265238D01*
X118261905Y-77360476D01*
X118166667Y-77408095D01*
X108552381Y-79961905D02*
X109361905Y-79961905D01*
X109457143Y-79914286D01*
X109504762Y-79866667D01*
X109552381Y-79771429D01*
X109552381Y-79580952D01*
X109504762Y-79485714D01*
X109457143Y-79438095D01*
X109361905Y-79390476D01*
X108552381Y-79390476D01*
X109552381Y-78390476D02*
X109552381Y-78961905D01*
X109552381Y-78676191D02*
X108552381Y-78676191D01*
X108695238Y-78771429D01*
X108790476Y-78866667D01*
X108838095Y-78961905D01*
M02*
