G04 #@! TF.FileFunction,Copper,L2,Bot,Signal*
%FSLAX46Y46*%
G04 Gerber Fmt 4.6, Leading zero omitted, Abs format (unit mm)*
G04 Created by KiCad (PCBNEW 4.0.7-e2-6376~61~ubuntu18.04.1) date Sat May 19 11:50:09 2018*
%MOMM*%
%LPD*%
G01*
G04 APERTURE LIST*
%ADD10C,0.100000*%
%ADD11C,0.800000*%
%ADD12C,2.200000*%
%ADD13C,1.900000*%
%ADD14C,1.800000*%
%ADD15C,2.499360*%
%ADD16C,3.251200*%
%ADD17C,2.000000*%
%ADD18C,1.000000*%
%ADD19C,0.554000*%
G04 APERTURE END LIST*
D10*
D11*
X35811460Y34345880D03*
D12*
X37840920Y34345880D03*
D11*
X36827460Y32565340D03*
X34798000Y32565340D03*
X33782000Y34345880D03*
D13*
X32768540Y32565340D03*
D11*
X31752540Y34345880D03*
D14*
X30739080Y32565340D03*
D15*
X26169620Y33456880D03*
X42410380Y33456880D03*
D16*
X27950160Y36885880D03*
X40629840Y36885880D03*
D12*
X34290000Y21590000D03*
D11*
X31750000Y21590000D03*
D12*
X29210000Y21590000D03*
X26670000Y21590000D03*
X41910000Y11430000D03*
D11*
X41910000Y13970000D03*
D12*
X41910000Y16510000D03*
D11*
X8834120Y15491460D03*
D12*
X8834120Y17520920D03*
D11*
X10614660Y16507460D03*
X10614660Y14478000D03*
X8834120Y13462000D03*
D13*
X10614660Y12448540D03*
D11*
X8834120Y11432540D03*
D13*
X10614660Y10419080D03*
D15*
X9723120Y5849620D03*
X9723120Y22090380D03*
D16*
X6294120Y7630160D03*
X6294120Y20309840D03*
D14*
X20320000Y19050000D03*
X20320000Y17050000D03*
D17*
X34290000Y3810000D03*
X44450000Y13970000D03*
D18*
X37840920Y34345880D02*
X38044120Y34345880D01*
X38044120Y34345880D02*
X39370000Y33020000D01*
X41910000Y29210000D02*
X41910000Y16510000D01*
X39370000Y31750000D02*
X41910000Y29210000D01*
X39370000Y33020000D02*
X39370000Y31750000D01*
X37840920Y34345880D02*
X37840920Y35819080D01*
X29210000Y25400000D02*
X29210000Y21590000D01*
X22860000Y31750000D02*
X29210000Y25400000D01*
X22860000Y36830000D02*
X22860000Y31750000D01*
X27940000Y41910000D02*
X22860000Y36830000D01*
X31750000Y41910000D02*
X27940000Y41910000D01*
X37840920Y35819080D02*
X31750000Y41910000D01*
X29210000Y21590000D02*
X29210000Y20320000D01*
X29210000Y20320000D02*
X27940000Y19050000D01*
X27940000Y19050000D02*
X20320000Y19050000D01*
X8834120Y17520920D02*
X8834120Y17724120D01*
X8834120Y17724120D02*
X10160000Y19050000D01*
X10160000Y19050000D02*
X20320000Y19050000D01*
X38100000Y34604960D02*
X37840920Y34345880D01*
X32768540Y32565340D02*
X32768540Y31366460D01*
X32768540Y31366460D02*
X38100000Y26035000D01*
X38100000Y26035000D02*
X38100000Y12065000D01*
X10614660Y12448540D02*
X36446460Y12448540D01*
X37465000Y11430000D02*
X41910000Y11430000D01*
X36446460Y12448540D02*
X37465000Y11430000D01*
X10614660Y10419080D02*
X10614660Y9705340D01*
X10614660Y9705340D02*
X13970000Y6350000D01*
X22860000Y25400000D02*
X26670000Y21590000D01*
X3810000Y25400000D02*
X22860000Y25400000D01*
X2540000Y24130000D02*
X3810000Y25400000D01*
X2540000Y3810000D02*
X2540000Y24130000D01*
X3810000Y2540000D02*
X2540000Y3810000D01*
X6350000Y2540000D02*
X3810000Y2540000D01*
X13970000Y2540000D02*
X6350000Y2540000D01*
X13970000Y6350000D02*
X13970000Y2540000D01*
X10614660Y10419080D02*
X11170920Y10419080D01*
X26929080Y21849080D02*
X26670000Y21590000D01*
X30739080Y32565340D02*
X30739080Y30220920D01*
X34290000Y26670000D02*
X34290000Y21590000D01*
X30739080Y30220920D02*
X34290000Y26670000D01*
X30480000Y32306260D02*
X30739080Y32565340D01*
D19*
G36*
X46038000Y952000D02*
X952000Y952000D01*
X952000Y24130000D01*
X1163000Y24130000D01*
X1163000Y3810000D01*
X1267818Y3283045D01*
X1566314Y2836314D01*
X2836314Y1566314D01*
X3283045Y1267818D01*
X3810000Y1163000D01*
X13970000Y1163000D01*
X14496955Y1267818D01*
X14943686Y1566314D01*
X15242182Y2013045D01*
X15347000Y2540000D01*
X15347000Y6350000D01*
X15242182Y6876955D01*
X14943686Y7323686D01*
X12415923Y9851449D01*
X12443102Y9892125D01*
X12547920Y10419080D01*
X12443102Y10946035D01*
X12359242Y11071540D01*
X35876088Y11071540D01*
X36491314Y10456314D01*
X36938045Y10157818D01*
X37465000Y10053000D01*
X40491134Y10053000D01*
X40788657Y9754958D01*
X41515025Y9453344D01*
X42301524Y9452657D01*
X43028418Y9753003D01*
X43585042Y10308657D01*
X43886656Y11035025D01*
X43887343Y11821524D01*
X43586997Y12548418D01*
X43031343Y13105042D01*
X42304975Y13406656D01*
X41518476Y13407343D01*
X40791582Y13106997D01*
X40491061Y12807000D01*
X39477000Y12807000D01*
X39477000Y26035000D01*
X39372182Y26561955D01*
X39073686Y27008686D01*
X34385971Y31696401D01*
X34595222Y32200333D01*
X34595856Y32927158D01*
X34318298Y33598900D01*
X33804804Y34113292D01*
X33133547Y34392022D01*
X32406722Y34392656D01*
X31734980Y34115098D01*
X31707257Y34087424D01*
X31094098Y34342030D01*
X30387164Y34342647D01*
X29733806Y34072685D01*
X29233492Y33573244D01*
X28962390Y32920358D01*
X28961773Y32213424D01*
X29231735Y31560066D01*
X29362080Y31429493D01*
X29362080Y30220920D01*
X29466898Y29693965D01*
X29765394Y29247234D01*
X32913000Y26099628D01*
X32913000Y23008866D01*
X32614958Y22711343D01*
X32313344Y21984975D01*
X32312657Y21198476D01*
X32613003Y20471582D01*
X33168657Y19914958D01*
X33895025Y19613344D01*
X34681524Y19612657D01*
X35408418Y19913003D01*
X35965042Y20468657D01*
X36266656Y21195025D01*
X36267343Y21981524D01*
X35966997Y22708418D01*
X35667000Y23008939D01*
X35667000Y26520628D01*
X36723000Y25464628D01*
X36723000Y13770533D01*
X36446460Y13825540D01*
X11821578Y13825540D01*
X11650924Y13996492D01*
X10979667Y14275222D01*
X10252842Y14275856D01*
X9581100Y13998298D01*
X9066708Y13484804D01*
X8787978Y12813547D01*
X8787344Y12086722D01*
X9057443Y11433032D01*
X8787978Y10784087D01*
X8787344Y10057262D01*
X9064902Y9385520D01*
X9485805Y8963881D01*
X9640974Y8731654D01*
X12593000Y5779628D01*
X12593000Y3917000D01*
X4380372Y3917000D01*
X3917000Y4380372D01*
X3917000Y23559628D01*
X4380372Y24023000D01*
X22289628Y24023000D01*
X24693025Y21619603D01*
X24692657Y21198476D01*
X24993003Y20471582D01*
X25037507Y20427000D01*
X21456268Y20427000D01*
X21327904Y20555588D01*
X20675018Y20826690D01*
X19968084Y20827307D01*
X19314726Y20557345D01*
X19184153Y20427000D01*
X10160000Y20427000D01*
X9633045Y20322182D01*
X9186314Y20023686D01*
X8660700Y19498072D01*
X8442596Y19498263D01*
X7715702Y19197917D01*
X7159078Y18642263D01*
X6857464Y17915895D01*
X6856777Y17129396D01*
X7157123Y16402502D01*
X7712777Y15845878D01*
X8439145Y15544264D01*
X9225644Y15543577D01*
X9952538Y15843923D01*
X10509162Y16399577D01*
X10810776Y17125945D01*
X10811254Y17673000D01*
X19183732Y17673000D01*
X19312096Y17544412D01*
X19964982Y17273310D01*
X20671916Y17272693D01*
X21325274Y17542655D01*
X21455847Y17673000D01*
X27940000Y17673000D01*
X28466955Y17777818D01*
X28913686Y18076314D01*
X30183686Y19346314D01*
X30482182Y19793045D01*
X30550052Y20134251D01*
X30885042Y20468657D01*
X31186656Y21195025D01*
X31187343Y21981524D01*
X30886997Y22708418D01*
X30587000Y23008939D01*
X30587000Y25400000D01*
X30482182Y25926955D01*
X30183686Y26373686D01*
X24237000Y32320372D01*
X24237000Y36259628D01*
X28510372Y40533000D01*
X31179628Y40533000D01*
X36205676Y35506952D01*
X36165878Y35467223D01*
X35864264Y34740855D01*
X35863577Y33954356D01*
X36163923Y33227462D01*
X36719577Y32670838D01*
X37445945Y32369224D01*
X37993000Y32368746D01*
X37993000Y31750000D01*
X38097818Y31223045D01*
X38396314Y30776314D01*
X40533000Y28639628D01*
X40533000Y17928866D01*
X40234958Y17631343D01*
X39933344Y16904975D01*
X39932657Y16118476D01*
X40233003Y15391582D01*
X40788657Y14834958D01*
X41515025Y14533344D01*
X42301524Y14532657D01*
X43028418Y14833003D01*
X43585042Y15388657D01*
X43886656Y16115025D01*
X43887343Y16901524D01*
X43586997Y17628418D01*
X43287000Y17928939D01*
X43287000Y29210000D01*
X43182182Y29736955D01*
X42883686Y30183686D01*
X40747000Y32320372D01*
X40747000Y33020000D01*
X40642182Y33546955D01*
X40343686Y33993686D01*
X39818072Y34519300D01*
X39818263Y34737404D01*
X39517917Y35464298D01*
X39217920Y35764819D01*
X39217920Y35819080D01*
X39113102Y36346035D01*
X38814606Y36792766D01*
X32723686Y42883686D01*
X32276955Y43182182D01*
X31750000Y43287000D01*
X27940000Y43287000D01*
X27413045Y43182182D01*
X26966314Y42883686D01*
X21886314Y37803686D01*
X21587818Y37356955D01*
X21483000Y36830000D01*
X21483000Y31750000D01*
X21587818Y31223045D01*
X21886314Y30776314D01*
X27833000Y24829628D01*
X27833000Y23223312D01*
X27791343Y23265042D01*
X27064975Y23566656D01*
X26640345Y23567027D01*
X23833686Y26373686D01*
X23386955Y26672182D01*
X22860000Y26777000D01*
X3810000Y26777000D01*
X3283045Y26672182D01*
X2836314Y26373686D01*
X1566314Y25103686D01*
X1267818Y24656955D01*
X1163000Y24130000D01*
X952000Y24130000D01*
X952000Y43371000D01*
X46038000Y43371000D01*
X46038000Y952000D01*
X46038000Y952000D01*
G37*
X46038000Y952000D02*
X952000Y952000D01*
X952000Y24130000D01*
X1163000Y24130000D01*
X1163000Y3810000D01*
X1267818Y3283045D01*
X1566314Y2836314D01*
X2836314Y1566314D01*
X3283045Y1267818D01*
X3810000Y1163000D01*
X13970000Y1163000D01*
X14496955Y1267818D01*
X14943686Y1566314D01*
X15242182Y2013045D01*
X15347000Y2540000D01*
X15347000Y6350000D01*
X15242182Y6876955D01*
X14943686Y7323686D01*
X12415923Y9851449D01*
X12443102Y9892125D01*
X12547920Y10419080D01*
X12443102Y10946035D01*
X12359242Y11071540D01*
X35876088Y11071540D01*
X36491314Y10456314D01*
X36938045Y10157818D01*
X37465000Y10053000D01*
X40491134Y10053000D01*
X40788657Y9754958D01*
X41515025Y9453344D01*
X42301524Y9452657D01*
X43028418Y9753003D01*
X43585042Y10308657D01*
X43886656Y11035025D01*
X43887343Y11821524D01*
X43586997Y12548418D01*
X43031343Y13105042D01*
X42304975Y13406656D01*
X41518476Y13407343D01*
X40791582Y13106997D01*
X40491061Y12807000D01*
X39477000Y12807000D01*
X39477000Y26035000D01*
X39372182Y26561955D01*
X39073686Y27008686D01*
X34385971Y31696401D01*
X34595222Y32200333D01*
X34595856Y32927158D01*
X34318298Y33598900D01*
X33804804Y34113292D01*
X33133547Y34392022D01*
X32406722Y34392656D01*
X31734980Y34115098D01*
X31707257Y34087424D01*
X31094098Y34342030D01*
X30387164Y34342647D01*
X29733806Y34072685D01*
X29233492Y33573244D01*
X28962390Y32920358D01*
X28961773Y32213424D01*
X29231735Y31560066D01*
X29362080Y31429493D01*
X29362080Y30220920D01*
X29466898Y29693965D01*
X29765394Y29247234D01*
X32913000Y26099628D01*
X32913000Y23008866D01*
X32614958Y22711343D01*
X32313344Y21984975D01*
X32312657Y21198476D01*
X32613003Y20471582D01*
X33168657Y19914958D01*
X33895025Y19613344D01*
X34681524Y19612657D01*
X35408418Y19913003D01*
X35965042Y20468657D01*
X36266656Y21195025D01*
X36267343Y21981524D01*
X35966997Y22708418D01*
X35667000Y23008939D01*
X35667000Y26520628D01*
X36723000Y25464628D01*
X36723000Y13770533D01*
X36446460Y13825540D01*
X11821578Y13825540D01*
X11650924Y13996492D01*
X10979667Y14275222D01*
X10252842Y14275856D01*
X9581100Y13998298D01*
X9066708Y13484804D01*
X8787978Y12813547D01*
X8787344Y12086722D01*
X9057443Y11433032D01*
X8787978Y10784087D01*
X8787344Y10057262D01*
X9064902Y9385520D01*
X9485805Y8963881D01*
X9640974Y8731654D01*
X12593000Y5779628D01*
X12593000Y3917000D01*
X4380372Y3917000D01*
X3917000Y4380372D01*
X3917000Y23559628D01*
X4380372Y24023000D01*
X22289628Y24023000D01*
X24693025Y21619603D01*
X24692657Y21198476D01*
X24993003Y20471582D01*
X25037507Y20427000D01*
X21456268Y20427000D01*
X21327904Y20555588D01*
X20675018Y20826690D01*
X19968084Y20827307D01*
X19314726Y20557345D01*
X19184153Y20427000D01*
X10160000Y20427000D01*
X9633045Y20322182D01*
X9186314Y20023686D01*
X8660700Y19498072D01*
X8442596Y19498263D01*
X7715702Y19197917D01*
X7159078Y18642263D01*
X6857464Y17915895D01*
X6856777Y17129396D01*
X7157123Y16402502D01*
X7712777Y15845878D01*
X8439145Y15544264D01*
X9225644Y15543577D01*
X9952538Y15843923D01*
X10509162Y16399577D01*
X10810776Y17125945D01*
X10811254Y17673000D01*
X19183732Y17673000D01*
X19312096Y17544412D01*
X19964982Y17273310D01*
X20671916Y17272693D01*
X21325274Y17542655D01*
X21455847Y17673000D01*
X27940000Y17673000D01*
X28466955Y17777818D01*
X28913686Y18076314D01*
X30183686Y19346314D01*
X30482182Y19793045D01*
X30550052Y20134251D01*
X30885042Y20468657D01*
X31186656Y21195025D01*
X31187343Y21981524D01*
X30886997Y22708418D01*
X30587000Y23008939D01*
X30587000Y25400000D01*
X30482182Y25926955D01*
X30183686Y26373686D01*
X24237000Y32320372D01*
X24237000Y36259628D01*
X28510372Y40533000D01*
X31179628Y40533000D01*
X36205676Y35506952D01*
X36165878Y35467223D01*
X35864264Y34740855D01*
X35863577Y33954356D01*
X36163923Y33227462D01*
X36719577Y32670838D01*
X37445945Y32369224D01*
X37993000Y32368746D01*
X37993000Y31750000D01*
X38097818Y31223045D01*
X38396314Y30776314D01*
X40533000Y28639628D01*
X40533000Y17928866D01*
X40234958Y17631343D01*
X39933344Y16904975D01*
X39932657Y16118476D01*
X40233003Y15391582D01*
X40788657Y14834958D01*
X41515025Y14533344D01*
X42301524Y14532657D01*
X43028418Y14833003D01*
X43585042Y15388657D01*
X43886656Y16115025D01*
X43887343Y16901524D01*
X43586997Y17628418D01*
X43287000Y17928939D01*
X43287000Y29210000D01*
X43182182Y29736955D01*
X42883686Y30183686D01*
X40747000Y32320372D01*
X40747000Y33020000D01*
X40642182Y33546955D01*
X40343686Y33993686D01*
X39818072Y34519300D01*
X39818263Y34737404D01*
X39517917Y35464298D01*
X39217920Y35764819D01*
X39217920Y35819080D01*
X39113102Y36346035D01*
X38814606Y36792766D01*
X32723686Y42883686D01*
X32276955Y43182182D01*
X31750000Y43287000D01*
X27940000Y43287000D01*
X27413045Y43182182D01*
X26966314Y42883686D01*
X21886314Y37803686D01*
X21587818Y37356955D01*
X21483000Y36830000D01*
X21483000Y31750000D01*
X21587818Y31223045D01*
X21886314Y30776314D01*
X27833000Y24829628D01*
X27833000Y23223312D01*
X27791343Y23265042D01*
X27064975Y23566656D01*
X26640345Y23567027D01*
X23833686Y26373686D01*
X23386955Y26672182D01*
X22860000Y26777000D01*
X3810000Y26777000D01*
X3283045Y26672182D01*
X2836314Y26373686D01*
X1566314Y25103686D01*
X1267818Y24656955D01*
X1163000Y24130000D01*
X952000Y24130000D01*
X952000Y43371000D01*
X46038000Y43371000D01*
X46038000Y952000D01*
M02*
