G04 #@! TF.FileFunction,Copper,L2,Bot,Signal*
%FSLAX46Y46*%
G04 Gerber Fmt 4.6, Leading zero omitted, Abs format (unit mm)*
G04 Created by KiCad (PCBNEW 4.0.7-e2-6376~61~ubuntu18.04.1) date Sat May 19 15:55:16 2018*
%MOMM*%
%LPD*%
G01*
G04 APERTURE LIST*
%ADD10C,0.100000*%
%ADD11C,0.800000*%
%ADD12C,2.200000*%
%ADD13C,1.900000*%
%ADD14C,1.800000*%
%ADD15C,2.499360*%
%ADD16C,3.251200*%
%ADD17C,1.000000*%
%ADD18C,0.254000*%
G04 APERTURE END LIST*
D10*
D11*
X54665880Y11686540D03*
D12*
X54665880Y9657080D03*
D11*
X52885340Y10670540D03*
X52885340Y12700000D03*
X54665880Y13716000D03*
D13*
X52885340Y14729460D03*
D11*
X54665880Y15745460D03*
D14*
X52885340Y16758920D03*
D15*
X53776880Y21328380D03*
X53776880Y5087620D03*
D16*
X57205880Y19547840D03*
X57205880Y6868160D03*
D12*
X33782000Y20955000D03*
D11*
X31242000Y20955000D03*
D12*
X28702000Y20955000D03*
X26162000Y20955000D03*
X40767000Y15875000D03*
D11*
X40767000Y13335000D03*
D12*
X40767000Y10795000D03*
D11*
X8326120Y14856460D03*
D12*
X8326120Y16885920D03*
D11*
X10106660Y15872460D03*
X10106660Y13843000D03*
X8326120Y12827000D03*
D13*
X10106660Y11813540D03*
D11*
X8326120Y10797540D03*
D13*
X10106660Y9784080D03*
D15*
X9215120Y5214620D03*
X9215120Y21455380D03*
D16*
X5786120Y6995160D03*
X5786120Y19674840D03*
D14*
X19812000Y18415000D03*
X19812000Y16415000D03*
D17*
X54665880Y9657080D02*
X55885080Y9657080D01*
X28702000Y23876000D02*
X28702000Y20955000D01*
X28448000Y24130000D02*
X28702000Y23876000D01*
X33020000Y24130000D02*
X28448000Y24130000D01*
X58674000Y24130000D02*
X33020000Y24130000D01*
X60960000Y21844000D02*
X58674000Y24130000D01*
X60960000Y14732000D02*
X60960000Y21844000D01*
X55885080Y9657080D02*
X60960000Y14732000D01*
X54665880Y9657080D02*
X54107080Y9657080D01*
X54107080Y9657080D02*
X51562000Y7112000D01*
X40767000Y7239000D02*
X40767000Y10795000D01*
X40894000Y7112000D02*
X40767000Y7239000D01*
X51562000Y7112000D02*
X40894000Y7112000D01*
X54665880Y9657080D02*
X54665880Y9199880D01*
X28702000Y20955000D02*
X28702000Y19685000D01*
X27432000Y18415000D02*
X19812000Y18415000D01*
X28702000Y19685000D02*
X27432000Y18415000D01*
X8326120Y16885920D02*
X8326120Y17089120D01*
X8326120Y17089120D02*
X9652000Y18415000D01*
X9652000Y18415000D02*
X19812000Y18415000D01*
X40767000Y15875000D02*
X40767000Y16637000D01*
X40767000Y16637000D02*
X41402000Y17272000D01*
X49532540Y14729460D02*
X52885340Y14729460D01*
X46990000Y17272000D02*
X49532540Y14729460D01*
X41402000Y17272000D02*
X46990000Y17272000D01*
X10106660Y11813540D02*
X32260540Y11813540D01*
X36322000Y15875000D02*
X40767000Y15875000D01*
X32260540Y11813540D02*
X36322000Y15875000D01*
X10106660Y9784080D02*
X10106660Y9070340D01*
X10106660Y9070340D02*
X13462000Y5715000D01*
X22352000Y24765000D02*
X26162000Y20955000D01*
X3302000Y24765000D02*
X22352000Y24765000D01*
X2032000Y23495000D02*
X3302000Y24765000D01*
X2032000Y3175000D02*
X2032000Y23495000D01*
X3302000Y1905000D02*
X2032000Y3175000D01*
X5842000Y1905000D02*
X3302000Y1905000D01*
X13462000Y1905000D02*
X5842000Y1905000D01*
X13462000Y5715000D02*
X13462000Y1905000D01*
X10106660Y9784080D02*
X10662920Y9784080D01*
X26421080Y21214080D02*
X26162000Y20955000D01*
X33782000Y20955000D02*
X48689260Y20955000D01*
X48689260Y20955000D02*
X52885340Y16758920D01*
X33401000Y21336000D02*
X33782000Y20955000D01*
X52626260Y17018000D02*
X52885340Y16758920D01*
D18*
G36*
X62790000Y710000D02*
X710000Y710000D01*
X710000Y23495000D01*
X897000Y23495000D01*
X897000Y3175000D01*
X983397Y2740654D01*
X1005506Y2707566D01*
X1229434Y2372434D01*
X2499434Y1102434D01*
X2867654Y856397D01*
X3302000Y770000D01*
X13462000Y770000D01*
X13896346Y856397D01*
X14264566Y1102434D01*
X14510603Y1470654D01*
X14597000Y1905000D01*
X14597000Y5715000D01*
X14510603Y6149346D01*
X14264566Y6517566D01*
X11599721Y9182411D01*
X11711523Y9349734D01*
X11797920Y9784080D01*
X11711523Y10218426D01*
X11529773Y10490434D01*
X11452049Y10678540D01*
X32260540Y10678540D01*
X32694886Y10764937D01*
X33063106Y11010974D01*
X36792132Y14740000D01*
X39448498Y14740000D01*
X39782918Y14404996D01*
X40420373Y14140301D01*
X41110599Y14139699D01*
X41748515Y14403281D01*
X42237004Y14890918D01*
X42501699Y15528373D01*
X42502230Y16137000D01*
X46519868Y16137000D01*
X48729974Y13926893D01*
X49098195Y13680856D01*
X49532540Y13594460D01*
X51778786Y13594460D01*
X51986337Y13386546D01*
X52568681Y13144736D01*
X53199233Y13144185D01*
X53781997Y13384979D01*
X54228254Y13830457D01*
X54470064Y14412801D01*
X54470615Y15043353D01*
X54229821Y15626117D01*
X54076815Y15779391D01*
X54185891Y15888277D01*
X54420073Y16452250D01*
X54420605Y17062911D01*
X54187408Y17627291D01*
X53755983Y18059471D01*
X53192010Y18293653D01*
X52955533Y18293859D01*
X49491826Y21757566D01*
X49472701Y21770345D01*
X49123606Y22003603D01*
X48689260Y22090000D01*
X35100502Y22090000D01*
X34766082Y22425004D01*
X34128627Y22689699D01*
X33438401Y22690301D01*
X32800485Y22426719D01*
X32311996Y21939082D01*
X32047301Y21301627D01*
X32046699Y20611401D01*
X32310281Y19973485D01*
X32797918Y19484996D01*
X33435373Y19220301D01*
X34125599Y19219699D01*
X34763515Y19483281D01*
X35100822Y19820000D01*
X48219128Y19820000D01*
X51350279Y16688849D01*
X51350075Y16454929D01*
X51583272Y15890549D01*
X51609315Y15864460D01*
X50002673Y15864460D01*
X47792566Y18074566D01*
X47675181Y18153000D01*
X47424346Y18320603D01*
X46990000Y18407000D01*
X41402000Y18407000D01*
X40967655Y18320604D01*
X40599434Y18074566D01*
X39964434Y17439566D01*
X39946983Y17413449D01*
X39785485Y17346719D01*
X39448178Y17010000D01*
X36322000Y17010000D01*
X35887654Y16923603D01*
X35641189Y16758920D01*
X35519434Y16677566D01*
X31790408Y12948540D01*
X11213214Y12948540D01*
X11005663Y13156454D01*
X10423319Y13398264D01*
X9792767Y13398815D01*
X9210003Y13158021D01*
X8763746Y12712543D01*
X8521936Y12130199D01*
X8521385Y11499647D01*
X8762179Y10916883D01*
X8879861Y10798995D01*
X8763746Y10683083D01*
X8521936Y10100739D01*
X8521385Y9470187D01*
X8762179Y8887423D01*
X9148926Y8500000D01*
X9304094Y8267774D01*
X12327000Y5244868D01*
X12327000Y3040000D01*
X3772132Y3040000D01*
X3167000Y3645132D01*
X3167000Y23024868D01*
X3772132Y23630000D01*
X21881868Y23630000D01*
X24427112Y21084756D01*
X24426699Y20611401D01*
X24690281Y19973485D01*
X25113027Y19550000D01*
X20847905Y19550000D01*
X20682643Y19715551D01*
X20118670Y19949733D01*
X19508009Y19950265D01*
X18943629Y19717068D01*
X18776269Y19550000D01*
X9652000Y19550000D01*
X9217654Y19463603D01*
X8849433Y19217566D01*
X8252853Y18620985D01*
X7982521Y18621221D01*
X7344605Y18357639D01*
X6856116Y17870002D01*
X6591421Y17232547D01*
X6590819Y16542321D01*
X6854401Y15904405D01*
X7342038Y15415916D01*
X7979493Y15151221D01*
X8669719Y15150619D01*
X9307635Y15414201D01*
X9796124Y15901838D01*
X10060819Y16539293D01*
X10061412Y17219279D01*
X10122133Y17280000D01*
X18776095Y17280000D01*
X18941357Y17114449D01*
X19505330Y16880267D01*
X20115991Y16879735D01*
X20680371Y17112932D01*
X20847731Y17280000D01*
X27432000Y17280000D01*
X27866346Y17366397D01*
X28234566Y17612434D01*
X29504566Y18882434D01*
X29728494Y19217566D01*
X29750603Y19250654D01*
X29824962Y19624481D01*
X30172004Y19970918D01*
X30436699Y20608373D01*
X30437301Y21298599D01*
X30173719Y21936515D01*
X29837000Y22273822D01*
X29837000Y22995000D01*
X58203868Y22995000D01*
X59825000Y21373868D01*
X59825000Y15202132D01*
X55699913Y11077045D01*
X55649962Y11127084D01*
X55012507Y11391779D01*
X54322281Y11392381D01*
X53684365Y11128799D01*
X53195876Y10641162D01*
X52989839Y10144971D01*
X51091868Y8247000D01*
X41902000Y8247000D01*
X41902000Y9476498D01*
X42237004Y9810918D01*
X42501699Y10448373D01*
X42502301Y11138599D01*
X42238719Y11776515D01*
X41751082Y12265004D01*
X41113627Y12529699D01*
X40423401Y12530301D01*
X39785485Y12266719D01*
X39296996Y11779082D01*
X39032301Y11141627D01*
X39031699Y10451401D01*
X39295281Y9813485D01*
X39632000Y9476178D01*
X39632000Y7239000D01*
X39718397Y6804654D01*
X39803256Y6677654D01*
X39964434Y6436434D01*
X40091434Y6309434D01*
X40459654Y6063397D01*
X40894000Y5977000D01*
X51562000Y5977000D01*
X51996346Y6063397D01*
X52364566Y6309434D01*
X54077781Y8022649D01*
X54319253Y7922381D01*
X55009479Y7921779D01*
X55647395Y8185361D01*
X56009493Y8546827D01*
X56319426Y8608477D01*
X56687646Y8854514D01*
X61762566Y13929434D01*
X62008604Y14297655D01*
X62095000Y14732000D01*
X62095000Y21844000D01*
X62008603Y22278346D01*
X61762566Y22646566D01*
X59476566Y24932566D01*
X59359181Y25011000D01*
X59108346Y25178603D01*
X58674000Y25265000D01*
X28448000Y25265000D01*
X28013654Y25178603D01*
X27645434Y24932566D01*
X27399397Y24564346D01*
X27313000Y24130000D01*
X27399397Y23695654D01*
X27443266Y23630000D01*
X27567000Y23444819D01*
X27567000Y22273502D01*
X27431925Y22138662D01*
X27146082Y22425004D01*
X26508627Y22689699D01*
X26032017Y22690115D01*
X23154566Y25567566D01*
X22786346Y25813603D01*
X22352000Y25900000D01*
X3302000Y25900000D01*
X2867654Y25813603D01*
X2499434Y25567566D01*
X1229434Y24297566D01*
X983397Y23929346D01*
X897000Y23495000D01*
X710000Y23495000D01*
X710000Y25960000D01*
X62790000Y25960000D01*
X62790000Y710000D01*
X62790000Y710000D01*
G37*
X62790000Y710000D02*
X710000Y710000D01*
X710000Y23495000D01*
X897000Y23495000D01*
X897000Y3175000D01*
X983397Y2740654D01*
X1005506Y2707566D01*
X1229434Y2372434D01*
X2499434Y1102434D01*
X2867654Y856397D01*
X3302000Y770000D01*
X13462000Y770000D01*
X13896346Y856397D01*
X14264566Y1102434D01*
X14510603Y1470654D01*
X14597000Y1905000D01*
X14597000Y5715000D01*
X14510603Y6149346D01*
X14264566Y6517566D01*
X11599721Y9182411D01*
X11711523Y9349734D01*
X11797920Y9784080D01*
X11711523Y10218426D01*
X11529773Y10490434D01*
X11452049Y10678540D01*
X32260540Y10678540D01*
X32694886Y10764937D01*
X33063106Y11010974D01*
X36792132Y14740000D01*
X39448498Y14740000D01*
X39782918Y14404996D01*
X40420373Y14140301D01*
X41110599Y14139699D01*
X41748515Y14403281D01*
X42237004Y14890918D01*
X42501699Y15528373D01*
X42502230Y16137000D01*
X46519868Y16137000D01*
X48729974Y13926893D01*
X49098195Y13680856D01*
X49532540Y13594460D01*
X51778786Y13594460D01*
X51986337Y13386546D01*
X52568681Y13144736D01*
X53199233Y13144185D01*
X53781997Y13384979D01*
X54228254Y13830457D01*
X54470064Y14412801D01*
X54470615Y15043353D01*
X54229821Y15626117D01*
X54076815Y15779391D01*
X54185891Y15888277D01*
X54420073Y16452250D01*
X54420605Y17062911D01*
X54187408Y17627291D01*
X53755983Y18059471D01*
X53192010Y18293653D01*
X52955533Y18293859D01*
X49491826Y21757566D01*
X49472701Y21770345D01*
X49123606Y22003603D01*
X48689260Y22090000D01*
X35100502Y22090000D01*
X34766082Y22425004D01*
X34128627Y22689699D01*
X33438401Y22690301D01*
X32800485Y22426719D01*
X32311996Y21939082D01*
X32047301Y21301627D01*
X32046699Y20611401D01*
X32310281Y19973485D01*
X32797918Y19484996D01*
X33435373Y19220301D01*
X34125599Y19219699D01*
X34763515Y19483281D01*
X35100822Y19820000D01*
X48219128Y19820000D01*
X51350279Y16688849D01*
X51350075Y16454929D01*
X51583272Y15890549D01*
X51609315Y15864460D01*
X50002673Y15864460D01*
X47792566Y18074566D01*
X47675181Y18153000D01*
X47424346Y18320603D01*
X46990000Y18407000D01*
X41402000Y18407000D01*
X40967655Y18320604D01*
X40599434Y18074566D01*
X39964434Y17439566D01*
X39946983Y17413449D01*
X39785485Y17346719D01*
X39448178Y17010000D01*
X36322000Y17010000D01*
X35887654Y16923603D01*
X35641189Y16758920D01*
X35519434Y16677566D01*
X31790408Y12948540D01*
X11213214Y12948540D01*
X11005663Y13156454D01*
X10423319Y13398264D01*
X9792767Y13398815D01*
X9210003Y13158021D01*
X8763746Y12712543D01*
X8521936Y12130199D01*
X8521385Y11499647D01*
X8762179Y10916883D01*
X8879861Y10798995D01*
X8763746Y10683083D01*
X8521936Y10100739D01*
X8521385Y9470187D01*
X8762179Y8887423D01*
X9148926Y8500000D01*
X9304094Y8267774D01*
X12327000Y5244868D01*
X12327000Y3040000D01*
X3772132Y3040000D01*
X3167000Y3645132D01*
X3167000Y23024868D01*
X3772132Y23630000D01*
X21881868Y23630000D01*
X24427112Y21084756D01*
X24426699Y20611401D01*
X24690281Y19973485D01*
X25113027Y19550000D01*
X20847905Y19550000D01*
X20682643Y19715551D01*
X20118670Y19949733D01*
X19508009Y19950265D01*
X18943629Y19717068D01*
X18776269Y19550000D01*
X9652000Y19550000D01*
X9217654Y19463603D01*
X8849433Y19217566D01*
X8252853Y18620985D01*
X7982521Y18621221D01*
X7344605Y18357639D01*
X6856116Y17870002D01*
X6591421Y17232547D01*
X6590819Y16542321D01*
X6854401Y15904405D01*
X7342038Y15415916D01*
X7979493Y15151221D01*
X8669719Y15150619D01*
X9307635Y15414201D01*
X9796124Y15901838D01*
X10060819Y16539293D01*
X10061412Y17219279D01*
X10122133Y17280000D01*
X18776095Y17280000D01*
X18941357Y17114449D01*
X19505330Y16880267D01*
X20115991Y16879735D01*
X20680371Y17112932D01*
X20847731Y17280000D01*
X27432000Y17280000D01*
X27866346Y17366397D01*
X28234566Y17612434D01*
X29504566Y18882434D01*
X29728494Y19217566D01*
X29750603Y19250654D01*
X29824962Y19624481D01*
X30172004Y19970918D01*
X30436699Y20608373D01*
X30437301Y21298599D01*
X30173719Y21936515D01*
X29837000Y22273822D01*
X29837000Y22995000D01*
X58203868Y22995000D01*
X59825000Y21373868D01*
X59825000Y15202132D01*
X55699913Y11077045D01*
X55649962Y11127084D01*
X55012507Y11391779D01*
X54322281Y11392381D01*
X53684365Y11128799D01*
X53195876Y10641162D01*
X52989839Y10144971D01*
X51091868Y8247000D01*
X41902000Y8247000D01*
X41902000Y9476498D01*
X42237004Y9810918D01*
X42501699Y10448373D01*
X42502301Y11138599D01*
X42238719Y11776515D01*
X41751082Y12265004D01*
X41113627Y12529699D01*
X40423401Y12530301D01*
X39785485Y12266719D01*
X39296996Y11779082D01*
X39032301Y11141627D01*
X39031699Y10451401D01*
X39295281Y9813485D01*
X39632000Y9476178D01*
X39632000Y7239000D01*
X39718397Y6804654D01*
X39803256Y6677654D01*
X39964434Y6436434D01*
X40091434Y6309434D01*
X40459654Y6063397D01*
X40894000Y5977000D01*
X51562000Y5977000D01*
X51996346Y6063397D01*
X52364566Y6309434D01*
X54077781Y8022649D01*
X54319253Y7922381D01*
X55009479Y7921779D01*
X55647395Y8185361D01*
X56009493Y8546827D01*
X56319426Y8608477D01*
X56687646Y8854514D01*
X61762566Y13929434D01*
X62008604Y14297655D01*
X62095000Y14732000D01*
X62095000Y21844000D01*
X62008603Y22278346D01*
X61762566Y22646566D01*
X59476566Y24932566D01*
X59359181Y25011000D01*
X59108346Y25178603D01*
X58674000Y25265000D01*
X28448000Y25265000D01*
X28013654Y25178603D01*
X27645434Y24932566D01*
X27399397Y24564346D01*
X27313000Y24130000D01*
X27399397Y23695654D01*
X27443266Y23630000D01*
X27567000Y23444819D01*
X27567000Y22273502D01*
X27431925Y22138662D01*
X27146082Y22425004D01*
X26508627Y22689699D01*
X26032017Y22690115D01*
X23154566Y25567566D01*
X22786346Y25813603D01*
X22352000Y25900000D01*
X3302000Y25900000D01*
X2867654Y25813603D01*
X2499434Y25567566D01*
X1229434Y24297566D01*
X983397Y23929346D01*
X897000Y23495000D01*
X710000Y23495000D01*
X710000Y25960000D01*
X62790000Y25960000D01*
X62790000Y710000D01*
M02*
