G04 #@! TF.FileFunction,Copper,L1,Top,Signal*
%FSLAX46Y46*%
G04 Gerber Fmt 4.6, Leading zero omitted, Abs format (unit mm)*
G04 Created by KiCad (PCBNEW 4.0.6-e0-6349~52~ubuntu17.04.1) date Fri May 12 18:42:47 2017*
%MOMM*%
%LPD*%
G01*
G04 APERTURE LIST*
%ADD10C,0.100000*%
%ADD11C,2.200000*%
%ADD12C,1.000000*%
%ADD13C,0.254000*%
G04 APERTURE END LIST*
D10*
D11*
X113500000Y-103500000D03*
X113500000Y-100960000D03*
X113500000Y-98420000D03*
X113500000Y-95880000D03*
X113500000Y-93340000D03*
X94000000Y-103500000D03*
X94000000Y-100960000D03*
X94000000Y-98420000D03*
X94000000Y-95880000D03*
X94000000Y-93340000D03*
X108500000Y-89500000D03*
X105960000Y-89500000D03*
X103420000Y-89500000D03*
X100880000Y-89500000D03*
X109400000Y-96100000D03*
X109400000Y-98640000D03*
X109400000Y-101180000D03*
D12*
X113500000Y-103500000D02*
X116000000Y-103500000D01*
X103420000Y-86580000D02*
X103420000Y-89500000D01*
X104000000Y-86000000D02*
X103420000Y-86580000D01*
X115000000Y-86000000D02*
X104000000Y-86000000D01*
X118000000Y-89000000D02*
X115000000Y-86000000D01*
X118000000Y-101500000D02*
X118000000Y-89000000D01*
X116000000Y-103500000D02*
X118000000Y-101500000D01*
X109400000Y-101180000D02*
X109400000Y-101900000D01*
X109400000Y-101900000D02*
X111000000Y-103500000D01*
X111000000Y-103500000D02*
X113500000Y-103500000D01*
X109400000Y-101180000D02*
X109400000Y-101400000D01*
X109400000Y-101180000D02*
X109480000Y-101180000D01*
X94000000Y-103500000D02*
X107080000Y-103500000D01*
X107080000Y-103500000D02*
X109400000Y-101180000D01*
X109400000Y-96100000D02*
X113280000Y-96100000D01*
X113280000Y-96100000D02*
X113500000Y-95880000D01*
X109400000Y-96100000D02*
X94220000Y-96100000D01*
X94220000Y-96100000D02*
X94000000Y-95880000D01*
X94000000Y-93340000D02*
X97040000Y-93340000D01*
X97040000Y-93340000D02*
X100880000Y-89500000D01*
X108500000Y-89500000D02*
X109660000Y-89500000D01*
X109660000Y-89500000D02*
X113500000Y-93340000D01*
D13*
X119398000Y-84102000D02*
X90602000Y-84102000D01*
X119398000Y-84305200D02*
X90602000Y-84305200D01*
X119398000Y-84508400D02*
X90602000Y-84508400D01*
X119398000Y-84711600D02*
X90602000Y-84711600D01*
X103789858Y-84914800D02*
X90602000Y-84914800D01*
X119398000Y-84914800D02*
X115210143Y-84914800D01*
X103330439Y-85118000D02*
X90602000Y-85118000D01*
X119398000Y-85118000D02*
X115669562Y-85118000D01*
X103084982Y-85321200D02*
X90602000Y-85321200D01*
X119398000Y-85321200D02*
X115915019Y-85321200D01*
X102881782Y-85524400D02*
X90602000Y-85524400D01*
X119398000Y-85524400D02*
X116118219Y-85524400D01*
X102678582Y-85727600D02*
X90602000Y-85727600D01*
X119398000Y-85727600D02*
X116321419Y-85727600D01*
X102524395Y-85930800D02*
X90602000Y-85930800D01*
X119398000Y-85930800D02*
X116524619Y-85930800D01*
X102388621Y-86134000D02*
X90602000Y-86134000D01*
X119398000Y-86134000D02*
X116727819Y-86134000D01*
X102341297Y-86337200D02*
X90602000Y-86337200D01*
X119398000Y-86337200D02*
X116931019Y-86337200D01*
X102300877Y-86540400D02*
X90602000Y-86540400D01*
X119398000Y-86540400D02*
X117134219Y-86540400D01*
X102293000Y-86743600D02*
X90602000Y-86743600D01*
X119398000Y-86743600D02*
X117337419Y-86743600D01*
X102293000Y-86946800D02*
X90602000Y-86946800D01*
X119398000Y-86946800D02*
X117540619Y-86946800D01*
X102293000Y-87150000D02*
X90602000Y-87150000D01*
X114556181Y-87150000D02*
X104547000Y-87150000D01*
X119398000Y-87150000D02*
X117743819Y-87150000D01*
X102293000Y-87353200D02*
X90602000Y-87353200D01*
X114759381Y-87353200D02*
X104547000Y-87353200D01*
X119398000Y-87353200D02*
X117947019Y-87353200D01*
X102293000Y-87556400D02*
X90602000Y-87556400D01*
X114962581Y-87556400D02*
X104547000Y-87556400D01*
X119398000Y-87556400D02*
X118150219Y-87556400D01*
X102293000Y-87759600D02*
X90602000Y-87759600D01*
X115165781Y-87759600D02*
X104547000Y-87759600D01*
X119398000Y-87759600D02*
X118353419Y-87759600D01*
X100077911Y-87962800D02*
X90602000Y-87962800D01*
X102293000Y-87962800D02*
X101681396Y-87962800D01*
X107697911Y-87962800D02*
X104547000Y-87962800D01*
X115368981Y-87962800D02*
X109301396Y-87962800D01*
X119398000Y-87962800D02*
X118556619Y-87962800D01*
X99771850Y-88166000D02*
X90602000Y-88166000D01*
X102293000Y-88166000D02*
X101988545Y-88166000D01*
X107391850Y-88166000D02*
X104547000Y-88166000D01*
X115572181Y-88166000D02*
X109608545Y-88166000D01*
X119398000Y-88166000D02*
X118759819Y-88166000D01*
X99568295Y-88369200D02*
X90602000Y-88369200D01*
X107188295Y-88369200D02*
X104731391Y-88369200D01*
X115775381Y-88369200D02*
X109811390Y-88369200D01*
X119398000Y-88369200D02*
X118907901Y-88369200D01*
X99395205Y-88572400D02*
X90602000Y-88572400D01*
X107015205Y-88572400D02*
X104905341Y-88572400D01*
X115978581Y-88572400D02*
X110261317Y-88572400D01*
X119398000Y-88572400D02*
X119041945Y-88572400D01*
X99310829Y-88775600D02*
X90602000Y-88775600D01*
X106930829Y-88775600D02*
X104989301Y-88775600D01*
X116181781Y-88775600D02*
X110529418Y-88775600D01*
X119398000Y-88775600D02*
X119082364Y-88775600D01*
X99226453Y-88978800D02*
X90602000Y-88978800D01*
X106846453Y-88978800D02*
X105073261Y-88978800D01*
X116384981Y-88978800D02*
X110732618Y-88978800D01*
X119398000Y-88978800D02*
X119122784Y-88978800D01*
X99153277Y-89182000D02*
X90602000Y-89182000D01*
X106773277Y-89182000D02*
X105147278Y-89182000D01*
X116588181Y-89182000D02*
X110935818Y-89182000D01*
X119398000Y-89182000D02*
X119127000Y-89182000D01*
X99153100Y-89385200D02*
X90602000Y-89385200D01*
X106773100Y-89385200D02*
X105147100Y-89385200D01*
X116791381Y-89385200D02*
X111139018Y-89385200D01*
X119398000Y-89385200D02*
X119127000Y-89385200D01*
X99152923Y-89588400D02*
X90602000Y-89588400D01*
X106772923Y-89588400D02*
X105146923Y-89588400D01*
X116873000Y-89588400D02*
X111342218Y-89588400D01*
X119398000Y-89588400D02*
X119127000Y-89588400D01*
X98994582Y-89791600D02*
X90602000Y-89791600D01*
X106772745Y-89791600D02*
X105146746Y-89791600D01*
X116873000Y-89791600D02*
X111545418Y-89791600D01*
X119398000Y-89791600D02*
X119127000Y-89791600D01*
X98791382Y-89994800D02*
X90602000Y-89994800D01*
X106835830Y-89994800D02*
X105084509Y-89994800D01*
X116873000Y-89994800D02*
X111748618Y-89994800D01*
X119398000Y-89994800D02*
X119127000Y-89994800D01*
X98588182Y-90198000D02*
X90602000Y-90198000D01*
X106919791Y-90198000D02*
X105000133Y-90198000D01*
X116873000Y-90198000D02*
X111951818Y-90198000D01*
X119398000Y-90198000D02*
X119127000Y-90198000D01*
X98384982Y-90401200D02*
X90602000Y-90401200D01*
X107003751Y-90401200D02*
X104915757Y-90401200D01*
X116873000Y-90401200D02*
X112155018Y-90401200D01*
X119398000Y-90401200D02*
X119127000Y-90401200D01*
X98181782Y-90604400D02*
X90602000Y-90604400D01*
X107162255Y-90604400D02*
X104758151Y-90604400D01*
X116873000Y-90604400D02*
X112358218Y-90604400D01*
X119398000Y-90604400D02*
X119127000Y-90604400D01*
X97978582Y-90807600D02*
X90602000Y-90807600D01*
X102285101Y-90807600D02*
X102014596Y-90807600D01*
X107365101Y-90807600D02*
X104554596Y-90807600D01*
X116873000Y-90807600D02*
X112561418Y-90807600D01*
X119398000Y-90807600D02*
X119127000Y-90807600D01*
X97775382Y-91010800D02*
X90602000Y-91010800D01*
X102555026Y-91010800D02*
X101745982Y-91010800D01*
X107635026Y-91010800D02*
X104285982Y-91010800D01*
X109576982Y-91010800D02*
X109365982Y-91010800D01*
X116873000Y-91010800D02*
X112764618Y-91010800D01*
X119398000Y-91010800D02*
X119127000Y-91010800D01*
X97572182Y-91214000D02*
X90602000Y-91214000D01*
X103044386Y-91214000D02*
X101254200Y-91214000D01*
X108124386Y-91214000D02*
X103794200Y-91214000D01*
X109780182Y-91214000D02*
X108874200Y-91214000D01*
X116873000Y-91214000D02*
X112967818Y-91214000D01*
X119398000Y-91214000D02*
X119127000Y-91214000D01*
X97368982Y-91417200D02*
X90602000Y-91417200D01*
X109983382Y-91417200D02*
X100556618Y-91417200D01*
X116873000Y-91417200D02*
X113171018Y-91417200D01*
X119398000Y-91417200D02*
X119127000Y-91417200D01*
X93639353Y-91620400D02*
X90602000Y-91620400D01*
X97165782Y-91620400D02*
X94362128Y-91620400D01*
X110186582Y-91620400D02*
X100353418Y-91620400D01*
X116873000Y-91620400D02*
X113862128Y-91620400D01*
X119398000Y-91620400D02*
X119127000Y-91620400D01*
X93147571Y-91823600D02*
X90602000Y-91823600D01*
X96962582Y-91823600D02*
X94851487Y-91823600D01*
X110389782Y-91823600D02*
X100150218Y-91823600D01*
X116873000Y-91823600D02*
X114351487Y-91823600D01*
X119398000Y-91823600D02*
X119127000Y-91823600D01*
X92871013Y-92026800D02*
X90602000Y-92026800D01*
X96759382Y-92026800D02*
X95129309Y-92026800D01*
X110592982Y-92026800D02*
X99947018Y-92026800D01*
X116873000Y-92026800D02*
X114629309Y-92026800D01*
X119398000Y-92026800D02*
X119127000Y-92026800D01*
X92667458Y-92230000D02*
X90602000Y-92230000D01*
X110796182Y-92230000D02*
X99743818Y-92230000D01*
X116873000Y-92230000D02*
X114832154Y-92230000D01*
X119398000Y-92230000D02*
X119127000Y-92230000D01*
X92506569Y-92433200D02*
X90602000Y-92433200D01*
X110999382Y-92433200D02*
X99540618Y-92433200D01*
X116873000Y-92433200D02*
X114993935Y-92433200D01*
X119398000Y-92433200D02*
X119127000Y-92433200D01*
X92422192Y-92636400D02*
X90602000Y-92636400D01*
X111202582Y-92636400D02*
X99337418Y-92636400D01*
X116873000Y-92636400D02*
X115077895Y-92636400D01*
X119398000Y-92636400D02*
X119127000Y-92636400D01*
X92337816Y-92839600D02*
X90602000Y-92839600D01*
X111405782Y-92839600D02*
X99134218Y-92839600D01*
X116873000Y-92839600D02*
X115161856Y-92839600D01*
X119398000Y-92839600D02*
X119127000Y-92839600D01*
X92273259Y-93042800D02*
X90602000Y-93042800D01*
X111608982Y-93042800D02*
X98931018Y-93042800D01*
X116873000Y-93042800D02*
X115227259Y-93042800D01*
X119398000Y-93042800D02*
X119127000Y-93042800D01*
X92273082Y-93246000D02*
X90602000Y-93246000D01*
X111773081Y-93246000D02*
X98727818Y-93246000D01*
X116873000Y-93246000D02*
X115227082Y-93246000D01*
X119398000Y-93246000D02*
X119127000Y-93246000D01*
X92272904Y-93449200D02*
X90602000Y-93449200D01*
X111772904Y-93449200D02*
X98524618Y-93449200D01*
X116873000Y-93449200D02*
X115226905Y-93449200D01*
X119398000Y-93449200D02*
X119127000Y-93449200D01*
X92272727Y-93652400D02*
X90602000Y-93652400D01*
X111772727Y-93652400D02*
X98321418Y-93652400D01*
X116873000Y-93652400D02*
X115226728Y-93652400D01*
X119398000Y-93652400D02*
X119127000Y-93652400D01*
X92344425Y-93855600D02*
X90602000Y-93855600D01*
X111844425Y-93855600D02*
X98118218Y-93855600D01*
X116873000Y-93855600D02*
X115155872Y-93855600D01*
X119398000Y-93855600D02*
X119127000Y-93855600D01*
X92428385Y-94058800D02*
X90602000Y-94058800D01*
X111928385Y-94058800D02*
X97915018Y-94058800D01*
X116873000Y-94058800D02*
X115071496Y-94058800D01*
X119398000Y-94058800D02*
X119127000Y-94058800D01*
X92512346Y-94262000D02*
X90602000Y-94262000D01*
X112012346Y-94262000D02*
X97649697Y-94262000D01*
X116873000Y-94262000D02*
X114987120Y-94262000D01*
X119398000Y-94262000D02*
X119127000Y-94262000D01*
X92683019Y-94465200D02*
X90602000Y-94465200D01*
X108834122Y-94465200D02*
X97049049Y-94465200D01*
X112183019Y-94465200D02*
X109966349Y-94465200D01*
X116873000Y-94465200D02*
X114817315Y-94465200D01*
X119398000Y-94465200D02*
X119127000Y-94465200D01*
X92769236Y-94668400D02*
X90602000Y-94668400D01*
X108389620Y-94668400D02*
X95230732Y-94668400D01*
X112269236Y-94668400D02*
X110411115Y-94668400D01*
X116873000Y-94668400D02*
X114730732Y-94668400D01*
X119398000Y-94668400D02*
X119127000Y-94668400D01*
X92565681Y-94871600D02*
X90602000Y-94871600D01*
X108186066Y-94871600D02*
X95433577Y-94871600D01*
X112065681Y-94871600D02*
X110613961Y-94871600D01*
X116873000Y-94871600D02*
X114933577Y-94871600D01*
X119398000Y-94871600D02*
X119127000Y-94871600D01*
X92464380Y-95074800D02*
X90602000Y-95074800D01*
X116873000Y-95074800D02*
X115035915Y-95074800D01*
X119398000Y-95074800D02*
X119127000Y-95074800D01*
X92380004Y-95278000D02*
X90602000Y-95278000D01*
X116873000Y-95278000D02*
X115119876Y-95278000D01*
X119398000Y-95278000D02*
X119127000Y-95278000D01*
X92295628Y-95481200D02*
X90602000Y-95481200D01*
X116873000Y-95481200D02*
X115203836Y-95481200D01*
X119398000Y-95481200D02*
X119127000Y-95481200D01*
X92273170Y-95684400D02*
X90602000Y-95684400D01*
X116873000Y-95684400D02*
X115227171Y-95684400D01*
X119398000Y-95684400D02*
X119127000Y-95684400D01*
X92272993Y-95887600D02*
X90602000Y-95887600D01*
X116873000Y-95887600D02*
X115226994Y-95887600D01*
X119398000Y-95887600D02*
X119127000Y-95887600D01*
X92272816Y-96090800D02*
X90602000Y-96090800D01*
X116873000Y-96090800D02*
X115226817Y-96090800D01*
X119398000Y-96090800D02*
X119127000Y-96090800D01*
X92302444Y-96294000D02*
X90602000Y-96294000D01*
X116873000Y-96294000D02*
X115198060Y-96294000D01*
X119398000Y-96294000D02*
X119127000Y-96294000D01*
X92386405Y-96497200D02*
X90602000Y-96497200D01*
X116873000Y-96497200D02*
X115113684Y-96497200D01*
X119398000Y-96497200D02*
X119127000Y-96497200D01*
X92470365Y-96700400D02*
X90602000Y-96700400D01*
X116873000Y-96700400D02*
X115029308Y-96700400D01*
X119398000Y-96700400D02*
X119127000Y-96700400D01*
X92581596Y-96903600D02*
X90602000Y-96903600D01*
X116873000Y-96903600D02*
X114919093Y-96903600D01*
X119398000Y-96903600D02*
X119127000Y-96903600D01*
X92784442Y-97106800D02*
X90602000Y-97106800D01*
X116873000Y-97106800D02*
X114715538Y-97106800D01*
X119398000Y-97106800D02*
X119127000Y-97106800D01*
X92987287Y-97310000D02*
X90602000Y-97310000D01*
X108167671Y-97310000D02*
X95011983Y-97310000D01*
X112487288Y-97310000D02*
X110632367Y-97310000D01*
X116873000Y-97310000D02*
X114511983Y-97310000D01*
X119398000Y-97310000D02*
X119127000Y-97310000D01*
X93429798Y-97513200D02*
X90602000Y-97513200D01*
X108370517Y-97513200D02*
X94569751Y-97513200D01*
X112929798Y-97513200D02*
X110428812Y-97513200D01*
X116873000Y-97513200D02*
X114069751Y-97513200D01*
X119398000Y-97513200D02*
X119127000Y-97513200D01*
X108789339Y-97716400D02*
X90602000Y-97716400D01*
X116873000Y-97716400D02*
X110010410Y-97716400D01*
X119398000Y-97716400D02*
X119127000Y-97716400D01*
X116873000Y-97919600D02*
X90602000Y-97919600D01*
X119398000Y-97919600D02*
X119127000Y-97919600D01*
X116873000Y-98122800D02*
X90602000Y-98122800D01*
X119398000Y-98122800D02*
X119127000Y-98122800D01*
X116873000Y-98326000D02*
X90602000Y-98326000D01*
X119398000Y-98326000D02*
X119127000Y-98326000D01*
X116873000Y-98529200D02*
X90602000Y-98529200D01*
X119398000Y-98529200D02*
X119127000Y-98529200D01*
X116873000Y-98732400D02*
X90602000Y-98732400D01*
X119398000Y-98732400D02*
X119127000Y-98732400D01*
X116873000Y-98935600D02*
X90602000Y-98935600D01*
X119398000Y-98935600D02*
X119127000Y-98935600D01*
X116873000Y-99138800D02*
X90602000Y-99138800D01*
X119398000Y-99138800D02*
X119127000Y-99138800D01*
X116873000Y-99342000D02*
X90602000Y-99342000D01*
X119398000Y-99342000D02*
X119127000Y-99342000D01*
X108834122Y-99545200D02*
X90602000Y-99545200D01*
X116873000Y-99545200D02*
X109966349Y-99545200D01*
X119398000Y-99545200D02*
X119127000Y-99545200D01*
X108389620Y-99748400D02*
X90602000Y-99748400D01*
X116873000Y-99748400D02*
X110411115Y-99748400D01*
X119398000Y-99748400D02*
X119127000Y-99748400D01*
X108186065Y-99951600D02*
X90602000Y-99951600D01*
X116873000Y-99951600D02*
X110613961Y-99951600D01*
X119398000Y-99951600D02*
X119127000Y-99951600D01*
X107982510Y-100154800D02*
X90602000Y-100154800D01*
X116873000Y-100154800D02*
X110816807Y-100154800D01*
X119398000Y-100154800D02*
X119127000Y-100154800D01*
X107871356Y-100358000D02*
X90602000Y-100358000D01*
X116873000Y-100358000D02*
X110928974Y-100358000D01*
X119398000Y-100358000D02*
X119127000Y-100358000D01*
X107786980Y-100561200D02*
X90602000Y-100561200D01*
X116873000Y-100561200D02*
X111012934Y-100561200D01*
X119398000Y-100561200D02*
X119127000Y-100561200D01*
X107702604Y-100764400D02*
X90602000Y-100764400D01*
X116873000Y-100764400D02*
X111096894Y-100764400D01*
X119398000Y-100764400D02*
X119127000Y-100764400D01*
X107673185Y-100967600D02*
X90602000Y-100967600D01*
X116873000Y-100967600D02*
X111127185Y-100967600D01*
X119398000Y-100967600D02*
X119127000Y-100967600D01*
X107673008Y-101170800D02*
X90602000Y-101170800D01*
X116735382Y-101170800D02*
X111127008Y-101170800D01*
X119398000Y-101170800D02*
X119127000Y-101170800D01*
X107612182Y-101374000D02*
X90602000Y-101374000D01*
X116532182Y-101374000D02*
X111126831Y-101374000D01*
X119398000Y-101374000D02*
X119127000Y-101374000D01*
X107408982Y-101577200D02*
X90602000Y-101577200D01*
X116328982Y-101577200D02*
X111105036Y-101577200D01*
X119398000Y-101577200D02*
X119111643Y-101577200D01*
X93639353Y-101780400D02*
X90602000Y-101780400D01*
X107205782Y-101780400D02*
X94362128Y-101780400D01*
X113139353Y-101780400D02*
X111020660Y-101780400D01*
X116125782Y-101780400D02*
X113862128Y-101780400D01*
X119398000Y-101780400D02*
X119071224Y-101780400D01*
X93147571Y-101983600D02*
X90602000Y-101983600D01*
X107002582Y-101983600D02*
X94851487Y-101983600D01*
X112647571Y-101983600D02*
X111077419Y-101983600D01*
X115922582Y-101983600D02*
X114351487Y-101983600D01*
X119398000Y-101983600D02*
X119006255Y-101983600D01*
X92871013Y-102186800D02*
X90602000Y-102186800D01*
X106799382Y-102186800D02*
X95129309Y-102186800D01*
X112371014Y-102186800D02*
X111280619Y-102186800D01*
X115719382Y-102186800D02*
X114629309Y-102186800D01*
X119398000Y-102186800D02*
X118870481Y-102186800D01*
X92667458Y-102390000D02*
X90602000Y-102390000D01*
X119398000Y-102390000D02*
X118703818Y-102390000D01*
X92506569Y-102593200D02*
X90602000Y-102593200D01*
X119398000Y-102593200D02*
X118500618Y-102593200D01*
X92422192Y-102796400D02*
X90602000Y-102796400D01*
X119398000Y-102796400D02*
X118297418Y-102796400D01*
X92337816Y-102999600D02*
X90602000Y-102999600D01*
X119398000Y-102999600D02*
X118094218Y-102999600D01*
X92273259Y-103202800D02*
X90602000Y-103202800D01*
X109108981Y-103202800D02*
X108971018Y-103202800D01*
X119398000Y-103202800D02*
X117891018Y-103202800D01*
X92273082Y-103406000D02*
X90602000Y-103406000D01*
X109312181Y-103406000D02*
X108767818Y-103406000D01*
X119398000Y-103406000D02*
X117687818Y-103406000D01*
X92272904Y-103609200D02*
X90602000Y-103609200D01*
X109515381Y-103609200D02*
X108564618Y-103609200D01*
X119398000Y-103609200D02*
X117484618Y-103609200D01*
X92272727Y-103812400D02*
X90602000Y-103812400D01*
X109718581Y-103812400D02*
X108361418Y-103812400D01*
X119398000Y-103812400D02*
X117281418Y-103812400D01*
X92344425Y-104015600D02*
X90602000Y-104015600D01*
X109921781Y-104015600D02*
X108158218Y-104015600D01*
X119398000Y-104015600D02*
X117078218Y-104015600D01*
X92428385Y-104218800D02*
X90602000Y-104218800D01*
X110124981Y-104218800D02*
X107955018Y-104218800D01*
X119398000Y-104218800D02*
X116875018Y-104218800D01*
X92512346Y-104422000D02*
X90602000Y-104422000D01*
X110390302Y-104422000D02*
X107689697Y-104422000D01*
X119398000Y-104422000D02*
X116609697Y-104422000D01*
X92683019Y-104625200D02*
X90602000Y-104625200D01*
X110990950Y-104625200D02*
X107089049Y-104625200D01*
X119398000Y-104625200D02*
X116009049Y-104625200D01*
X92885865Y-104828400D02*
X90602000Y-104828400D01*
X112385864Y-104828400D02*
X95113760Y-104828400D01*
X119398000Y-104828400D02*
X114613760Y-104828400D01*
X93185118Y-105031600D02*
X90602000Y-105031600D01*
X112685118Y-105031600D02*
X94815642Y-105031600D01*
X119398000Y-105031600D02*
X114315642Y-105031600D01*
X119398000Y-105234800D02*
X90602000Y-105234800D01*
X119398000Y-105438000D02*
X90602000Y-105438000D01*
X119398000Y-105641200D02*
X90602000Y-105641200D01*
X119398000Y-105844400D02*
X90602000Y-105844400D01*
X119398000Y-106047600D02*
X90602000Y-106047600D01*
X119398000Y-106250800D02*
X90602000Y-106250800D01*
X119398000Y-106454000D02*
X90602000Y-106454000D01*
X119398000Y-106657200D02*
X90602000Y-106657200D01*
X119398000Y-106860400D02*
X90602000Y-106860400D01*
X119398000Y-107063600D02*
X90602000Y-107063600D01*
X119398000Y-107266800D02*
X90602000Y-107266800D01*
X119398000Y-107470000D02*
X90602000Y-107470000D01*
X119398000Y-107673200D02*
X90602000Y-107673200D01*
X119398000Y-107876400D02*
X90602000Y-107876400D01*
X119398000Y-108079600D02*
X90602000Y-108079600D01*
X119398000Y-108282800D02*
X90602000Y-108282800D01*
X119398000Y-108486000D02*
X90602000Y-108486000D01*
X119398000Y-108689200D02*
X90602000Y-108689200D01*
X119398000Y-108892400D02*
X90602000Y-108892400D01*
X119398000Y-109095600D02*
X90602000Y-109095600D01*
X119398000Y-109298800D02*
X90602000Y-109298800D01*
X119398000Y-109502000D02*
X90602000Y-109502000D01*
X119398000Y-109705200D02*
X90602000Y-109705200D01*
X119398000Y-109908400D02*
X90602000Y-109908400D01*
X119398000Y-110111600D02*
X90602000Y-110111600D01*
X119398000Y-110314800D02*
X90602000Y-110314800D01*
X119398000Y-110518000D02*
X90602000Y-110518000D01*
X119398000Y-110721200D02*
X90602000Y-110721200D01*
X119398000Y-110924400D02*
X90602000Y-110924400D01*
X119398000Y-111127600D02*
X90602000Y-111127600D01*
X119398000Y-111330800D02*
X90602000Y-111330800D01*
X119398000Y-111534000D02*
X90602000Y-111534000D01*
X119398000Y-111737200D02*
X90602000Y-111737200D01*
X119398000Y-111940400D02*
X90602000Y-111940400D01*
X119398000Y-112143600D02*
X90602000Y-112143600D01*
X119398000Y-112346800D02*
X90602000Y-112346800D01*
X119398000Y-112550000D02*
X90602000Y-112550000D01*
X119398000Y-112753200D02*
X90602000Y-112753200D01*
X119398000Y-112898000D02*
X90602000Y-112898000D01*
X90602000Y-93682014D01*
X92272701Y-93682014D01*
X92535067Y-94316989D01*
X92827652Y-94610085D01*
X92536774Y-94900456D01*
X92273300Y-95534971D01*
X92272701Y-96222014D01*
X92535067Y-96856989D01*
X93020456Y-97343226D01*
X93654971Y-97606700D01*
X94342014Y-97607299D01*
X94976989Y-97344933D01*
X95095128Y-97227000D01*
X108084816Y-97227000D01*
X108420456Y-97563226D01*
X109054971Y-97826700D01*
X109742014Y-97827299D01*
X110376989Y-97564933D01*
X110715512Y-97227000D01*
X112404433Y-97227000D01*
X112520456Y-97343226D01*
X113154971Y-97606700D01*
X113842014Y-97607299D01*
X114476989Y-97344933D01*
X114963226Y-96859544D01*
X115226700Y-96225029D01*
X115227299Y-95537986D01*
X114964933Y-94903011D01*
X114672348Y-94609915D01*
X114963226Y-94319544D01*
X115226700Y-93685029D01*
X115227299Y-92997986D01*
X114964933Y-92363011D01*
X114479544Y-91876774D01*
X113845029Y-91613300D01*
X113366701Y-91612883D01*
X110456909Y-88703091D01*
X110091284Y-88458788D01*
X109853632Y-88411516D01*
X109479544Y-88036774D01*
X108845029Y-87773300D01*
X108157986Y-87772701D01*
X107523011Y-88035067D01*
X107036774Y-88520456D01*
X106773300Y-89154971D01*
X106772701Y-89842014D01*
X107035067Y-90476989D01*
X107520456Y-90963226D01*
X108154971Y-91226700D01*
X108842014Y-91227299D01*
X109476989Y-90964933D01*
X109504076Y-90937894D01*
X111773115Y-93206933D01*
X111772701Y-93682014D01*
X112035067Y-94316989D01*
X112327652Y-94610085D01*
X112036774Y-94900456D01*
X112006651Y-94973000D01*
X110715184Y-94973000D01*
X110379544Y-94636774D01*
X109745029Y-94373300D01*
X109057986Y-94372701D01*
X108423011Y-94635067D01*
X108084488Y-94973000D01*
X95493852Y-94973000D01*
X95464933Y-94903011D01*
X95172348Y-94609915D01*
X95315512Y-94467000D01*
X97040000Y-94467000D01*
X97471284Y-94381212D01*
X97836909Y-94136909D01*
X100746933Y-91226885D01*
X101222014Y-91227299D01*
X101856989Y-90964933D01*
X102150085Y-90672348D01*
X102440456Y-90963226D01*
X103074971Y-91226700D01*
X103762014Y-91227299D01*
X104396989Y-90964933D01*
X104883226Y-90479544D01*
X105146700Y-89845029D01*
X105147299Y-89157986D01*
X104884933Y-88523011D01*
X104547000Y-88184488D01*
X104547000Y-87127000D01*
X114533182Y-87127000D01*
X116873000Y-89466819D01*
X116873000Y-101033182D01*
X115533182Y-102373000D01*
X114815184Y-102373000D01*
X114479544Y-102036774D01*
X113845029Y-101773300D01*
X113157986Y-101772701D01*
X112523011Y-102035067D01*
X112184488Y-102373000D01*
X111466819Y-102373000D01*
X110977694Y-101883875D01*
X111126700Y-101525029D01*
X111127299Y-100837986D01*
X110864933Y-100203011D01*
X110379544Y-99716774D01*
X109745029Y-99453300D01*
X109057986Y-99452701D01*
X108423011Y-99715067D01*
X107936774Y-100200456D01*
X107673300Y-100834971D01*
X107672883Y-101313298D01*
X106613182Y-102373000D01*
X95315184Y-102373000D01*
X94979544Y-102036774D01*
X94345029Y-101773300D01*
X93657986Y-101772701D01*
X93023011Y-102035067D01*
X92536774Y-102520456D01*
X92273300Y-103154971D01*
X92272701Y-103842014D01*
X92535067Y-104476989D01*
X93020456Y-104963226D01*
X93654971Y-105226700D01*
X94342014Y-105227299D01*
X94976989Y-104964933D01*
X95315512Y-104627000D01*
X107080000Y-104627000D01*
X107511284Y-104541212D01*
X107876909Y-104296909D01*
X109040000Y-103133818D01*
X110203091Y-104296910D01*
X110476423Y-104479544D01*
X110568716Y-104541212D01*
X111000000Y-104627000D01*
X112184816Y-104627000D01*
X112520456Y-104963226D01*
X113154971Y-105226700D01*
X113842014Y-105227299D01*
X114476989Y-104964933D01*
X114815512Y-104627000D01*
X116000000Y-104627000D01*
X116431284Y-104541212D01*
X116796909Y-104296909D01*
X118796909Y-102296909D01*
X119041212Y-101931284D01*
X119072756Y-101772701D01*
X119127000Y-101500000D01*
X119127000Y-89000000D01*
X119041212Y-88568716D01*
X119008966Y-88520456D01*
X118796910Y-88203091D01*
X115796909Y-85203091D01*
X115431284Y-84958788D01*
X115000000Y-84873000D01*
X104000000Y-84873000D01*
X103568716Y-84958788D01*
X103203091Y-85203091D01*
X102623091Y-85783091D01*
X102378788Y-86148716D01*
X102293000Y-86580000D01*
X102293000Y-88184816D01*
X102149915Y-88327652D01*
X101859544Y-88036774D01*
X101225029Y-87773300D01*
X100537986Y-87772701D01*
X99903011Y-88035067D01*
X99416774Y-88520456D01*
X99153300Y-89154971D01*
X99152883Y-89633299D01*
X96573182Y-92213000D01*
X95315184Y-92213000D01*
X94979544Y-91876774D01*
X94345029Y-91613300D01*
X93657986Y-91612701D01*
X93023011Y-91875067D01*
X92536774Y-92360456D01*
X92273300Y-92994971D01*
X92272701Y-93682014D01*
X90602000Y-93682014D01*
X90602000Y-84102000D01*
X119398000Y-84102000D01*
X119398000Y-112898000D01*
M02*
