M48
;DRILL file {KiCad 4.0.7-e2-6376~61~ubuntu18.04.1} date Sat May 19 14:08:56 2018
;FORMAT={-:-/ absolute / metric / decimal}
FMAT,2
METRIC,TZ
T1C0.800
T2C2.499
T3C3.251
%
G90
G05
M71
T1
X8.834Y17.521
X8.834Y15.491
X8.834Y13.462
X8.834Y11.433
X10.615Y16.507
X10.615Y14.478
X10.615Y12.449
X10.615Y10.419
X20.32Y19.05
X20.32Y17.05
X26.67Y21.59
X29.21Y21.59
X31.75Y21.59
X34.29Y21.59
X41.275Y16.51
X41.275Y13.97
X41.275Y11.43
X53.393Y17.394
X53.393Y15.364
X53.393Y13.335
X53.393Y11.306
X55.174Y16.38
X55.174Y14.351
X55.174Y12.322
X55.174Y10.292
T2
X9.723Y22.09
X9.723Y5.85
X54.285Y21.963
X54.285Y5.723
T3
X6.294Y20.31
X6.294Y7.63
X57.714Y20.183
X57.714Y7.503
T0
M30
