M48
;DRILL file {KiCad 4.0.7-e2-6376~61~ubuntu18.04.1} date Fri May 18 17:42:42 2018
;FORMAT={-:-/ absolute / metric / decimal}
FMAT,2
METRIC,TZ
T1C0.800
T2C0.900
T3C2.499
T4C3.251
%
G90
G05
M71
T1
X8.834Y15.491
X8.834Y13.462
X8.834Y11.433
X10.615Y16.507
X10.615Y14.478
X10.615Y12.449
X20.32Y19.05
X20.32Y17.05
X26.67Y21.59
X29.21Y21.59
X30.739Y32.565
X31.75Y21.59
X31.753Y34.346
X32.769Y32.565
X33.782Y34.346
X34.29Y21.59
X34.798Y32.565
X35.811Y34.346
X36.827Y32.565
X37.841Y34.346
X41.91Y16.51
X41.91Y13.97
X41.91Y11.43
T2
X8.834Y17.521
X10.615Y10.419
T3
X9.723Y22.09
X9.723Y5.85
X26.17Y33.457
X42.41Y33.457
T4
X6.294Y20.31
X6.294Y7.63
X27.95Y36.886
X40.63Y36.886
T0
M30
