M48
;DRILL file {KiCad 4.0.7-e2-6376~61~ubuntu18.04.1} date Sat May 19 15:55:18 2018
;FORMAT={-:-/ absolute / metric / decimal}
FMAT,2
METRIC,TZ
T1C0.800
T2C2.499
T3C3.251
%
G90
G05
M71
T1
X8.326Y16.886
X8.326Y14.856
X8.326Y12.827
X8.326Y10.798
X10.107Y15.872
X10.107Y13.843
X10.107Y11.814
X10.107Y9.784
X19.812Y18.415
X19.812Y16.415
X26.162Y20.955
X28.702Y20.955
X31.242Y20.955
X33.782Y20.955
X40.767Y15.875
X40.767Y13.335
X40.767Y10.795
X52.885Y16.759
X52.885Y14.729
X52.885Y12.7
X52.885Y10.671
X54.666Y15.745
X54.666Y13.716
X54.666Y11.687
X54.666Y9.657
T2
X9.215Y21.455
X9.215Y5.215
X53.777Y21.328
X53.777Y5.088
T3
X5.786Y19.675
X5.786Y6.995
X57.206Y19.548
X57.206Y6.868
T0
M30
