G04 #@! TF.FileFunction,Copper,L2,Bot,Signal*
%FSLAX46Y46*%
G04 Gerber Fmt 4.6, Leading zero omitted, Abs format (unit mm)*
G04 Created by KiCad (PCBNEW 4.0.6-e0-6349~52~ubuntu17.04.1) date Fri May 12 09:16:36 2017*
%MOMM*%
%LPD*%
G01*
G04 APERTURE LIST*
%ADD10C,0.100000*%
%ADD11C,2.000000*%
%ADD12C,1.000000*%
%ADD13C,0.254000*%
G04 APERTURE END LIST*
D10*
D11*
X114500000Y-80000000D03*
X114500000Y-82540000D03*
X114500000Y-85080000D03*
X114500000Y-87620000D03*
X114500000Y-90160000D03*
X94000000Y-80000000D03*
X94000000Y-82540000D03*
X94000000Y-85080000D03*
X94000000Y-87620000D03*
X94000000Y-90160000D03*
X108500000Y-94000000D03*
X105960000Y-94000000D03*
X103420000Y-94000000D03*
X100880000Y-94000000D03*
X109400000Y-87400000D03*
X109400000Y-84860000D03*
X109400000Y-82320000D03*
D12*
X114500000Y-80000000D02*
X117000000Y-80000000D01*
X103420000Y-96420000D02*
X103420000Y-94000000D01*
X104500000Y-97500000D02*
X103420000Y-96420000D01*
X113500000Y-97500000D02*
X104500000Y-97500000D01*
X117500000Y-93500000D02*
X113500000Y-97500000D01*
X117500000Y-80500000D02*
X117500000Y-93500000D01*
X117000000Y-80000000D02*
X117500000Y-80500000D01*
X109400000Y-82320000D02*
X109400000Y-82100000D01*
X109400000Y-82100000D02*
X111500000Y-80000000D01*
X111500000Y-80000000D02*
X114500000Y-80000000D01*
X109400000Y-82320000D02*
X109400000Y-81600000D01*
X109400000Y-82320000D02*
X109480000Y-82320000D01*
X94000000Y-80000000D02*
X107080000Y-80000000D01*
X107080000Y-80000000D02*
X109400000Y-82320000D01*
X109400000Y-87400000D02*
X114280000Y-87400000D01*
X114280000Y-87400000D02*
X114500000Y-87620000D01*
X114280000Y-87400000D02*
X114500000Y-87620000D01*
X109400000Y-87400000D02*
X94220000Y-87400000D01*
X94220000Y-87400000D02*
X94000000Y-87620000D01*
X94000000Y-90160000D02*
X97040000Y-90160000D01*
X97040000Y-90160000D02*
X100880000Y-94000000D01*
X108500000Y-94000000D02*
X110660000Y-94000000D01*
X110660000Y-94000000D02*
X114500000Y-90160000D01*
D13*
X90802000Y-70802000D02*
X119198000Y-70802000D01*
X90802000Y-71005200D02*
X119198000Y-71005200D01*
X90802000Y-71208400D02*
X119198000Y-71208400D01*
X90802000Y-71411600D02*
X119198000Y-71411600D01*
X90802000Y-71614800D02*
X119198000Y-71614800D01*
X90802000Y-71818000D02*
X119198000Y-71818000D01*
X90802000Y-72021200D02*
X119198000Y-72021200D01*
X90802000Y-72224400D02*
X119198000Y-72224400D01*
X90802000Y-72427600D02*
X119198000Y-72427600D01*
X90802000Y-72630800D02*
X119198000Y-72630800D01*
X90802000Y-72834000D02*
X119198000Y-72834000D01*
X90802000Y-73037200D02*
X119198000Y-73037200D01*
X90802000Y-73240400D02*
X119198000Y-73240400D01*
X90802000Y-73443600D02*
X119198000Y-73443600D01*
X90802000Y-73646800D02*
X119198000Y-73646800D01*
X90802000Y-73850000D02*
X119198000Y-73850000D01*
X90802000Y-74053200D02*
X119198000Y-74053200D01*
X90802000Y-74256400D02*
X119198000Y-74256400D01*
X90802000Y-74459600D02*
X119198000Y-74459600D01*
X90802000Y-74662800D02*
X119198000Y-74662800D01*
X90802000Y-74866000D02*
X119198000Y-74866000D01*
X90802000Y-75069200D02*
X119198000Y-75069200D01*
X90802000Y-75272400D02*
X119198000Y-75272400D01*
X90802000Y-75475600D02*
X119198000Y-75475600D01*
X90802000Y-75678800D02*
X119198000Y-75678800D01*
X90802000Y-75882000D02*
X119198000Y-75882000D01*
X90802000Y-76085200D02*
X119198000Y-76085200D01*
X90802000Y-76288400D02*
X119198000Y-76288400D01*
X90802000Y-76491600D02*
X119198000Y-76491600D01*
X90802000Y-76694800D02*
X119198000Y-76694800D01*
X90802000Y-76898000D02*
X119198000Y-76898000D01*
X90802000Y-77101200D02*
X119198000Y-77101200D01*
X90802000Y-77304400D02*
X119198000Y-77304400D01*
X90802000Y-77507600D02*
X119198000Y-77507600D01*
X90802000Y-77710800D02*
X119198000Y-77710800D01*
X90802000Y-77914000D02*
X119198000Y-77914000D01*
X90802000Y-78117200D02*
X119198000Y-78117200D01*
X90802000Y-78320400D02*
X93542546Y-78320400D01*
X94458459Y-78320400D02*
X114042546Y-78320400D01*
X114958459Y-78320400D02*
X119198000Y-78320400D01*
X90802000Y-78523600D02*
X93050764Y-78523600D01*
X94947818Y-78523600D02*
X113550764Y-78523600D01*
X115447818Y-78523600D02*
X119198000Y-78523600D01*
X90802000Y-78726800D02*
X92830944Y-78726800D01*
X95169239Y-78726800D02*
X113330943Y-78726800D01*
X115669239Y-78726800D02*
X119198000Y-78726800D01*
X90802000Y-78930000D02*
X92627389Y-78930000D01*
X107644738Y-78930000D02*
X110935263Y-78930000D01*
X117564738Y-78930000D02*
X119198000Y-78930000D01*
X90802000Y-79133200D02*
X92489959Y-79133200D01*
X107948440Y-79133200D02*
X110631560Y-79133200D01*
X117868440Y-79133200D02*
X119198000Y-79133200D01*
X90802000Y-79336400D02*
X92405583Y-79336400D01*
X108151640Y-79336400D02*
X110428360Y-79336400D01*
X118071640Y-79336400D02*
X119198000Y-79336400D01*
X90802000Y-79539600D02*
X92321207Y-79539600D01*
X108354840Y-79539600D02*
X110225160Y-79539600D01*
X118274840Y-79539600D02*
X119198000Y-79539600D01*
X90802000Y-79742800D02*
X92273224Y-79742800D01*
X108558040Y-79742800D02*
X110021960Y-79742800D01*
X118441401Y-79742800D02*
X119198000Y-79742800D01*
X90802000Y-79946000D02*
X92273047Y-79946000D01*
X108761240Y-79946000D02*
X109818760Y-79946000D01*
X118577175Y-79946000D02*
X119198000Y-79946000D01*
X90802000Y-80149200D02*
X92272870Y-80149200D01*
X108964440Y-80149200D02*
X109615560Y-80149200D01*
X118657222Y-80149200D02*
X119198000Y-80149200D01*
X90802000Y-80352400D02*
X92276992Y-80352400D01*
X109167640Y-80352400D02*
X109412360Y-80352400D01*
X118697641Y-80352400D02*
X119198000Y-80352400D01*
X90802000Y-80555600D02*
X92360952Y-80555600D01*
X118727000Y-80555600D02*
X119198000Y-80555600D01*
X90802000Y-80758800D02*
X92444913Y-80758800D01*
X118727000Y-80758800D02*
X119198000Y-80758800D01*
X90802000Y-80962000D02*
X92528873Y-80962000D01*
X118727000Y-80962000D02*
X119198000Y-80962000D01*
X90802000Y-81165200D02*
X92722949Y-81165200D01*
X118727000Y-81165200D02*
X119198000Y-81165200D01*
X90802000Y-81368400D02*
X92925795Y-81368400D01*
X95073690Y-81368400D02*
X106713160Y-81368400D01*
X111866840Y-81368400D02*
X113425795Y-81368400D01*
X115573690Y-81368400D02*
X116273000Y-81368400D01*
X118727000Y-81368400D02*
X119198000Y-81368400D01*
X90802000Y-81571600D02*
X93281449Y-81571600D01*
X94718834Y-81571600D02*
X106916360Y-81571600D01*
X111663640Y-81571600D02*
X113781449Y-81571600D01*
X115218834Y-81571600D02*
X116273000Y-81571600D01*
X118727000Y-81571600D02*
X119198000Y-81571600D01*
X90802000Y-81774800D02*
X107119560Y-81774800D01*
X111460440Y-81774800D02*
X116273000Y-81774800D01*
X118727000Y-81774800D02*
X119198000Y-81774800D01*
X90802000Y-81978000D02*
X107322760Y-81978000D01*
X111257240Y-81978000D02*
X116273000Y-81978000D01*
X118727000Y-81978000D02*
X119198000Y-81978000D01*
X90802000Y-82181200D02*
X107525960Y-82181200D01*
X111127122Y-82181200D02*
X116273000Y-82181200D01*
X118727000Y-82181200D02*
X119198000Y-82181200D01*
X90802000Y-82384400D02*
X107672944Y-82384400D01*
X111126944Y-82384400D02*
X116273000Y-82384400D01*
X118727000Y-82384400D02*
X119198000Y-82384400D01*
X90802000Y-82587600D02*
X107672766Y-82587600D01*
X111126767Y-82587600D02*
X116273000Y-82587600D01*
X118727000Y-82587600D02*
X119198000Y-82587600D01*
X90802000Y-82790800D02*
X107725914Y-82790800D01*
X111074475Y-82790800D02*
X116273000Y-82790800D01*
X118727000Y-82790800D02*
X119198000Y-82790800D01*
X90802000Y-82994000D02*
X107809874Y-82994000D01*
X110990099Y-82994000D02*
X116273000Y-82994000D01*
X118727000Y-82994000D02*
X119198000Y-82994000D01*
X90802000Y-83197200D02*
X107893835Y-83197200D01*
X110905722Y-83197200D02*
X116273000Y-83197200D01*
X118727000Y-83197200D02*
X119198000Y-83197200D01*
X90802000Y-83400400D02*
X108038297Y-83400400D01*
X110762193Y-83400400D02*
X116273000Y-83400400D01*
X118727000Y-83400400D02*
X119198000Y-83400400D01*
X90802000Y-83603600D02*
X108241143Y-83603600D01*
X110558638Y-83603600D02*
X116273000Y-83603600D01*
X118727000Y-83603600D02*
X119198000Y-83603600D01*
X90802000Y-83806800D02*
X108477228Y-83806800D01*
X110324066Y-83806800D02*
X116273000Y-83806800D01*
X118727000Y-83806800D02*
X119198000Y-83806800D01*
X90802000Y-84010000D02*
X108966587Y-84010000D01*
X109832284Y-84010000D02*
X116273000Y-84010000D01*
X118727000Y-84010000D02*
X119198000Y-84010000D01*
X90802000Y-84213200D02*
X116273000Y-84213200D01*
X118727000Y-84213200D02*
X119198000Y-84213200D01*
X90802000Y-84416400D02*
X116273000Y-84416400D01*
X118727000Y-84416400D02*
X119198000Y-84416400D01*
X90802000Y-84619600D02*
X116273000Y-84619600D01*
X118727000Y-84619600D02*
X119198000Y-84619600D01*
X90802000Y-84822800D02*
X116273000Y-84822800D01*
X118727000Y-84822800D02*
X119198000Y-84822800D01*
X90802000Y-85026000D02*
X116273000Y-85026000D01*
X118727000Y-85026000D02*
X119198000Y-85026000D01*
X90802000Y-85229200D02*
X116273000Y-85229200D01*
X118727000Y-85229200D02*
X119198000Y-85229200D01*
X90802000Y-85432400D02*
X116273000Y-85432400D01*
X118727000Y-85432400D02*
X119198000Y-85432400D01*
X90802000Y-85635600D02*
X116273000Y-85635600D01*
X118727000Y-85635600D02*
X119198000Y-85635600D01*
X90802000Y-85838800D02*
X108655996Y-85838800D01*
X110143597Y-85838800D02*
X116273000Y-85838800D01*
X118727000Y-85838800D02*
X119198000Y-85838800D01*
X90802000Y-86042000D02*
X93296655Y-86042000D01*
X94703138Y-86042000D02*
X108315892Y-86042000D01*
X110484587Y-86042000D02*
X113796655Y-86042000D01*
X115203138Y-86042000D02*
X116273000Y-86042000D01*
X118727000Y-86042000D02*
X119198000Y-86042000D01*
X90802000Y-86245200D02*
X92932721Y-86245200D01*
X115567816Y-86245200D02*
X116273000Y-86245200D01*
X118727000Y-86245200D02*
X119198000Y-86245200D01*
X90802000Y-86448400D02*
X92729166Y-86448400D01*
X115770662Y-86448400D02*
X116273000Y-86448400D01*
X118727000Y-86448400D02*
X119198000Y-86448400D01*
X90802000Y-86651600D02*
X92532147Y-86651600D01*
X115968482Y-86651600D02*
X116273000Y-86651600D01*
X118727000Y-86651600D02*
X119198000Y-86651600D01*
X90802000Y-86854800D02*
X92447771Y-86854800D01*
X116052443Y-86854800D02*
X116273000Y-86854800D01*
X118727000Y-86854800D02*
X119198000Y-86854800D01*
X90802000Y-87058000D02*
X92363395Y-87058000D01*
X116136403Y-87058000D02*
X116273000Y-87058000D01*
X118727000Y-87058000D02*
X119198000Y-87058000D01*
X90802000Y-87261200D02*
X92279019Y-87261200D01*
X116220364Y-87261200D02*
X116273000Y-87261200D01*
X118727000Y-87261200D02*
X119198000Y-87261200D01*
X90802000Y-87464400D02*
X92273135Y-87464400D01*
X116227136Y-87464400D02*
X116273000Y-87464400D01*
X118727000Y-87464400D02*
X119198000Y-87464400D01*
X90802000Y-87667600D02*
X92272958Y-87667600D01*
X116226959Y-87667600D02*
X116273000Y-87667600D01*
X118727000Y-87667600D02*
X119198000Y-87667600D01*
X90802000Y-87870800D02*
X92272781Y-87870800D01*
X116226782Y-87870800D02*
X116273000Y-87870800D01*
X118727000Y-87870800D02*
X119198000Y-87870800D01*
X90802000Y-88074000D02*
X92318972Y-88074000D01*
X116181451Y-88074000D02*
X116273000Y-88074000D01*
X118727000Y-88074000D02*
X119198000Y-88074000D01*
X90802000Y-88277200D02*
X92402933Y-88277200D01*
X116097075Y-88277200D02*
X116273000Y-88277200D01*
X118727000Y-88277200D02*
X119198000Y-88277200D01*
X90802000Y-88480400D02*
X92486893Y-88480400D01*
X116012698Y-88480400D02*
X116273000Y-88480400D01*
X118727000Y-88480400D02*
X119198000Y-88480400D01*
X90802000Y-88683600D02*
X92621526Y-88683600D01*
X95379023Y-88683600D02*
X108241143Y-88683600D01*
X110558639Y-88683600D02*
X113121527Y-88683600D01*
X115879023Y-88683600D02*
X116273000Y-88683600D01*
X118727000Y-88683600D02*
X119198000Y-88683600D01*
X90802000Y-88886800D02*
X92824372Y-88886800D01*
X95175468Y-88886800D02*
X108477228Y-88886800D01*
X110324066Y-88886800D02*
X113324372Y-88886800D01*
X115675468Y-88886800D02*
X116273000Y-88886800D01*
X118727000Y-88886800D02*
X119198000Y-88886800D01*
X90802000Y-89090000D02*
X92627388Y-89090000D01*
X97604738Y-89090000D02*
X108966587Y-89090000D01*
X109832284Y-89090000D02*
X113127388Y-89090000D01*
X115872085Y-89090000D02*
X116273000Y-89090000D01*
X118727000Y-89090000D02*
X119198000Y-89090000D01*
X90802000Y-89293200D02*
X92489959Y-89293200D01*
X97908440Y-89293200D02*
X112989959Y-89293200D01*
X116010463Y-89293200D02*
X116273000Y-89293200D01*
X118727000Y-89293200D02*
X119198000Y-89293200D01*
X90802000Y-89496400D02*
X92405583Y-89496400D01*
X98111640Y-89496400D02*
X112905583Y-89496400D01*
X116094423Y-89496400D02*
X116273000Y-89496400D01*
X118727000Y-89496400D02*
X119198000Y-89496400D01*
X90802000Y-89699600D02*
X92321207Y-89699600D01*
X98314840Y-89699600D02*
X112821207Y-89699600D01*
X116178383Y-89699600D02*
X116273000Y-89699600D01*
X118727000Y-89699600D02*
X119198000Y-89699600D01*
X90802000Y-89902800D02*
X92273224Y-89902800D01*
X98518040Y-89902800D02*
X112773224Y-89902800D01*
X116227225Y-89902800D02*
X116273000Y-89902800D01*
X118727000Y-89902800D02*
X119198000Y-89902800D01*
X90802000Y-90106000D02*
X92273047Y-90106000D01*
X98721240Y-90106000D02*
X112773046Y-90106000D01*
X116227047Y-90106000D02*
X116273000Y-90106000D01*
X118727000Y-90106000D02*
X119198000Y-90106000D01*
X90802000Y-90309200D02*
X92272870Y-90309200D01*
X98924440Y-90309200D02*
X112615560Y-90309200D01*
X116226870Y-90309200D02*
X116273000Y-90309200D01*
X118727000Y-90309200D02*
X119198000Y-90309200D01*
X90802000Y-90512400D02*
X92276992Y-90512400D01*
X99127640Y-90512400D02*
X112412360Y-90512400D01*
X116223639Y-90512400D02*
X116273000Y-90512400D01*
X118727000Y-90512400D02*
X119198000Y-90512400D01*
X90802000Y-90715600D02*
X92360952Y-90715600D01*
X99330840Y-90715600D02*
X112209160Y-90715600D01*
X116139263Y-90715600D02*
X116273000Y-90715600D01*
X118727000Y-90715600D02*
X119198000Y-90715600D01*
X90802000Y-90918800D02*
X92444913Y-90918800D01*
X99534040Y-90918800D02*
X112005960Y-90918800D01*
X116054887Y-90918800D02*
X116273000Y-90918800D01*
X118727000Y-90918800D02*
X119198000Y-90918800D01*
X90802000Y-91122000D02*
X92528873Y-91122000D01*
X99737240Y-91122000D02*
X111802760Y-91122000D01*
X115970510Y-91122000D02*
X116273000Y-91122000D01*
X118727000Y-91122000D02*
X119198000Y-91122000D01*
X90802000Y-91325200D02*
X92722949Y-91325200D01*
X99940440Y-91325200D02*
X111599560Y-91325200D01*
X115777245Y-91325200D02*
X116273000Y-91325200D01*
X118727000Y-91325200D02*
X119198000Y-91325200D01*
X90802000Y-91528400D02*
X92925795Y-91528400D01*
X95073690Y-91528400D02*
X96673160Y-91528400D01*
X100143640Y-91528400D02*
X111396360Y-91528400D01*
X115573690Y-91528400D02*
X116273000Y-91528400D01*
X118727000Y-91528400D02*
X119198000Y-91528400D01*
X90802000Y-91731600D02*
X93281449Y-91731600D01*
X94718834Y-91731600D02*
X96876360Y-91731600D01*
X100346840Y-91731600D02*
X111193160Y-91731600D01*
X115218834Y-91731600D02*
X116273000Y-91731600D01*
X118727000Y-91731600D02*
X119198000Y-91731600D01*
X90802000Y-91934800D02*
X97079560Y-91934800D01*
X100550040Y-91934800D02*
X110989960Y-91934800D01*
X114460440Y-91934800D02*
X116273000Y-91934800D01*
X118727000Y-91934800D02*
X119198000Y-91934800D01*
X90802000Y-92138000D02*
X97282760Y-92138000D01*
X100753240Y-92138000D02*
X110786760Y-92138000D01*
X114257240Y-92138000D02*
X116273000Y-92138000D01*
X118727000Y-92138000D02*
X119198000Y-92138000D01*
X90802000Y-92341200D02*
X97485960Y-92341200D01*
X101388551Y-92341200D02*
X102912206Y-92341200D01*
X103928551Y-92341200D02*
X107992206Y-92341200D01*
X109008551Y-92341200D02*
X110583560Y-92341200D01*
X114054040Y-92341200D02*
X116273000Y-92341200D01*
X118727000Y-92341200D02*
X119198000Y-92341200D01*
X90802000Y-92544400D02*
X97689160Y-92544400D01*
X101867157Y-92544400D02*
X102433662Y-92544400D01*
X104407157Y-92544400D02*
X107513662Y-92544400D01*
X109487157Y-92544400D02*
X110380360Y-92544400D01*
X113850840Y-92544400D02*
X116273000Y-92544400D01*
X118727000Y-92544400D02*
X119198000Y-92544400D01*
X90802000Y-92747600D02*
X97892360Y-92747600D01*
X102070003Y-92747600D02*
X102230107Y-92747600D01*
X104610003Y-92747600D02*
X107310107Y-92747600D01*
X109690003Y-92747600D02*
X110177160Y-92747600D01*
X113647640Y-92747600D02*
X116273000Y-92747600D01*
X118727000Y-92747600D02*
X119198000Y-92747600D01*
X90802000Y-92950800D02*
X98095560Y-92950800D01*
X104812848Y-92950800D02*
X107106552Y-92950800D01*
X113444440Y-92950800D02*
X116273000Y-92950800D01*
X118727000Y-92950800D02*
X119198000Y-92950800D01*
X90802000Y-93154000D02*
X98298760Y-93154000D01*
X104939057Y-93154000D02*
X106981322Y-93154000D01*
X113241240Y-93154000D02*
X116110760Y-93154000D01*
X118727000Y-93154000D02*
X119198000Y-93154000D01*
X90802000Y-93357200D02*
X98501960Y-93357200D01*
X105023017Y-93357200D02*
X106896946Y-93357200D01*
X113038040Y-93357200D02*
X115907560Y-93357200D01*
X118727000Y-93357200D02*
X119198000Y-93357200D01*
X90802000Y-93560400D02*
X98705160Y-93560400D01*
X105106978Y-93560400D02*
X106812570Y-93560400D01*
X112834840Y-93560400D02*
X115704360Y-93560400D01*
X118714985Y-93560400D02*
X119198000Y-93560400D01*
X90802000Y-93763600D02*
X98908360Y-93763600D01*
X105147206Y-93763600D02*
X106773206Y-93763600D01*
X112631640Y-93763600D02*
X115501160Y-93763600D01*
X118674566Y-93763600D02*
X119198000Y-93763600D01*
X90802000Y-93966800D02*
X99111560Y-93966800D01*
X105147029Y-93966800D02*
X106773029Y-93966800D01*
X112428440Y-93966800D02*
X115297960Y-93966800D01*
X118634147Y-93966800D02*
X119198000Y-93966800D01*
X90802000Y-94170000D02*
X99152851Y-94170000D01*
X105146852Y-94170000D02*
X106772851Y-94170000D01*
X112225240Y-94170000D02*
X115094760Y-94170000D01*
X118499665Y-94170000D02*
X119198000Y-94170000D01*
X90802000Y-94373200D02*
X99165586Y-94373200D01*
X105135002Y-94373200D02*
X106785586Y-94373200D01*
X112022040Y-94373200D02*
X114891560Y-94373200D01*
X118362040Y-94373200D02*
X119198000Y-94373200D01*
X90802000Y-94576400D02*
X99249547Y-94576400D01*
X105050626Y-94576400D02*
X106869547Y-94576400D01*
X111818840Y-94576400D02*
X114688360Y-94576400D01*
X118158840Y-94576400D02*
X119198000Y-94576400D01*
X90802000Y-94779600D02*
X99333507Y-94779600D01*
X104966250Y-94779600D02*
X106953507Y-94779600D01*
X111615640Y-94779600D02*
X114485160Y-94779600D01*
X117955640Y-94779600D02*
X119198000Y-94779600D01*
X90802000Y-94982800D02*
X99420867Y-94982800D01*
X104879964Y-94982800D02*
X107040867Y-94982800D01*
X111355241Y-94982800D02*
X114281960Y-94982800D01*
X117752440Y-94982800D02*
X119198000Y-94982800D01*
X90802000Y-95186000D02*
X99623713Y-95186000D01*
X102136409Y-95186000D02*
X102163713Y-95186000D01*
X104676409Y-95186000D02*
X107243713Y-95186000D01*
X110866120Y-95186000D02*
X114078760Y-95186000D01*
X117549240Y-95186000D02*
X119198000Y-95186000D01*
X90802000Y-95389200D02*
X99826559Y-95389200D01*
X101932854Y-95389200D02*
X102193000Y-95389200D01*
X104647000Y-95389200D02*
X107446559Y-95389200D01*
X109552854Y-95389200D02*
X113875560Y-95389200D01*
X117346040Y-95389200D02*
X119198000Y-95389200D01*
X90802000Y-95592400D02*
X100211541Y-95592400D01*
X101548494Y-95592400D02*
X102193000Y-95592400D01*
X104647000Y-95592400D02*
X107831541Y-95592400D01*
X109168494Y-95592400D02*
X113672360Y-95592400D01*
X117142840Y-95592400D02*
X119198000Y-95592400D01*
X90802000Y-95795600D02*
X102193000Y-95795600D01*
X104647000Y-95795600D02*
X113469160Y-95795600D01*
X116939640Y-95795600D02*
X119198000Y-95795600D01*
X90802000Y-95998800D02*
X102193000Y-95998800D01*
X104734040Y-95998800D02*
X113265960Y-95998800D01*
X116736440Y-95998800D02*
X119198000Y-95998800D01*
X90802000Y-96202000D02*
X102193000Y-96202000D01*
X104937240Y-96202000D02*
X113062760Y-96202000D01*
X116533240Y-96202000D02*
X119198000Y-96202000D01*
X90802000Y-96405200D02*
X102193000Y-96405200D01*
X116330040Y-96405200D02*
X119198000Y-96405200D01*
X90802000Y-96608400D02*
X102230475Y-96608400D01*
X116126840Y-96608400D02*
X119198000Y-96608400D01*
X90802000Y-96811600D02*
X102270894Y-96811600D01*
X115923640Y-96811600D02*
X119198000Y-96811600D01*
X90802000Y-97014800D02*
X102370087Y-97014800D01*
X115720440Y-97014800D02*
X119198000Y-97014800D01*
X90802000Y-97218000D02*
X102505861Y-97218000D01*
X115517240Y-97218000D02*
X119198000Y-97218000D01*
X90802000Y-97421200D02*
X102685960Y-97421200D01*
X115314040Y-97421200D02*
X119198000Y-97421200D01*
X90802000Y-97624400D02*
X102889160Y-97624400D01*
X115110840Y-97624400D02*
X119198000Y-97624400D01*
X90802000Y-97827600D02*
X103092360Y-97827600D01*
X114907640Y-97827600D02*
X119198000Y-97827600D01*
X90802000Y-98030800D02*
X103295560Y-98030800D01*
X114704440Y-98030800D02*
X119198000Y-98030800D01*
X90802000Y-98234000D02*
X103498760Y-98234000D01*
X114501240Y-98234000D02*
X119198000Y-98234000D01*
X90802000Y-98437200D02*
X103736513Y-98437200D01*
X114263486Y-98437200D02*
X119198000Y-98437200D01*
X90802000Y-98640400D02*
X104064629Y-98640400D01*
X113935367Y-98640400D02*
X119198000Y-98640400D01*
X90802000Y-98843600D02*
X119198000Y-98843600D01*
X90802000Y-99046800D02*
X119198000Y-99046800D01*
X119198000Y-99198000D02*
X90802000Y-99198000D01*
X90802000Y-80342014D01*
X92272701Y-80342014D01*
X92535067Y-80976989D01*
X93020456Y-81463226D01*
X93654971Y-81726700D01*
X94342014Y-81727299D01*
X94976989Y-81464933D01*
X95215338Y-81227000D01*
X106571760Y-81227000D01*
X107672992Y-82328232D01*
X107672701Y-82662014D01*
X107935067Y-83296989D01*
X108420456Y-83783226D01*
X109054971Y-84046700D01*
X109742014Y-84047299D01*
X110376989Y-83784933D01*
X110863226Y-83299544D01*
X111126700Y-82665029D01*
X111127186Y-82108054D01*
X112008240Y-81227000D01*
X113284642Y-81227000D01*
X113520456Y-81463226D01*
X114154971Y-81726700D01*
X114842014Y-81727299D01*
X115476989Y-81464933D01*
X115715338Y-81227000D01*
X116273000Y-81227000D01*
X116273000Y-92991760D01*
X112991760Y-96273000D01*
X105008240Y-96273000D01*
X104647000Y-95911760D01*
X104647000Y-95215358D01*
X104883226Y-94979544D01*
X105146700Y-94345029D01*
X105147299Y-93657986D01*
X104884933Y-93023011D01*
X104399544Y-92536774D01*
X103765029Y-92273300D01*
X103077986Y-92272701D01*
X102443011Y-92535067D01*
X102149915Y-92827652D01*
X101859544Y-92536774D01*
X101225029Y-92273300D01*
X100888246Y-92273006D01*
X97907620Y-89292380D01*
X97509553Y-89026400D01*
X97040000Y-88933000D01*
X95215358Y-88933000D01*
X95172348Y-88889915D01*
X95435722Y-88627000D01*
X108184642Y-88627000D01*
X108420456Y-88863226D01*
X109054971Y-89126700D01*
X109742014Y-89127299D01*
X110376989Y-88864933D01*
X110615338Y-88627000D01*
X113065026Y-88627000D01*
X113327652Y-88890085D01*
X113036774Y-89180456D01*
X112773300Y-89814971D01*
X112773006Y-90151754D01*
X110151760Y-92773000D01*
X109715358Y-92773000D01*
X109479544Y-92536774D01*
X108845029Y-92273300D01*
X108157986Y-92272701D01*
X107523011Y-92535067D01*
X107036774Y-93020456D01*
X106773300Y-93654971D01*
X106772701Y-94342014D01*
X107035067Y-94976989D01*
X107520456Y-95463226D01*
X108154971Y-95726700D01*
X108842014Y-95727299D01*
X109476989Y-95464933D01*
X109715338Y-95227000D01*
X110660000Y-95227000D01*
X111129553Y-95133600D01*
X111527620Y-94867620D01*
X114508232Y-91887008D01*
X114842014Y-91887299D01*
X115476989Y-91624933D01*
X115963226Y-91139544D01*
X116226700Y-90505029D01*
X116227299Y-89817986D01*
X115964933Y-89183011D01*
X115672348Y-88889915D01*
X115963226Y-88599544D01*
X116226700Y-87965029D01*
X116227299Y-87277986D01*
X115964933Y-86643011D01*
X115479544Y-86156774D01*
X114845029Y-85893300D01*
X114157986Y-85892701D01*
X113523011Y-86155067D01*
X113505047Y-86173000D01*
X110615358Y-86173000D01*
X110379544Y-85936774D01*
X109745029Y-85673300D01*
X109057986Y-85672701D01*
X108423011Y-85935067D01*
X108184662Y-86173000D01*
X94995742Y-86173000D01*
X94979544Y-86156774D01*
X94345029Y-85893300D01*
X93657986Y-85892701D01*
X93023011Y-86155067D01*
X92536774Y-86640456D01*
X92273300Y-87274971D01*
X92272701Y-87962014D01*
X92535067Y-88596989D01*
X92827652Y-88890085D01*
X92536774Y-89180456D01*
X92273300Y-89814971D01*
X92272701Y-90502014D01*
X92535067Y-91136989D01*
X93020456Y-91623226D01*
X93654971Y-91886700D01*
X94342014Y-91887299D01*
X94976989Y-91624933D01*
X95215338Y-91387000D01*
X96531760Y-91387000D01*
X99152992Y-94008232D01*
X99152701Y-94342014D01*
X99415067Y-94976989D01*
X99900456Y-95463226D01*
X100534971Y-95726700D01*
X101222014Y-95727299D01*
X101856989Y-95464933D01*
X102150085Y-95172348D01*
X102193000Y-95215338D01*
X102193000Y-96420000D01*
X102286400Y-96889553D01*
X102552380Y-97287620D01*
X103632380Y-98367620D01*
X104030448Y-98633601D01*
X104500000Y-98727000D01*
X113500000Y-98727000D01*
X113969553Y-98633600D01*
X114367620Y-98367620D01*
X118367620Y-94367620D01*
X118384729Y-94342014D01*
X118633600Y-93969553D01*
X118727000Y-93500000D01*
X118727000Y-80500000D01*
X118701738Y-80373000D01*
X118633601Y-80030448D01*
X118367620Y-79632380D01*
X117867620Y-79132380D01*
X117469553Y-78866400D01*
X117000000Y-78773000D01*
X115715358Y-78773000D01*
X115479544Y-78536774D01*
X114845029Y-78273300D01*
X114157986Y-78272701D01*
X113523011Y-78535067D01*
X113284662Y-78773000D01*
X111500000Y-78773000D01*
X111030447Y-78866400D01*
X110632380Y-79132380D01*
X109389714Y-80375046D01*
X109223373Y-80408133D01*
X107947620Y-79132380D01*
X107549553Y-78866400D01*
X107080000Y-78773000D01*
X95215358Y-78773000D01*
X94979544Y-78536774D01*
X94345029Y-78273300D01*
X93657986Y-78272701D01*
X93023011Y-78535067D01*
X92536774Y-79020456D01*
X92273300Y-79654971D01*
X92272701Y-80342014D01*
X90802000Y-80342014D01*
X90802000Y-70802000D01*
X119198000Y-70802000D01*
X119198000Y-99198000D01*
M02*
