M48
;DRILL file {KiCad 4.0.6-e0-6349~52~ubuntu17.04.1} date Sat May 20 12:26:24 2017
;FORMAT={-:-/ absolute / metric / decimal}
FMAT,2
METRIC,TZ
T1C0.800
%
G90
G05
M71
T1
X5.5Y17.66
X5.5Y7.5
X7.8Y33.4
X7.8Y30.86
X10.34Y33.4
X10.34Y30.86
X10.38Y40.5
X10.5Y18.58
X10.5Y16.04
X10.5Y13.5
X12.88Y33.4
X12.88Y30.86
X12.92Y40.5
X15.42Y33.4
X15.42Y30.86
X15.46Y40.5
X16.Y21.
X16.Y18.46
X16.Y15.92
X16.Y13.38
X16.Y10.84
X16.Y8.3
X17.96Y33.4
X17.96Y30.86
X18.Y40.5
X20.5Y33.4
X20.5Y30.86
X22.Y18.5
X22.Y15.96
X22.Y13.42
X22.Y10.88
X22.Y8.34
X23.04Y33.4
X23.04Y30.86
X25.58Y33.4
X25.58Y30.86
X28.12Y33.4
X28.12Y30.86
X30.53Y22.23
X30.53Y12.07
X30.66Y33.4
X30.66Y30.86
X33.07Y22.23
X33.07Y12.07
X33.2Y33.4
X33.2Y30.86
X35.61Y22.23
X35.61Y12.07
X35.74Y33.4
X35.74Y30.86
X38.15Y22.23
X38.15Y12.07
X38.28Y33.4
X38.28Y30.86
X40.69Y22.23
X40.69Y12.07
X40.72Y40.5
X40.82Y33.4
X40.82Y30.86
X43.23Y22.23
X43.23Y12.07
X43.26Y40.5
X43.36Y33.4
X43.36Y30.86
X45.8Y40.5
X45.9Y33.4
X45.9Y30.86
X48.34Y40.5
X48.44Y33.4
X48.44Y30.86
X50.61Y22.31
X50.61Y14.69
X50.88Y40.5
X50.98Y33.4
X50.98Y30.86
X53.15Y22.31
X53.15Y14.69
X53.42Y40.5
X53.52Y33.4
X53.52Y30.86
X55.69Y22.31
X55.69Y14.69
X55.96Y40.5
X56.06Y33.4
X56.06Y30.86
X58.23Y22.31
X58.23Y14.69
X58.5Y40.5
X60.77Y22.31
X60.77Y14.69
X60.96Y28.5
X63.31Y22.31
X63.31Y14.69
X63.5Y28.5
X65.85Y22.31
X65.85Y14.69
X68.39Y22.31
X68.39Y14.69
X68.5Y31.04
X68.5Y28.5
T0
M30
