G04 #@! TF.FileFunction,Copper,L1,Top,Signal*
%FSLAX46Y46*%
G04 Gerber Fmt 4.6, Leading zero omitted, Abs format (unit mm)*
G04 Created by KiCad (PCBNEW 4.0.6-e0-6349~52~ubuntu17.04.1) date Sat May 20 12:26:21 2017*
%MOMM*%
%LPD*%
G01*
G04 APERTURE LIST*
%ADD10C,0.100000*%
%ADD11C,2.000000*%
%ADD12C,1.000000*%
%ADD13C,0.554000*%
G04 APERTURE END LIST*
D10*
D11*
X68500000Y28500000D03*
X68500000Y31040000D03*
X5500000Y7500000D03*
X5500000Y17660000D03*
X58500000Y40500000D03*
X55960000Y40500000D03*
X53420000Y40500000D03*
X50880000Y40500000D03*
X48340000Y40500000D03*
X45800000Y40500000D03*
X43260000Y40500000D03*
X40720000Y40500000D03*
X10500000Y16040000D03*
X10500000Y18580000D03*
X10500000Y13500000D03*
X30530000Y22230000D03*
X33070000Y22230000D03*
X35610000Y22230000D03*
X38150000Y22230000D03*
X40690000Y22230000D03*
X43230000Y22230000D03*
X43230000Y12070000D03*
X40690000Y12070000D03*
X38150000Y12070000D03*
X35610000Y12070000D03*
X33070000Y12070000D03*
X30530000Y12070000D03*
X63500000Y28500000D03*
X60960000Y28500000D03*
X7800000Y33400000D03*
X7800000Y30860000D03*
X10340000Y33400000D03*
X10340000Y30860000D03*
X12880000Y33400000D03*
X12880000Y30860000D03*
X15420000Y33400000D03*
X15420000Y30860000D03*
X17960000Y33400000D03*
X17960000Y30860000D03*
X20500000Y33400000D03*
X20500000Y30860000D03*
X23040000Y33400000D03*
X23040000Y30860000D03*
X25580000Y33400000D03*
X25580000Y30860000D03*
X28120000Y33400000D03*
X28120000Y30860000D03*
X30660000Y33400000D03*
X30660000Y30860000D03*
X33200000Y33400000D03*
X33200000Y30860000D03*
X35740000Y33400000D03*
X35740000Y30860000D03*
X38280000Y33400000D03*
X38280000Y30860000D03*
X40820000Y33400000D03*
X40820000Y30860000D03*
X43360000Y33400000D03*
X43360000Y30860000D03*
X45900000Y33400000D03*
X45900000Y30860000D03*
X48440000Y33400000D03*
X48440000Y30860000D03*
X50980000Y33400000D03*
X50980000Y30860000D03*
X53520000Y33400000D03*
X53520000Y30860000D03*
X56060000Y33400000D03*
X56060000Y30860000D03*
X22000000Y18500000D03*
X22000000Y15960000D03*
X22000000Y13420000D03*
X22000000Y10880000D03*
X22000000Y8340000D03*
X50610000Y22310000D03*
X53150000Y22310000D03*
X65850000Y22310000D03*
X68390000Y22310000D03*
X55690000Y22310000D03*
X58230000Y22310000D03*
X63310000Y22310000D03*
X60770000Y22310000D03*
X68390000Y14690000D03*
X65850000Y14690000D03*
X63310000Y14690000D03*
X60770000Y14690000D03*
X58230000Y14690000D03*
X55690000Y14690000D03*
X53150000Y14690000D03*
X50610000Y14690000D03*
X18000000Y40500000D03*
X15460000Y40500000D03*
X12920000Y40500000D03*
X10380000Y40500000D03*
X16000000Y21000000D03*
X16000000Y18460000D03*
X16000000Y15920000D03*
X16000000Y13380000D03*
X16000000Y10840000D03*
X16000000Y8300000D03*
D12*
X35610000Y12070000D02*
X35610000Y16500000D01*
X35610000Y16500000D02*
X35500000Y16500000D01*
X34000000Y16500000D02*
X35500000Y16500000D01*
X35500000Y16500000D02*
X44000000Y16500000D01*
X71500000Y19200000D02*
X68390000Y22310000D01*
X71500000Y12500000D02*
X71500000Y19200000D01*
X70000000Y11000000D02*
X71500000Y12500000D01*
X49500000Y11000000D02*
X70000000Y11000000D01*
X44000000Y16500000D02*
X49500000Y11000000D01*
X68500000Y28500000D02*
X68500000Y22420000D01*
X68500000Y22420000D02*
X68390000Y22310000D01*
X22000000Y18500000D02*
X23500000Y18500000D01*
X25500000Y16500000D02*
X34000000Y16500000D01*
X23500000Y18500000D02*
X25500000Y16500000D01*
X16000000Y21000000D02*
X19500000Y21000000D01*
X19500000Y21000000D02*
X22000000Y18500000D01*
X68500000Y22420000D02*
X68390000Y22310000D01*
X5500000Y7500000D02*
X8500000Y7500000D01*
X40690000Y9190000D02*
X40690000Y12070000D01*
X35000000Y3500000D02*
X40690000Y9190000D01*
X12500000Y3500000D02*
X35000000Y3500000D01*
X8500000Y7500000D02*
X12500000Y3500000D01*
X5500000Y7500000D02*
X5500000Y14500000D01*
X7040000Y16040000D02*
X10500000Y16040000D01*
X5500000Y14500000D02*
X7040000Y16040000D01*
X10500000Y13500000D02*
X15880000Y13500000D01*
X15880000Y13500000D02*
X16000000Y13380000D01*
X50610000Y22310000D02*
X48810000Y22310000D01*
X36110000Y18500000D02*
X35610000Y19000000D01*
X45000000Y18500000D02*
X36110000Y18500000D01*
X48810000Y22310000D02*
X45000000Y18500000D01*
X7800000Y33400000D02*
X4600000Y33400000D01*
X26000000Y19000000D02*
X35610000Y19000000D01*
X18000000Y27000000D02*
X26000000Y19000000D01*
X5500000Y27000000D02*
X18000000Y27000000D01*
X4500000Y28000000D02*
X5500000Y27000000D01*
X4500000Y33300000D02*
X4500000Y28000000D01*
X4600000Y33400000D02*
X4500000Y33300000D01*
X28120000Y33400000D02*
X28120000Y35380000D01*
X15460000Y38040000D02*
X15460000Y40500000D01*
X16500000Y37000000D02*
X15460000Y38040000D01*
X26500000Y37000000D02*
X16500000Y37000000D01*
X28120000Y35380000D02*
X26500000Y37000000D01*
X35610000Y22230000D02*
X35610000Y19000000D01*
X50610000Y22310000D02*
X50610000Y14690000D01*
X63500000Y28500000D02*
X63500000Y22500000D01*
X63500000Y22500000D02*
X63310000Y22310000D01*
X55690000Y22310000D02*
X55690000Y23230000D01*
X55690000Y23230000D02*
X60960000Y28500000D01*
X10380000Y40500000D02*
X10380000Y33440000D01*
X10380000Y33440000D02*
X10340000Y33400000D01*
X10380000Y33440000D02*
X10340000Y33400000D01*
X10380000Y33440000D02*
X10340000Y33400000D01*
X12920000Y40500000D02*
X12920000Y33440000D01*
X12920000Y33440000D02*
X12880000Y33400000D01*
X12920000Y33440000D02*
X12880000Y33400000D01*
X12920000Y33440000D02*
X12880000Y33400000D01*
X30530000Y22230000D02*
X26770000Y22230000D01*
X20500000Y28500000D02*
X20500000Y30860000D01*
X26770000Y22230000D02*
X20500000Y28500000D01*
X20330000Y30690000D02*
X20500000Y30860000D01*
X33070000Y22230000D02*
X33070000Y22930000D01*
X33070000Y22930000D02*
X31500000Y24500000D01*
X31500000Y24500000D02*
X29000000Y24500000D01*
X29000000Y24500000D02*
X25580000Y27920000D01*
X25580000Y27920000D02*
X25580000Y30860000D01*
X25590000Y30850000D02*
X25580000Y30860000D01*
X25590000Y30850000D02*
X25580000Y30860000D01*
X40690000Y22230000D02*
X40690000Y25810000D01*
X28120000Y27880000D02*
X28120000Y30860000D01*
X29500000Y26500000D02*
X28120000Y27880000D01*
X40000000Y26500000D02*
X29500000Y26500000D01*
X40690000Y25810000D02*
X40000000Y26500000D01*
X28130000Y30850000D02*
X28120000Y30860000D01*
X28130000Y30850000D02*
X28120000Y30860000D01*
X40720000Y40500000D02*
X38000000Y40500000D01*
X35740000Y38240000D02*
X35740000Y33400000D01*
X38000000Y40500000D02*
X35740000Y38240000D01*
X43260000Y40500000D02*
X43260000Y33500000D01*
X43260000Y33500000D02*
X43360000Y33400000D01*
X43560000Y33600000D02*
X43360000Y33400000D01*
X45800000Y40500000D02*
X45800000Y33500000D01*
X45800000Y33500000D02*
X45900000Y33400000D01*
X48340000Y40500000D02*
X48340000Y33500000D01*
X48340000Y33500000D02*
X48440000Y33400000D01*
X48640000Y33600000D02*
X48440000Y33400000D01*
X50880000Y40500000D02*
X50880000Y33500000D01*
X50880000Y33500000D02*
X50980000Y33400000D01*
X53420000Y40500000D02*
X53420000Y33500000D01*
X53420000Y33500000D02*
X53520000Y33400000D01*
X53720000Y33600000D02*
X53520000Y33400000D01*
X56060000Y30860000D02*
X56060000Y29060000D01*
X53150000Y26150000D02*
X53150000Y22310000D01*
X56060000Y29060000D02*
X53150000Y26150000D01*
X22000000Y10880000D02*
X24380000Y10880000D01*
X33070000Y13930000D02*
X33070000Y12070000D01*
X32500000Y14500000D02*
X33070000Y13930000D01*
X28000000Y14500000D02*
X32500000Y14500000D01*
X24380000Y10880000D02*
X28000000Y14500000D01*
X16000000Y8300000D02*
X21960000Y8300000D01*
X21960000Y8300000D02*
X22000000Y8340000D01*
X16000000Y10840000D02*
X14340000Y10840000D01*
X30530000Y10530000D02*
X30530000Y12070000D01*
X25500000Y5500000D02*
X30530000Y10530000D01*
X13500000Y5500000D02*
X25500000Y5500000D01*
X13000000Y6000000D02*
X13500000Y5500000D01*
X13000000Y9500000D02*
X13000000Y6000000D01*
X14340000Y10840000D02*
X13000000Y9500000D01*
D13*
G36*
X74048000Y35605669D02*
X74048000Y7952000D01*
X46000005Y7952000D01*
X46000000Y7952001D01*
X45696130Y7891556D01*
X45635685Y7879533D01*
X45476314Y7773045D01*
X45326834Y7673166D01*
X38605668Y952000D01*
X952000Y952000D01*
X952000Y33300000D01*
X3123000Y33300000D01*
X3123000Y28000000D01*
X3227818Y27473045D01*
X3526314Y27026314D01*
X4526314Y26026314D01*
X4973045Y25727818D01*
X5500000Y25623000D01*
X17429628Y25623000D01*
X22889661Y20162967D01*
X22374996Y20376674D01*
X22070432Y20376940D01*
X20473686Y21973686D01*
X20026955Y22272182D01*
X19500000Y22377000D01*
X17277567Y22377000D01*
X17064624Y22590316D01*
X16374996Y22876674D01*
X15628280Y22877325D01*
X14938154Y22592171D01*
X14409684Y22064624D01*
X14123326Y21374996D01*
X14122675Y20628280D01*
X14407829Y19938154D01*
X14935376Y19409684D01*
X15625004Y19123326D01*
X16371720Y19122675D01*
X17061846Y19407829D01*
X17277393Y19623000D01*
X18929628Y19623000D01*
X20122938Y18429690D01*
X20122675Y18128280D01*
X20407829Y17438154D01*
X20935376Y16909684D01*
X21625004Y16623326D01*
X22371720Y16622675D01*
X23061846Y16907829D01*
X23103359Y16949269D01*
X24526314Y15526314D01*
X24973045Y15227818D01*
X25500000Y15123000D01*
X26675628Y15123000D01*
X23809628Y12257000D01*
X23277567Y12257000D01*
X23064624Y12470316D01*
X22374996Y12756674D01*
X21628280Y12757325D01*
X20938154Y12472171D01*
X20409684Y11944624D01*
X20123326Y11254996D01*
X20122675Y10508280D01*
X20407829Y9818154D01*
X20548736Y9677000D01*
X17491768Y9677000D01*
X17590316Y9775376D01*
X17876674Y10465004D01*
X17877325Y11211720D01*
X17592171Y11901846D01*
X17384480Y12109900D01*
X17590316Y12315376D01*
X17876674Y13005004D01*
X17877325Y13751720D01*
X17592171Y14441846D01*
X17064624Y14970316D01*
X16374996Y15256674D01*
X15628280Y15257325D01*
X14938154Y14972171D01*
X14842816Y14877000D01*
X11991768Y14877000D01*
X12090316Y14975376D01*
X12376674Y15665004D01*
X12377325Y16411720D01*
X12092171Y17101846D01*
X11564624Y17630316D01*
X10874996Y17916674D01*
X10128280Y17917325D01*
X9438154Y17632171D01*
X9222607Y17417000D01*
X7040000Y17417000D01*
X6513045Y17312182D01*
X6066314Y17013686D01*
X4526314Y15473686D01*
X4227818Y15026955D01*
X4123000Y14500000D01*
X4123000Y8777567D01*
X3909684Y8564624D01*
X3623326Y7874996D01*
X3622675Y7128280D01*
X3907829Y6438154D01*
X4435376Y5909684D01*
X5125004Y5623326D01*
X5871720Y5622675D01*
X6561846Y5907829D01*
X6777393Y6123000D01*
X7929628Y6123000D01*
X11526314Y2526314D01*
X11973045Y2227818D01*
X12500000Y2123000D01*
X35000000Y2123000D01*
X35526955Y2227818D01*
X35973686Y2526314D01*
X41663686Y8216314D01*
X41962182Y8663045D01*
X42067000Y9190000D01*
X42067000Y10578232D01*
X42165376Y10479684D01*
X42855004Y10193326D01*
X43601720Y10192675D01*
X44291846Y10477829D01*
X44820316Y11005376D01*
X45106674Y11695004D01*
X45107325Y12441720D01*
X44822171Y13131846D01*
X44294624Y13660316D01*
X43604996Y13946674D01*
X42858280Y13947325D01*
X42168154Y13662171D01*
X41960100Y13454480D01*
X41754624Y13660316D01*
X41064996Y13946674D01*
X40318280Y13947325D01*
X39628154Y13662171D01*
X39099684Y13134624D01*
X38813326Y12444996D01*
X38812675Y11698280D01*
X39097829Y11008154D01*
X39313000Y10792607D01*
X39313000Y9760372D01*
X34429628Y4877000D01*
X26824372Y4877000D01*
X31503686Y9556314D01*
X31802182Y10003045D01*
X31907000Y10530000D01*
X31907000Y10578232D01*
X32005376Y10479684D01*
X32695004Y10193326D01*
X33441720Y10192675D01*
X34131846Y10477829D01*
X34339900Y10685520D01*
X34545376Y10479684D01*
X35235004Y10193326D01*
X35981720Y10192675D01*
X36671846Y10477829D01*
X37200316Y11005376D01*
X37486674Y11695004D01*
X37487325Y12441720D01*
X37202171Y13131846D01*
X36987000Y13347393D01*
X36987000Y15123000D01*
X43429628Y15123000D01*
X48526314Y10026314D01*
X48973045Y9727818D01*
X49500000Y9623000D01*
X70000000Y9623000D01*
X70526955Y9727818D01*
X70973686Y10026314D01*
X72473686Y11526314D01*
X72772182Y11973045D01*
X72877000Y12500000D01*
X72877000Y19200000D01*
X72772182Y19726955D01*
X72473686Y20173686D01*
X70267062Y22380310D01*
X70267325Y22681720D01*
X69982171Y23371846D01*
X69877000Y23477201D01*
X69877000Y27222433D01*
X70090316Y27435376D01*
X70376674Y28125004D01*
X70377325Y28871720D01*
X70092171Y29561846D01*
X69564624Y30090316D01*
X68874996Y30376674D01*
X68128280Y30377325D01*
X67438154Y30092171D01*
X66909684Y29564624D01*
X66623326Y28874996D01*
X66622675Y28128280D01*
X66907829Y27438154D01*
X67123000Y27222607D01*
X67123000Y23697375D01*
X66799684Y23374624D01*
X66513326Y22684996D01*
X66512675Y21938280D01*
X66797829Y21248154D01*
X67325376Y20719684D01*
X68015004Y20433326D01*
X68319568Y20433060D01*
X70123000Y18629628D01*
X70123000Y15411013D01*
X69982171Y15751846D01*
X69454624Y16280316D01*
X68764996Y16566674D01*
X68018280Y16567325D01*
X67328154Y16282171D01*
X67120100Y16074480D01*
X66914624Y16280316D01*
X66224996Y16566674D01*
X65478280Y16567325D01*
X64788154Y16282171D01*
X64580100Y16074480D01*
X64374624Y16280316D01*
X63684996Y16566674D01*
X62938280Y16567325D01*
X62248154Y16282171D01*
X61719684Y15754624D01*
X61433326Y15064996D01*
X61432675Y14318280D01*
X61717829Y13628154D01*
X62245376Y13099684D01*
X62935004Y12813326D01*
X63681720Y12812675D01*
X64371846Y13097829D01*
X64579900Y13305520D01*
X64785376Y13099684D01*
X65475004Y12813326D01*
X66221720Y12812675D01*
X66911846Y13097829D01*
X67119900Y13305520D01*
X67325376Y13099684D01*
X68015004Y12813326D01*
X68761720Y12812675D01*
X69451846Y13097829D01*
X69980316Y13625376D01*
X70123000Y13968998D01*
X70123000Y13070372D01*
X69429628Y12377000D01*
X50070372Y12377000D01*
X45270555Y17176817D01*
X45526955Y17227818D01*
X45973686Y17526314D01*
X49233000Y20785628D01*
X49233000Y15967567D01*
X49019684Y15754624D01*
X48733326Y15064996D01*
X48732675Y14318280D01*
X49017829Y13628154D01*
X49545376Y13099684D01*
X50235004Y12813326D01*
X50981720Y12812675D01*
X51671846Y13097829D01*
X51879900Y13305520D01*
X52085376Y13099684D01*
X52775004Y12813326D01*
X53521720Y12812675D01*
X54211846Y13097829D01*
X54419900Y13305520D01*
X54625376Y13099684D01*
X55315004Y12813326D01*
X56061720Y12812675D01*
X56751846Y13097829D01*
X57280316Y13625376D01*
X57566674Y14315004D01*
X57567325Y15061720D01*
X57282171Y15751846D01*
X56754624Y16280316D01*
X56064996Y16566674D01*
X55318280Y16567325D01*
X54628154Y16282171D01*
X54420100Y16074480D01*
X54214624Y16280316D01*
X53524996Y16566674D01*
X52778280Y16567325D01*
X52088154Y16282171D01*
X51987000Y16181194D01*
X51987000Y20818232D01*
X52085376Y20719684D01*
X52775004Y20433326D01*
X53521720Y20432675D01*
X54211846Y20717829D01*
X54419900Y20925520D01*
X54625376Y20719684D01*
X55315004Y20433326D01*
X56061720Y20432675D01*
X56751846Y20717829D01*
X57280316Y21245376D01*
X57566674Y21935004D01*
X57567325Y22681720D01*
X57427498Y23020126D01*
X61030310Y26622938D01*
X61331720Y26622675D01*
X62021846Y26907829D01*
X62123000Y27008806D01*
X62123000Y23777236D01*
X61719684Y23374624D01*
X61433326Y22684996D01*
X61432675Y21938280D01*
X61717829Y21248154D01*
X62245376Y20719684D01*
X62935004Y20433326D01*
X63681720Y20432675D01*
X64371846Y20717829D01*
X64900316Y21245376D01*
X65186674Y21935004D01*
X65187325Y22681720D01*
X64902171Y23371846D01*
X64877000Y23397061D01*
X64877000Y27222433D01*
X65090316Y27435376D01*
X65376674Y28125004D01*
X65377325Y28871720D01*
X65092171Y29561846D01*
X64564624Y30090316D01*
X63874996Y30376674D01*
X63128280Y30377325D01*
X62438154Y30092171D01*
X62230100Y29884480D01*
X62024624Y30090316D01*
X61334996Y30376674D01*
X60588280Y30377325D01*
X59898154Y30092171D01*
X59369684Y29564624D01*
X59083326Y28874996D01*
X59083060Y28570432D01*
X54716314Y24203686D01*
X54527000Y23920357D01*
X54527000Y25579628D01*
X57033686Y28086314D01*
X57332182Y28533045D01*
X57437000Y29060000D01*
X57437000Y29582433D01*
X57650316Y29795376D01*
X57936674Y30485004D01*
X57937325Y31231720D01*
X57652171Y31921846D01*
X57124624Y32450316D01*
X56434996Y32736674D01*
X55688280Y32737325D01*
X55192087Y32532302D01*
X55396674Y33025004D01*
X55397325Y33771720D01*
X55112171Y34461846D01*
X54797000Y34777568D01*
X54797000Y39222433D01*
X55010316Y39435376D01*
X55296674Y40125004D01*
X55297325Y40871720D01*
X55012171Y41561846D01*
X54484624Y42090316D01*
X53794996Y42376674D01*
X53048280Y42377325D01*
X52358154Y42092171D01*
X52150100Y41884480D01*
X51944624Y42090316D01*
X51254996Y42376674D01*
X50508280Y42377325D01*
X49818154Y42092171D01*
X49610100Y41884480D01*
X49404624Y42090316D01*
X48714996Y42376674D01*
X47968280Y42377325D01*
X47278154Y42092171D01*
X47070100Y41884480D01*
X46864624Y42090316D01*
X46174996Y42376674D01*
X45428280Y42377325D01*
X44738154Y42092171D01*
X44530100Y41884480D01*
X44324624Y42090316D01*
X43634996Y42376674D01*
X42888280Y42377325D01*
X42198154Y42092171D01*
X41990100Y41884480D01*
X41784624Y42090316D01*
X41094996Y42376674D01*
X40348280Y42377325D01*
X39658154Y42092171D01*
X39442607Y41877000D01*
X38000000Y41877000D01*
X37473045Y41772182D01*
X37026314Y41473686D01*
X34766314Y39213686D01*
X34467818Y38766955D01*
X34363000Y38240000D01*
X34363000Y34891768D01*
X34264624Y34990316D01*
X33574996Y35276674D01*
X32828280Y35277325D01*
X32138154Y34992171D01*
X31930100Y34784480D01*
X31724624Y34990316D01*
X31034996Y35276674D01*
X30288280Y35277325D01*
X29598154Y34992171D01*
X29497000Y34891194D01*
X29497000Y35380000D01*
X29392182Y35906955D01*
X29093686Y36353686D01*
X27473686Y37973686D01*
X27026955Y38272182D01*
X26500000Y38377000D01*
X17070372Y38377000D01*
X16837000Y38610372D01*
X16837000Y39222433D01*
X17050316Y39435376D01*
X17336674Y40125004D01*
X17337325Y40871720D01*
X17052171Y41561846D01*
X16524624Y42090316D01*
X15834996Y42376674D01*
X15088280Y42377325D01*
X14398154Y42092171D01*
X14190100Y41884480D01*
X13984624Y42090316D01*
X13294996Y42376674D01*
X12548280Y42377325D01*
X11858154Y42092171D01*
X11650100Y41884480D01*
X11444624Y42090316D01*
X10754996Y42376674D01*
X10008280Y42377325D01*
X9318154Y42092171D01*
X8789684Y41564624D01*
X8503326Y40874996D01*
X8502675Y40128280D01*
X8787829Y39438154D01*
X9003000Y39222607D01*
X9003000Y34851698D01*
X8864624Y34990316D01*
X8174996Y35276674D01*
X7428280Y35277325D01*
X6738154Y34992171D01*
X6522607Y34777000D01*
X4600000Y34777000D01*
X4073045Y34672182D01*
X3626314Y34373686D01*
X3526314Y34273686D01*
X3227818Y33826955D01*
X3123000Y33300000D01*
X952000Y33300000D01*
X952000Y45048000D01*
X64605668Y45048000D01*
X74048000Y35605669D01*
X74048000Y35605669D01*
G37*
X74048000Y35605669D02*
X74048000Y7952000D01*
X46000005Y7952000D01*
X46000000Y7952001D01*
X45696130Y7891556D01*
X45635685Y7879533D01*
X45476314Y7773045D01*
X45326834Y7673166D01*
X38605668Y952000D01*
X952000Y952000D01*
X952000Y33300000D01*
X3123000Y33300000D01*
X3123000Y28000000D01*
X3227818Y27473045D01*
X3526314Y27026314D01*
X4526314Y26026314D01*
X4973045Y25727818D01*
X5500000Y25623000D01*
X17429628Y25623000D01*
X22889661Y20162967D01*
X22374996Y20376674D01*
X22070432Y20376940D01*
X20473686Y21973686D01*
X20026955Y22272182D01*
X19500000Y22377000D01*
X17277567Y22377000D01*
X17064624Y22590316D01*
X16374996Y22876674D01*
X15628280Y22877325D01*
X14938154Y22592171D01*
X14409684Y22064624D01*
X14123326Y21374996D01*
X14122675Y20628280D01*
X14407829Y19938154D01*
X14935376Y19409684D01*
X15625004Y19123326D01*
X16371720Y19122675D01*
X17061846Y19407829D01*
X17277393Y19623000D01*
X18929628Y19623000D01*
X20122938Y18429690D01*
X20122675Y18128280D01*
X20407829Y17438154D01*
X20935376Y16909684D01*
X21625004Y16623326D01*
X22371720Y16622675D01*
X23061846Y16907829D01*
X23103359Y16949269D01*
X24526314Y15526314D01*
X24973045Y15227818D01*
X25500000Y15123000D01*
X26675628Y15123000D01*
X23809628Y12257000D01*
X23277567Y12257000D01*
X23064624Y12470316D01*
X22374996Y12756674D01*
X21628280Y12757325D01*
X20938154Y12472171D01*
X20409684Y11944624D01*
X20123326Y11254996D01*
X20122675Y10508280D01*
X20407829Y9818154D01*
X20548736Y9677000D01*
X17491768Y9677000D01*
X17590316Y9775376D01*
X17876674Y10465004D01*
X17877325Y11211720D01*
X17592171Y11901846D01*
X17384480Y12109900D01*
X17590316Y12315376D01*
X17876674Y13005004D01*
X17877325Y13751720D01*
X17592171Y14441846D01*
X17064624Y14970316D01*
X16374996Y15256674D01*
X15628280Y15257325D01*
X14938154Y14972171D01*
X14842816Y14877000D01*
X11991768Y14877000D01*
X12090316Y14975376D01*
X12376674Y15665004D01*
X12377325Y16411720D01*
X12092171Y17101846D01*
X11564624Y17630316D01*
X10874996Y17916674D01*
X10128280Y17917325D01*
X9438154Y17632171D01*
X9222607Y17417000D01*
X7040000Y17417000D01*
X6513045Y17312182D01*
X6066314Y17013686D01*
X4526314Y15473686D01*
X4227818Y15026955D01*
X4123000Y14500000D01*
X4123000Y8777567D01*
X3909684Y8564624D01*
X3623326Y7874996D01*
X3622675Y7128280D01*
X3907829Y6438154D01*
X4435376Y5909684D01*
X5125004Y5623326D01*
X5871720Y5622675D01*
X6561846Y5907829D01*
X6777393Y6123000D01*
X7929628Y6123000D01*
X11526314Y2526314D01*
X11973045Y2227818D01*
X12500000Y2123000D01*
X35000000Y2123000D01*
X35526955Y2227818D01*
X35973686Y2526314D01*
X41663686Y8216314D01*
X41962182Y8663045D01*
X42067000Y9190000D01*
X42067000Y10578232D01*
X42165376Y10479684D01*
X42855004Y10193326D01*
X43601720Y10192675D01*
X44291846Y10477829D01*
X44820316Y11005376D01*
X45106674Y11695004D01*
X45107325Y12441720D01*
X44822171Y13131846D01*
X44294624Y13660316D01*
X43604996Y13946674D01*
X42858280Y13947325D01*
X42168154Y13662171D01*
X41960100Y13454480D01*
X41754624Y13660316D01*
X41064996Y13946674D01*
X40318280Y13947325D01*
X39628154Y13662171D01*
X39099684Y13134624D01*
X38813326Y12444996D01*
X38812675Y11698280D01*
X39097829Y11008154D01*
X39313000Y10792607D01*
X39313000Y9760372D01*
X34429628Y4877000D01*
X26824372Y4877000D01*
X31503686Y9556314D01*
X31802182Y10003045D01*
X31907000Y10530000D01*
X31907000Y10578232D01*
X32005376Y10479684D01*
X32695004Y10193326D01*
X33441720Y10192675D01*
X34131846Y10477829D01*
X34339900Y10685520D01*
X34545376Y10479684D01*
X35235004Y10193326D01*
X35981720Y10192675D01*
X36671846Y10477829D01*
X37200316Y11005376D01*
X37486674Y11695004D01*
X37487325Y12441720D01*
X37202171Y13131846D01*
X36987000Y13347393D01*
X36987000Y15123000D01*
X43429628Y15123000D01*
X48526314Y10026314D01*
X48973045Y9727818D01*
X49500000Y9623000D01*
X70000000Y9623000D01*
X70526955Y9727818D01*
X70973686Y10026314D01*
X72473686Y11526314D01*
X72772182Y11973045D01*
X72877000Y12500000D01*
X72877000Y19200000D01*
X72772182Y19726955D01*
X72473686Y20173686D01*
X70267062Y22380310D01*
X70267325Y22681720D01*
X69982171Y23371846D01*
X69877000Y23477201D01*
X69877000Y27222433D01*
X70090316Y27435376D01*
X70376674Y28125004D01*
X70377325Y28871720D01*
X70092171Y29561846D01*
X69564624Y30090316D01*
X68874996Y30376674D01*
X68128280Y30377325D01*
X67438154Y30092171D01*
X66909684Y29564624D01*
X66623326Y28874996D01*
X66622675Y28128280D01*
X66907829Y27438154D01*
X67123000Y27222607D01*
X67123000Y23697375D01*
X66799684Y23374624D01*
X66513326Y22684996D01*
X66512675Y21938280D01*
X66797829Y21248154D01*
X67325376Y20719684D01*
X68015004Y20433326D01*
X68319568Y20433060D01*
X70123000Y18629628D01*
X70123000Y15411013D01*
X69982171Y15751846D01*
X69454624Y16280316D01*
X68764996Y16566674D01*
X68018280Y16567325D01*
X67328154Y16282171D01*
X67120100Y16074480D01*
X66914624Y16280316D01*
X66224996Y16566674D01*
X65478280Y16567325D01*
X64788154Y16282171D01*
X64580100Y16074480D01*
X64374624Y16280316D01*
X63684996Y16566674D01*
X62938280Y16567325D01*
X62248154Y16282171D01*
X61719684Y15754624D01*
X61433326Y15064996D01*
X61432675Y14318280D01*
X61717829Y13628154D01*
X62245376Y13099684D01*
X62935004Y12813326D01*
X63681720Y12812675D01*
X64371846Y13097829D01*
X64579900Y13305520D01*
X64785376Y13099684D01*
X65475004Y12813326D01*
X66221720Y12812675D01*
X66911846Y13097829D01*
X67119900Y13305520D01*
X67325376Y13099684D01*
X68015004Y12813326D01*
X68761720Y12812675D01*
X69451846Y13097829D01*
X69980316Y13625376D01*
X70123000Y13968998D01*
X70123000Y13070372D01*
X69429628Y12377000D01*
X50070372Y12377000D01*
X45270555Y17176817D01*
X45526955Y17227818D01*
X45973686Y17526314D01*
X49233000Y20785628D01*
X49233000Y15967567D01*
X49019684Y15754624D01*
X48733326Y15064996D01*
X48732675Y14318280D01*
X49017829Y13628154D01*
X49545376Y13099684D01*
X50235004Y12813326D01*
X50981720Y12812675D01*
X51671846Y13097829D01*
X51879900Y13305520D01*
X52085376Y13099684D01*
X52775004Y12813326D01*
X53521720Y12812675D01*
X54211846Y13097829D01*
X54419900Y13305520D01*
X54625376Y13099684D01*
X55315004Y12813326D01*
X56061720Y12812675D01*
X56751846Y13097829D01*
X57280316Y13625376D01*
X57566674Y14315004D01*
X57567325Y15061720D01*
X57282171Y15751846D01*
X56754624Y16280316D01*
X56064996Y16566674D01*
X55318280Y16567325D01*
X54628154Y16282171D01*
X54420100Y16074480D01*
X54214624Y16280316D01*
X53524996Y16566674D01*
X52778280Y16567325D01*
X52088154Y16282171D01*
X51987000Y16181194D01*
X51987000Y20818232D01*
X52085376Y20719684D01*
X52775004Y20433326D01*
X53521720Y20432675D01*
X54211846Y20717829D01*
X54419900Y20925520D01*
X54625376Y20719684D01*
X55315004Y20433326D01*
X56061720Y20432675D01*
X56751846Y20717829D01*
X57280316Y21245376D01*
X57566674Y21935004D01*
X57567325Y22681720D01*
X57427498Y23020126D01*
X61030310Y26622938D01*
X61331720Y26622675D01*
X62021846Y26907829D01*
X62123000Y27008806D01*
X62123000Y23777236D01*
X61719684Y23374624D01*
X61433326Y22684996D01*
X61432675Y21938280D01*
X61717829Y21248154D01*
X62245376Y20719684D01*
X62935004Y20433326D01*
X63681720Y20432675D01*
X64371846Y20717829D01*
X64900316Y21245376D01*
X65186674Y21935004D01*
X65187325Y22681720D01*
X64902171Y23371846D01*
X64877000Y23397061D01*
X64877000Y27222433D01*
X65090316Y27435376D01*
X65376674Y28125004D01*
X65377325Y28871720D01*
X65092171Y29561846D01*
X64564624Y30090316D01*
X63874996Y30376674D01*
X63128280Y30377325D01*
X62438154Y30092171D01*
X62230100Y29884480D01*
X62024624Y30090316D01*
X61334996Y30376674D01*
X60588280Y30377325D01*
X59898154Y30092171D01*
X59369684Y29564624D01*
X59083326Y28874996D01*
X59083060Y28570432D01*
X54716314Y24203686D01*
X54527000Y23920357D01*
X54527000Y25579628D01*
X57033686Y28086314D01*
X57332182Y28533045D01*
X57437000Y29060000D01*
X57437000Y29582433D01*
X57650316Y29795376D01*
X57936674Y30485004D01*
X57937325Y31231720D01*
X57652171Y31921846D01*
X57124624Y32450316D01*
X56434996Y32736674D01*
X55688280Y32737325D01*
X55192087Y32532302D01*
X55396674Y33025004D01*
X55397325Y33771720D01*
X55112171Y34461846D01*
X54797000Y34777568D01*
X54797000Y39222433D01*
X55010316Y39435376D01*
X55296674Y40125004D01*
X55297325Y40871720D01*
X55012171Y41561846D01*
X54484624Y42090316D01*
X53794996Y42376674D01*
X53048280Y42377325D01*
X52358154Y42092171D01*
X52150100Y41884480D01*
X51944624Y42090316D01*
X51254996Y42376674D01*
X50508280Y42377325D01*
X49818154Y42092171D01*
X49610100Y41884480D01*
X49404624Y42090316D01*
X48714996Y42376674D01*
X47968280Y42377325D01*
X47278154Y42092171D01*
X47070100Y41884480D01*
X46864624Y42090316D01*
X46174996Y42376674D01*
X45428280Y42377325D01*
X44738154Y42092171D01*
X44530100Y41884480D01*
X44324624Y42090316D01*
X43634996Y42376674D01*
X42888280Y42377325D01*
X42198154Y42092171D01*
X41990100Y41884480D01*
X41784624Y42090316D01*
X41094996Y42376674D01*
X40348280Y42377325D01*
X39658154Y42092171D01*
X39442607Y41877000D01*
X38000000Y41877000D01*
X37473045Y41772182D01*
X37026314Y41473686D01*
X34766314Y39213686D01*
X34467818Y38766955D01*
X34363000Y38240000D01*
X34363000Y34891768D01*
X34264624Y34990316D01*
X33574996Y35276674D01*
X32828280Y35277325D01*
X32138154Y34992171D01*
X31930100Y34784480D01*
X31724624Y34990316D01*
X31034996Y35276674D01*
X30288280Y35277325D01*
X29598154Y34992171D01*
X29497000Y34891194D01*
X29497000Y35380000D01*
X29392182Y35906955D01*
X29093686Y36353686D01*
X27473686Y37973686D01*
X27026955Y38272182D01*
X26500000Y38377000D01*
X17070372Y38377000D01*
X16837000Y38610372D01*
X16837000Y39222433D01*
X17050316Y39435376D01*
X17336674Y40125004D01*
X17337325Y40871720D01*
X17052171Y41561846D01*
X16524624Y42090316D01*
X15834996Y42376674D01*
X15088280Y42377325D01*
X14398154Y42092171D01*
X14190100Y41884480D01*
X13984624Y42090316D01*
X13294996Y42376674D01*
X12548280Y42377325D01*
X11858154Y42092171D01*
X11650100Y41884480D01*
X11444624Y42090316D01*
X10754996Y42376674D01*
X10008280Y42377325D01*
X9318154Y42092171D01*
X8789684Y41564624D01*
X8503326Y40874996D01*
X8502675Y40128280D01*
X8787829Y39438154D01*
X9003000Y39222607D01*
X9003000Y34851698D01*
X8864624Y34990316D01*
X8174996Y35276674D01*
X7428280Y35277325D01*
X6738154Y34992171D01*
X6522607Y34777000D01*
X4600000Y34777000D01*
X4073045Y34672182D01*
X3626314Y34373686D01*
X3526314Y34273686D01*
X3227818Y33826955D01*
X3123000Y33300000D01*
X952000Y33300000D01*
X952000Y45048000D01*
X64605668Y45048000D01*
X74048000Y35605669D01*
G36*
X48065004Y31523326D02*
X48811720Y31522675D01*
X49307913Y31727698D01*
X49103326Y31234996D01*
X49102675Y30488280D01*
X49387829Y29798154D01*
X49915376Y29269684D01*
X50605004Y28983326D01*
X51351720Y28982675D01*
X52041846Y29267829D01*
X52249900Y29475520D01*
X52455376Y29269684D01*
X53145004Y28983326D01*
X53891720Y28982675D01*
X54136404Y29083776D01*
X52176314Y27123686D01*
X51877818Y26676955D01*
X51773000Y26150000D01*
X51773000Y23801768D01*
X51674624Y23900316D01*
X50984996Y24186674D01*
X50238280Y24187325D01*
X49548154Y23902171D01*
X49332607Y23687000D01*
X48810000Y23687000D01*
X48283045Y23582182D01*
X47836314Y23283686D01*
X44429628Y19877000D01*
X36987000Y19877000D01*
X36987000Y20952433D01*
X37200316Y21165376D01*
X37486674Y21855004D01*
X37487325Y22601720D01*
X37202171Y23291846D01*
X36674624Y23820316D01*
X35984996Y24106674D01*
X35238280Y24107325D01*
X34548154Y23822171D01*
X34340100Y23614480D01*
X34134624Y23820316D01*
X34085863Y23840563D01*
X34043686Y23903686D01*
X32824372Y25123000D01*
X39313000Y25123000D01*
X39313000Y23507567D01*
X39099684Y23294624D01*
X38813326Y22604996D01*
X38812675Y21858280D01*
X39097829Y21168154D01*
X39625376Y20639684D01*
X40315004Y20353326D01*
X41061720Y20352675D01*
X41751846Y20637829D01*
X41959900Y20845520D01*
X42165376Y20639684D01*
X42855004Y20353326D01*
X43601720Y20352675D01*
X44291846Y20637829D01*
X44820316Y21165376D01*
X45106674Y21855004D01*
X45107325Y22601720D01*
X44822171Y23291846D01*
X44294624Y23820316D01*
X43604996Y24106674D01*
X42858280Y24107325D01*
X42168154Y23822171D01*
X42067000Y23721194D01*
X42067000Y25810000D01*
X41962182Y26336955D01*
X41663686Y26783686D01*
X40973686Y27473686D01*
X40526955Y27772182D01*
X40000000Y27877000D01*
X30070372Y27877000D01*
X29497000Y28450372D01*
X29497000Y29582433D01*
X29710316Y29795376D01*
X29996674Y30485004D01*
X29997325Y31231720D01*
X29792302Y31727913D01*
X30285004Y31523326D01*
X31031720Y31522675D01*
X31527913Y31727698D01*
X31323326Y31234996D01*
X31322675Y30488280D01*
X31607829Y29798154D01*
X32135376Y29269684D01*
X32825004Y28983326D01*
X33571720Y28982675D01*
X34261846Y29267829D01*
X34469900Y29475520D01*
X34675376Y29269684D01*
X35365004Y28983326D01*
X36111720Y28982675D01*
X36801846Y29267829D01*
X37009900Y29475520D01*
X37215376Y29269684D01*
X37905004Y28983326D01*
X38651720Y28982675D01*
X39341846Y29267829D01*
X39549900Y29475520D01*
X39755376Y29269684D01*
X40445004Y28983326D01*
X41191720Y28982675D01*
X41881846Y29267829D01*
X42410316Y29795376D01*
X42696674Y30485004D01*
X42697325Y31231720D01*
X42492302Y31727913D01*
X42985004Y31523326D01*
X43731720Y31522675D01*
X44227913Y31727698D01*
X44023326Y31234996D01*
X44022675Y30488280D01*
X44307829Y29798154D01*
X44835376Y29269684D01*
X45525004Y28983326D01*
X46271720Y28982675D01*
X46961846Y29267829D01*
X47490316Y29795376D01*
X47776674Y30485004D01*
X47777325Y31231720D01*
X47572302Y31727913D01*
X48065004Y31523326D01*
X48065004Y31523326D01*
G37*
X48065004Y31523326D02*
X48811720Y31522675D01*
X49307913Y31727698D01*
X49103326Y31234996D01*
X49102675Y30488280D01*
X49387829Y29798154D01*
X49915376Y29269684D01*
X50605004Y28983326D01*
X51351720Y28982675D01*
X52041846Y29267829D01*
X52249900Y29475520D01*
X52455376Y29269684D01*
X53145004Y28983326D01*
X53891720Y28982675D01*
X54136404Y29083776D01*
X52176314Y27123686D01*
X51877818Y26676955D01*
X51773000Y26150000D01*
X51773000Y23801768D01*
X51674624Y23900316D01*
X50984996Y24186674D01*
X50238280Y24187325D01*
X49548154Y23902171D01*
X49332607Y23687000D01*
X48810000Y23687000D01*
X48283045Y23582182D01*
X47836314Y23283686D01*
X44429628Y19877000D01*
X36987000Y19877000D01*
X36987000Y20952433D01*
X37200316Y21165376D01*
X37486674Y21855004D01*
X37487325Y22601720D01*
X37202171Y23291846D01*
X36674624Y23820316D01*
X35984996Y24106674D01*
X35238280Y24107325D01*
X34548154Y23822171D01*
X34340100Y23614480D01*
X34134624Y23820316D01*
X34085863Y23840563D01*
X34043686Y23903686D01*
X32824372Y25123000D01*
X39313000Y25123000D01*
X39313000Y23507567D01*
X39099684Y23294624D01*
X38813326Y22604996D01*
X38812675Y21858280D01*
X39097829Y21168154D01*
X39625376Y20639684D01*
X40315004Y20353326D01*
X41061720Y20352675D01*
X41751846Y20637829D01*
X41959900Y20845520D01*
X42165376Y20639684D01*
X42855004Y20353326D01*
X43601720Y20352675D01*
X44291846Y20637829D01*
X44820316Y21165376D01*
X45106674Y21855004D01*
X45107325Y22601720D01*
X44822171Y23291846D01*
X44294624Y23820316D01*
X43604996Y24106674D01*
X42858280Y24107325D01*
X42168154Y23822171D01*
X42067000Y23721194D01*
X42067000Y25810000D01*
X41962182Y26336955D01*
X41663686Y26783686D01*
X40973686Y27473686D01*
X40526955Y27772182D01*
X40000000Y27877000D01*
X30070372Y27877000D01*
X29497000Y28450372D01*
X29497000Y29582433D01*
X29710316Y29795376D01*
X29996674Y30485004D01*
X29997325Y31231720D01*
X29792302Y31727913D01*
X30285004Y31523326D01*
X31031720Y31522675D01*
X31527913Y31727698D01*
X31323326Y31234996D01*
X31322675Y30488280D01*
X31607829Y29798154D01*
X32135376Y29269684D01*
X32825004Y28983326D01*
X33571720Y28982675D01*
X34261846Y29267829D01*
X34469900Y29475520D01*
X34675376Y29269684D01*
X35365004Y28983326D01*
X36111720Y28982675D01*
X36801846Y29267829D01*
X37009900Y29475520D01*
X37215376Y29269684D01*
X37905004Y28983326D01*
X38651720Y28982675D01*
X39341846Y29267829D01*
X39549900Y29475520D01*
X39755376Y29269684D01*
X40445004Y28983326D01*
X41191720Y28982675D01*
X41881846Y29267829D01*
X42410316Y29795376D01*
X42696674Y30485004D01*
X42697325Y31231720D01*
X42492302Y31727913D01*
X42985004Y31523326D01*
X43731720Y31522675D01*
X44227913Y31727698D01*
X44023326Y31234996D01*
X44022675Y30488280D01*
X44307829Y29798154D01*
X44835376Y29269684D01*
X45525004Y28983326D01*
X46271720Y28982675D01*
X46961846Y29267829D01*
X47490316Y29795376D01*
X47776674Y30485004D01*
X47777325Y31231720D01*
X47572302Y31727913D01*
X48065004Y31523326D01*
G36*
X6209684Y31924624D02*
X5923326Y31234996D01*
X5922675Y30488280D01*
X6207829Y29798154D01*
X6735376Y29269684D01*
X7425004Y28983326D01*
X8171720Y28982675D01*
X8861846Y29267829D01*
X9069900Y29475520D01*
X9275376Y29269684D01*
X9965004Y28983326D01*
X10711720Y28982675D01*
X11401846Y29267829D01*
X11930316Y29795376D01*
X12216674Y30485004D01*
X12217325Y31231720D01*
X12012302Y31727913D01*
X12505004Y31523326D01*
X13251720Y31522675D01*
X13747913Y31727698D01*
X13543326Y31234996D01*
X13542675Y30488280D01*
X13827829Y29798154D01*
X14355376Y29269684D01*
X15045004Y28983326D01*
X15791720Y28982675D01*
X16481846Y29267829D01*
X16689900Y29475520D01*
X16895376Y29269684D01*
X17585004Y28983326D01*
X18331720Y28982675D01*
X19021846Y29267829D01*
X19123000Y29368806D01*
X19123000Y28500000D01*
X19227818Y27973045D01*
X19526314Y27526314D01*
X25796314Y21256314D01*
X26243045Y20957818D01*
X26770000Y20853000D01*
X29252433Y20853000D01*
X29465376Y20639684D01*
X30097991Y20377000D01*
X26570372Y20377000D01*
X18973686Y27973686D01*
X18526955Y28272182D01*
X18000000Y28377000D01*
X6070372Y28377000D01*
X5877000Y28570372D01*
X5877000Y32023000D01*
X6308232Y32023000D01*
X6209684Y31924624D01*
X6209684Y31924624D01*
G37*
X6209684Y31924624D02*
X5923326Y31234996D01*
X5922675Y30488280D01*
X6207829Y29798154D01*
X6735376Y29269684D01*
X7425004Y28983326D01*
X8171720Y28982675D01*
X8861846Y29267829D01*
X9069900Y29475520D01*
X9275376Y29269684D01*
X9965004Y28983326D01*
X10711720Y28982675D01*
X11401846Y29267829D01*
X11930316Y29795376D01*
X12216674Y30485004D01*
X12217325Y31231720D01*
X12012302Y31727913D01*
X12505004Y31523326D01*
X13251720Y31522675D01*
X13747913Y31727698D01*
X13543326Y31234996D01*
X13542675Y30488280D01*
X13827829Y29798154D01*
X14355376Y29269684D01*
X15045004Y28983326D01*
X15791720Y28982675D01*
X16481846Y29267829D01*
X16689900Y29475520D01*
X16895376Y29269684D01*
X17585004Y28983326D01*
X18331720Y28982675D01*
X19021846Y29267829D01*
X19123000Y29368806D01*
X19123000Y28500000D01*
X19227818Y27973045D01*
X19526314Y27526314D01*
X25796314Y21256314D01*
X26243045Y20957818D01*
X26770000Y20853000D01*
X29252433Y20853000D01*
X29465376Y20639684D01*
X30097991Y20377000D01*
X26570372Y20377000D01*
X18973686Y27973686D01*
X18526955Y28272182D01*
X18000000Y28377000D01*
X6070372Y28377000D01*
X5877000Y28570372D01*
X5877000Y32023000D01*
X6308232Y32023000D01*
X6209684Y31924624D01*
G36*
X22665004Y31523326D02*
X23411720Y31522675D01*
X23907913Y31727698D01*
X23703326Y31234996D01*
X23702675Y30488280D01*
X23987829Y29798154D01*
X24203000Y29582607D01*
X24203000Y27920000D01*
X24307818Y27393045D01*
X24606314Y26946314D01*
X27945628Y23607000D01*
X27340372Y23607000D01*
X21877000Y29070372D01*
X21877000Y29582433D01*
X22090316Y29795376D01*
X22376674Y30485004D01*
X22377325Y31231720D01*
X22172302Y31727913D01*
X22665004Y31523326D01*
X22665004Y31523326D01*
G37*
X22665004Y31523326D02*
X23411720Y31522675D01*
X23907913Y31727698D01*
X23703326Y31234996D01*
X23702675Y30488280D01*
X23987829Y29798154D01*
X24203000Y29582607D01*
X24203000Y27920000D01*
X24307818Y27393045D01*
X24606314Y26946314D01*
X27945628Y23607000D01*
X27340372Y23607000D01*
X21877000Y29070372D01*
X21877000Y29582433D01*
X22090316Y29795376D01*
X22376674Y30485004D01*
X22377325Y31231720D01*
X22172302Y31727913D01*
X22665004Y31523326D01*
G36*
X39655376Y38909684D02*
X40345004Y38623326D01*
X41091720Y38622675D01*
X41781846Y38907829D01*
X41883000Y39008806D01*
X41883000Y34990990D01*
X41194996Y35276674D01*
X40448280Y35277325D01*
X39758154Y34992171D01*
X39229684Y34464624D01*
X38943326Y33774996D01*
X38942675Y33028280D01*
X39147698Y32532087D01*
X38654996Y32736674D01*
X37908280Y32737325D01*
X37412087Y32532302D01*
X37616674Y33025004D01*
X37617325Y33771720D01*
X37332171Y34461846D01*
X37117000Y34677393D01*
X37117000Y37669628D01*
X38570372Y39123000D01*
X39442433Y39123000D01*
X39655376Y38909684D01*
X39655376Y38909684D01*
G37*
X39655376Y38909684D02*
X40345004Y38623326D01*
X41091720Y38622675D01*
X41781846Y38907829D01*
X41883000Y39008806D01*
X41883000Y34990990D01*
X41194996Y35276674D01*
X40448280Y35277325D01*
X39758154Y34992171D01*
X39229684Y34464624D01*
X38943326Y33774996D01*
X38942675Y33028280D01*
X39147698Y32532087D01*
X38654996Y32736674D01*
X37908280Y32737325D01*
X37412087Y32532302D01*
X37616674Y33025004D01*
X37617325Y33771720D01*
X37332171Y34461846D01*
X37117000Y34677393D01*
X37117000Y37669628D01*
X38570372Y39123000D01*
X39442433Y39123000D01*
X39655376Y38909684D01*
G36*
X14486314Y37066314D02*
X15526314Y36026314D01*
X15973045Y35727818D01*
X16500000Y35623000D01*
X25929628Y35623000D01*
X26503863Y35048765D01*
X25954996Y35276674D01*
X25208280Y35277325D01*
X24518154Y34992171D01*
X24310100Y34784480D01*
X24104624Y34990316D01*
X23414996Y35276674D01*
X22668280Y35277325D01*
X21978154Y34992171D01*
X21770100Y34784480D01*
X21564624Y34990316D01*
X20874996Y35276674D01*
X20128280Y35277325D01*
X19438154Y34992171D01*
X18909684Y34464624D01*
X18623326Y33774996D01*
X18622675Y33028280D01*
X18827698Y32532087D01*
X18334996Y32736674D01*
X17588280Y32737325D01*
X17092087Y32532302D01*
X17296674Y33025004D01*
X17297325Y33771720D01*
X17012171Y34461846D01*
X16484624Y34990316D01*
X15794996Y35276674D01*
X15048280Y35277325D01*
X14358154Y34992171D01*
X14297000Y34931124D01*
X14297000Y37349643D01*
X14486314Y37066314D01*
X14486314Y37066314D01*
G37*
X14486314Y37066314D02*
X15526314Y36026314D01*
X15973045Y35727818D01*
X16500000Y35623000D01*
X25929628Y35623000D01*
X26503863Y35048765D01*
X25954996Y35276674D01*
X25208280Y35277325D01*
X24518154Y34992171D01*
X24310100Y34784480D01*
X24104624Y34990316D01*
X23414996Y35276674D01*
X22668280Y35277325D01*
X21978154Y34992171D01*
X21770100Y34784480D01*
X21564624Y34990316D01*
X20874996Y35276674D01*
X20128280Y35277325D01*
X19438154Y34992171D01*
X18909684Y34464624D01*
X18623326Y33774996D01*
X18622675Y33028280D01*
X18827698Y32532087D01*
X18334996Y32736674D01*
X17588280Y32737325D01*
X17092087Y32532302D01*
X17296674Y33025004D01*
X17297325Y33771720D01*
X17012171Y34461846D01*
X16484624Y34990316D01*
X15794996Y35276674D01*
X15048280Y35277325D01*
X14358154Y34992171D01*
X14297000Y34931124D01*
X14297000Y37349643D01*
X14486314Y37066314D01*
M02*
