G04 #@! TF.FileFunction,Copper,L1,Top,Signal*
%FSLAX46Y46*%
G04 Gerber Fmt 4.6, Leading zero omitted, Abs format (unit mm)*
G04 Created by KiCad (PCBNEW 4.0.6-e0-6349~52~ubuntu17.04.1) date Sat May 20 14:48:00 2017*
%MOMM*%
%LPD*%
G01*
G04 APERTURE LIST*
%ADD10C,0.100000*%
%ADD11C,2.000000*%
%ADD12C,1.000000*%
%ADD13C,0.554000*%
G04 APERTURE END LIST*
D10*
D11*
X17000000Y13500000D03*
X17000000Y10960000D03*
X17000000Y8420000D03*
X17000000Y5880000D03*
X10500000Y11500000D03*
X10500000Y8960000D03*
X4000000Y4000000D03*
X4000000Y6540000D03*
X4000000Y9080000D03*
X4000000Y11620000D03*
X4000000Y14160000D03*
X4000000Y16700000D03*
D12*
X4000000Y4000000D02*
X9000000Y4000000D01*
X10500000Y5500000D02*
X10500000Y8960000D01*
X9000000Y4000000D02*
X10500000Y5500000D01*
X17000000Y8420000D02*
X18780000Y8420000D01*
X15460000Y4000000D02*
X10500000Y8960000D01*
X18000000Y4000000D02*
X15460000Y4000000D01*
X19200000Y5200000D02*
X18000000Y4000000D01*
X19200000Y8000000D02*
X19200000Y5200000D01*
X18780000Y8420000D02*
X19200000Y8000000D01*
X10500000Y8960000D02*
X10500000Y8500000D01*
X4000000Y11620000D02*
X10380000Y11620000D01*
X10380000Y11620000D02*
X10500000Y11500000D01*
X10120000Y11120000D02*
X10500000Y11500000D01*
X10120000Y11120000D02*
X10500000Y11500000D01*
X4000000Y14160000D02*
X10840000Y14160000D01*
X14500000Y7500000D02*
X16120000Y5880000D01*
X14500000Y10500000D02*
X14500000Y7500000D01*
X10840000Y14160000D02*
X14500000Y10500000D01*
X16120000Y5880000D02*
X17000000Y5880000D01*
X16120000Y5880000D02*
X17000000Y5880000D01*
X4000000Y16700000D02*
X13800000Y16700000D01*
X13800000Y16700000D02*
X17000000Y13500000D01*
D13*
G36*
X19048000Y9743691D02*
X18780000Y9797000D01*
X18277567Y9797000D01*
X18064624Y10010316D01*
X17374996Y10296674D01*
X16628280Y10297325D01*
X15938154Y10012171D01*
X15877000Y9951124D01*
X15877000Y10500000D01*
X15772182Y11026955D01*
X15473686Y11473686D01*
X11813686Y15133686D01*
X11530357Y15323000D01*
X13229628Y15323000D01*
X15122938Y13429690D01*
X15122675Y13128280D01*
X15407829Y12438154D01*
X15935376Y11909684D01*
X16625004Y11623326D01*
X17371720Y11622675D01*
X18061846Y11907829D01*
X18590316Y12435376D01*
X18876674Y13125004D01*
X18877325Y13871720D01*
X18592171Y14561846D01*
X18064624Y15090316D01*
X17374996Y15376674D01*
X17070432Y15376940D01*
X14773686Y17673686D01*
X14326955Y17972182D01*
X13800000Y18077000D01*
X5277567Y18077000D01*
X5064624Y18290316D01*
X4374996Y18576674D01*
X3628280Y18577325D01*
X2938154Y18292171D01*
X2409684Y17764624D01*
X2123326Y17074996D01*
X2122675Y16328280D01*
X2407829Y15638154D01*
X2615520Y15430100D01*
X2409684Y15224624D01*
X2123326Y14534996D01*
X2122675Y13788280D01*
X2407829Y13098154D01*
X2615520Y12890100D01*
X2409684Y12684624D01*
X2123326Y11994996D01*
X2122675Y11248280D01*
X2407829Y10558154D01*
X2935376Y10029684D01*
X3625004Y9743326D01*
X4371720Y9742675D01*
X5061846Y10027829D01*
X5277393Y10243000D01*
X9081711Y10243000D01*
X9100409Y10215016D01*
X8909684Y10024624D01*
X8623326Y9334996D01*
X8622675Y8588280D01*
X8907829Y7898154D01*
X9123000Y7682607D01*
X9123000Y6070372D01*
X8429628Y5377000D01*
X5277567Y5377000D01*
X5064624Y5590316D01*
X4374996Y5876674D01*
X3628280Y5877325D01*
X2938154Y5592171D01*
X2409684Y5064624D01*
X2123326Y4374996D01*
X2122675Y3628280D01*
X2407829Y2938154D01*
X2935376Y2409684D01*
X3625004Y2123326D01*
X4371720Y2122675D01*
X5061846Y2407829D01*
X5277393Y2623000D01*
X9000000Y2623000D01*
X9526955Y2727818D01*
X9973686Y3026314D01*
X11473686Y4526314D01*
X11772182Y4973045D01*
X11877000Y5500000D01*
X11877000Y5635628D01*
X14486314Y3026314D01*
X14933045Y2727818D01*
X15460000Y2623000D01*
X18000000Y2623000D01*
X18526955Y2727818D01*
X18973686Y3026314D01*
X19048000Y3100628D01*
X19048000Y952000D01*
X952000Y952000D01*
X952000Y19048000D01*
X19048000Y19048000D01*
X19048000Y9743691D01*
X19048000Y9743691D01*
G37*
X19048000Y9743691D02*
X18780000Y9797000D01*
X18277567Y9797000D01*
X18064624Y10010316D01*
X17374996Y10296674D01*
X16628280Y10297325D01*
X15938154Y10012171D01*
X15877000Y9951124D01*
X15877000Y10500000D01*
X15772182Y11026955D01*
X15473686Y11473686D01*
X11813686Y15133686D01*
X11530357Y15323000D01*
X13229628Y15323000D01*
X15122938Y13429690D01*
X15122675Y13128280D01*
X15407829Y12438154D01*
X15935376Y11909684D01*
X16625004Y11623326D01*
X17371720Y11622675D01*
X18061846Y11907829D01*
X18590316Y12435376D01*
X18876674Y13125004D01*
X18877325Y13871720D01*
X18592171Y14561846D01*
X18064624Y15090316D01*
X17374996Y15376674D01*
X17070432Y15376940D01*
X14773686Y17673686D01*
X14326955Y17972182D01*
X13800000Y18077000D01*
X5277567Y18077000D01*
X5064624Y18290316D01*
X4374996Y18576674D01*
X3628280Y18577325D01*
X2938154Y18292171D01*
X2409684Y17764624D01*
X2123326Y17074996D01*
X2122675Y16328280D01*
X2407829Y15638154D01*
X2615520Y15430100D01*
X2409684Y15224624D01*
X2123326Y14534996D01*
X2122675Y13788280D01*
X2407829Y13098154D01*
X2615520Y12890100D01*
X2409684Y12684624D01*
X2123326Y11994996D01*
X2122675Y11248280D01*
X2407829Y10558154D01*
X2935376Y10029684D01*
X3625004Y9743326D01*
X4371720Y9742675D01*
X5061846Y10027829D01*
X5277393Y10243000D01*
X9081711Y10243000D01*
X9100409Y10215016D01*
X8909684Y10024624D01*
X8623326Y9334996D01*
X8622675Y8588280D01*
X8907829Y7898154D01*
X9123000Y7682607D01*
X9123000Y6070372D01*
X8429628Y5377000D01*
X5277567Y5377000D01*
X5064624Y5590316D01*
X4374996Y5876674D01*
X3628280Y5877325D01*
X2938154Y5592171D01*
X2409684Y5064624D01*
X2123326Y4374996D01*
X2122675Y3628280D01*
X2407829Y2938154D01*
X2935376Y2409684D01*
X3625004Y2123326D01*
X4371720Y2122675D01*
X5061846Y2407829D01*
X5277393Y2623000D01*
X9000000Y2623000D01*
X9526955Y2727818D01*
X9973686Y3026314D01*
X11473686Y4526314D01*
X11772182Y4973045D01*
X11877000Y5500000D01*
X11877000Y5635628D01*
X14486314Y3026314D01*
X14933045Y2727818D01*
X15460000Y2623000D01*
X18000000Y2623000D01*
X18526955Y2727818D01*
X18973686Y3026314D01*
X19048000Y3100628D01*
X19048000Y952000D01*
X952000Y952000D01*
X952000Y19048000D01*
X19048000Y19048000D01*
X19048000Y9743691D01*
M02*
