G04 #@! TF.FileFunction,Copper,L1,Top,Signal*
%FSLAX46Y46*%
G04 Gerber Fmt 4.6, Leading zero omitted, Abs format (unit mm)*
G04 Created by KiCad (PCBNEW 4.0.6-e0-6349~52~ubuntu17.04.1) date Sat May 20 13:08:07 2017*
%MOMM*%
%LPD*%
G01*
G04 APERTURE LIST*
%ADD10C,0.100000*%
%ADD11C,2.000000*%
%ADD12C,1.000000*%
%ADD13C,0.554000*%
G04 APERTURE END LIST*
D10*
D11*
X17000000Y13500000D03*
X17000000Y10960000D03*
X17000000Y8420000D03*
X17000000Y5880000D03*
X10500000Y11500000D03*
X10500000Y8960000D03*
X4000000Y4000000D03*
X4000000Y6540000D03*
X4000000Y9080000D03*
X4000000Y11620000D03*
X4000000Y14160000D03*
X4000000Y16700000D03*
D12*
X4000000Y4000000D02*
X9000000Y4000000D01*
X10500000Y5500000D02*
X10500000Y8960000D01*
X9000000Y4000000D02*
X10500000Y5500000D01*
X17000000Y8420000D02*
X18780000Y8420000D01*
X15460000Y4000000D02*
X10500000Y8960000D01*
X18000000Y4000000D02*
X15460000Y4000000D01*
X19200000Y5200000D02*
X18000000Y4000000D01*
X19200000Y8000000D02*
X19200000Y5200000D01*
X18780000Y8420000D02*
X19200000Y8000000D01*
X10500000Y8960000D02*
X10500000Y8500000D01*
X4000000Y11620000D02*
X10380000Y11620000D01*
X10380000Y11620000D02*
X10500000Y11500000D01*
X10120000Y11120000D02*
X10500000Y11500000D01*
X10120000Y11120000D02*
X10500000Y11500000D01*
X4000000Y14160000D02*
X10840000Y14160000D01*
X14500000Y7500000D02*
X16120000Y5880000D01*
X14500000Y10500000D02*
X14500000Y7500000D01*
X10840000Y14160000D02*
X14500000Y10500000D01*
X16120000Y5880000D02*
X17000000Y5880000D01*
X16120000Y5880000D02*
X17000000Y5880000D01*
X4000000Y16700000D02*
X13800000Y16700000D01*
X13800000Y16700000D02*
X17000000Y13500000D01*
D13*
G36*
X19248000Y9495659D02*
X19230419Y9507406D01*
X18780000Y9597000D01*
X18194621Y9597000D01*
X17951184Y9840862D01*
X17335039Y10096708D01*
X16667888Y10097290D01*
X16051297Y9842520D01*
X15677000Y9468875D01*
X15677000Y10499995D01*
X15677001Y10500000D01*
X15587406Y10950418D01*
X15332265Y11332265D01*
X15332262Y11332267D01*
X11672265Y14992265D01*
X11290419Y15247406D01*
X10840000Y15337000D01*
X5194621Y15337000D01*
X5101636Y15430147D01*
X5194652Y15523000D01*
X13312470Y15523000D01*
X15323011Y13512460D01*
X15322710Y13167888D01*
X15577480Y12551297D01*
X16048816Y12079138D01*
X16664961Y11823292D01*
X17332112Y11822710D01*
X17948703Y12077480D01*
X18420862Y12548816D01*
X18676708Y13164961D01*
X18677290Y13832112D01*
X18422520Y14448703D01*
X17951184Y14920862D01*
X17335039Y15176708D01*
X16987518Y15177011D01*
X14632265Y17532265D01*
X14250419Y17787406D01*
X13800000Y17877000D01*
X5194621Y17877000D01*
X4951184Y18120862D01*
X4335039Y18376708D01*
X3667888Y18377290D01*
X3051297Y18122520D01*
X2579138Y17651184D01*
X2323292Y17035039D01*
X2322710Y16367888D01*
X2577480Y15751297D01*
X2898364Y15429853D01*
X2579138Y15111184D01*
X2323292Y14495039D01*
X2322710Y13827888D01*
X2577480Y13211297D01*
X2898364Y12889853D01*
X2579138Y12571184D01*
X2323292Y11955039D01*
X2322710Y11287888D01*
X2577480Y10671297D01*
X3048816Y10199138D01*
X3664961Y9943292D01*
X4332112Y9942710D01*
X4948703Y10197480D01*
X5194652Y10443000D01*
X9183990Y10443000D01*
X9287735Y10287735D01*
X9388740Y10220246D01*
X9079138Y9911184D01*
X8823292Y9295039D01*
X8822710Y8627888D01*
X9077480Y8011297D01*
X9323000Y7765348D01*
X9323000Y5987529D01*
X8512470Y5177000D01*
X5194621Y5177000D01*
X4951184Y5420862D01*
X4335039Y5676708D01*
X3667888Y5677290D01*
X3051297Y5422520D01*
X2579138Y4951184D01*
X2323292Y4335039D01*
X2322710Y3667888D01*
X2577480Y3051297D01*
X3048816Y2579138D01*
X3664961Y2323292D01*
X4332112Y2322710D01*
X4948703Y2577480D01*
X5194652Y2823000D01*
X9000000Y2823000D01*
X9450419Y2912594D01*
X9832265Y3167735D01*
X11332262Y4667733D01*
X11332265Y4667735D01*
X11521659Y4951184D01*
X11587406Y5049581D01*
X11677000Y5500000D01*
X11677000Y6118470D01*
X14627733Y3167738D01*
X14627735Y3167735D01*
X14805711Y3048816D01*
X15009581Y2912594D01*
X15460000Y2823000D01*
X18000000Y2823000D01*
X18450419Y2912594D01*
X18832265Y3167735D01*
X19248000Y3583470D01*
X19248000Y752000D01*
X752000Y752000D01*
X752000Y19248000D01*
X19248000Y19248000D01*
X19248000Y9495659D01*
X19248000Y9495659D01*
G37*
X19248000Y9495659D02*
X19230419Y9507406D01*
X18780000Y9597000D01*
X18194621Y9597000D01*
X17951184Y9840862D01*
X17335039Y10096708D01*
X16667888Y10097290D01*
X16051297Y9842520D01*
X15677000Y9468875D01*
X15677000Y10499995D01*
X15677001Y10500000D01*
X15587406Y10950418D01*
X15332265Y11332265D01*
X15332262Y11332267D01*
X11672265Y14992265D01*
X11290419Y15247406D01*
X10840000Y15337000D01*
X5194621Y15337000D01*
X5101636Y15430147D01*
X5194652Y15523000D01*
X13312470Y15523000D01*
X15323011Y13512460D01*
X15322710Y13167888D01*
X15577480Y12551297D01*
X16048816Y12079138D01*
X16664961Y11823292D01*
X17332112Y11822710D01*
X17948703Y12077480D01*
X18420862Y12548816D01*
X18676708Y13164961D01*
X18677290Y13832112D01*
X18422520Y14448703D01*
X17951184Y14920862D01*
X17335039Y15176708D01*
X16987518Y15177011D01*
X14632265Y17532265D01*
X14250419Y17787406D01*
X13800000Y17877000D01*
X5194621Y17877000D01*
X4951184Y18120862D01*
X4335039Y18376708D01*
X3667888Y18377290D01*
X3051297Y18122520D01*
X2579138Y17651184D01*
X2323292Y17035039D01*
X2322710Y16367888D01*
X2577480Y15751297D01*
X2898364Y15429853D01*
X2579138Y15111184D01*
X2323292Y14495039D01*
X2322710Y13827888D01*
X2577480Y13211297D01*
X2898364Y12889853D01*
X2579138Y12571184D01*
X2323292Y11955039D01*
X2322710Y11287888D01*
X2577480Y10671297D01*
X3048816Y10199138D01*
X3664961Y9943292D01*
X4332112Y9942710D01*
X4948703Y10197480D01*
X5194652Y10443000D01*
X9183990Y10443000D01*
X9287735Y10287735D01*
X9388740Y10220246D01*
X9079138Y9911184D01*
X8823292Y9295039D01*
X8822710Y8627888D01*
X9077480Y8011297D01*
X9323000Y7765348D01*
X9323000Y5987529D01*
X8512470Y5177000D01*
X5194621Y5177000D01*
X4951184Y5420862D01*
X4335039Y5676708D01*
X3667888Y5677290D01*
X3051297Y5422520D01*
X2579138Y4951184D01*
X2323292Y4335039D01*
X2322710Y3667888D01*
X2577480Y3051297D01*
X3048816Y2579138D01*
X3664961Y2323292D01*
X4332112Y2322710D01*
X4948703Y2577480D01*
X5194652Y2823000D01*
X9000000Y2823000D01*
X9450419Y2912594D01*
X9832265Y3167735D01*
X11332262Y4667733D01*
X11332265Y4667735D01*
X11521659Y4951184D01*
X11587406Y5049581D01*
X11677000Y5500000D01*
X11677000Y6118470D01*
X14627733Y3167738D01*
X14627735Y3167735D01*
X14805711Y3048816D01*
X15009581Y2912594D01*
X15460000Y2823000D01*
X18000000Y2823000D01*
X18450419Y2912594D01*
X18832265Y3167735D01*
X19248000Y3583470D01*
X19248000Y752000D01*
X752000Y752000D01*
X752000Y19248000D01*
X19248000Y19248000D01*
X19248000Y9495659D01*
M02*
