G04 #@! TF.FileFunction,Copper,L1,Top,Signal*
%FSLAX46Y46*%
G04 Gerber Fmt 4.6, Leading zero omitted, Abs format (unit mm)*
G04 Created by KiCad (PCBNEW 4.0.6-e0-6349~52~ubuntu17.04.1) date Sat May 20 14:53:31 2017*
%MOMM*%
%LPD*%
G01*
G04 APERTURE LIST*
%ADD10C,0.100000*%
%ADD11C,2.200000*%
%ADD12C,1.000000*%
%ADD13C,0.554000*%
G04 APERTURE END LIST*
D10*
D11*
X17000000Y13500000D03*
X17000000Y10960000D03*
X17000000Y8420000D03*
X17000000Y5880000D03*
X10500000Y11500000D03*
X10500000Y8960000D03*
X4000000Y4000000D03*
X4000000Y6540000D03*
X4000000Y9080000D03*
X4000000Y11620000D03*
X4000000Y14160000D03*
X4000000Y16700000D03*
D12*
X4000000Y4000000D02*
X9000000Y4000000D01*
X10500000Y5500000D02*
X10500000Y8960000D01*
X9000000Y4000000D02*
X10500000Y5500000D01*
X17000000Y8420000D02*
X18780000Y8420000D01*
X15460000Y4000000D02*
X10500000Y8960000D01*
X18000000Y4000000D02*
X15460000Y4000000D01*
X19200000Y5200000D02*
X18000000Y4000000D01*
X19200000Y8000000D02*
X19200000Y5200000D01*
X18780000Y8420000D02*
X19200000Y8000000D01*
X10500000Y8960000D02*
X10500000Y8500000D01*
X4000000Y11620000D02*
X10380000Y11620000D01*
X10380000Y11620000D02*
X10500000Y11500000D01*
X10120000Y11120000D02*
X10500000Y11500000D01*
X10120000Y11120000D02*
X10500000Y11500000D01*
X4000000Y14160000D02*
X10840000Y14160000D01*
X14500000Y7500000D02*
X16120000Y5880000D01*
X14500000Y10500000D02*
X14500000Y7500000D01*
X10840000Y14160000D02*
X14500000Y10500000D01*
X16120000Y5880000D02*
X17000000Y5880000D01*
X16120000Y5880000D02*
X17000000Y5880000D01*
X4000000Y16700000D02*
X13800000Y16700000D01*
X13800000Y16700000D02*
X17000000Y13500000D01*
D13*
G36*
X19048000Y9743691D02*
X18780000Y9797000D01*
X18418866Y9797000D01*
X18121343Y10095042D01*
X17394975Y10396656D01*
X16608476Y10397343D01*
X15881582Y10096997D01*
X15877000Y10092423D01*
X15877000Y10500000D01*
X15772182Y11026955D01*
X15473686Y11473686D01*
X11813686Y15133686D01*
X11530357Y15323000D01*
X13229628Y15323000D01*
X15023025Y13529603D01*
X15022657Y13108476D01*
X15323003Y12381582D01*
X15878657Y11824958D01*
X16605025Y11523344D01*
X17391524Y11522657D01*
X18118418Y11823003D01*
X18675042Y12378657D01*
X18976656Y13105025D01*
X18977343Y13891524D01*
X18676997Y14618418D01*
X18121343Y15175042D01*
X17394975Y15476656D01*
X16970345Y15477027D01*
X14773686Y17673686D01*
X14326955Y17972182D01*
X13800000Y18077000D01*
X5418866Y18077000D01*
X5121343Y18375042D01*
X4394975Y18676656D01*
X3608476Y18677343D01*
X2881582Y18376997D01*
X2324958Y17821343D01*
X2023344Y17094975D01*
X2022657Y16308476D01*
X2323003Y15581582D01*
X2474098Y15430223D01*
X2324958Y15281343D01*
X2023344Y14554975D01*
X2022657Y13768476D01*
X2323003Y13041582D01*
X2474098Y12890223D01*
X2324958Y12741343D01*
X2023344Y12014975D01*
X2022657Y11228476D01*
X2323003Y10501582D01*
X2878657Y9944958D01*
X3605025Y9643344D01*
X4391524Y9642657D01*
X5118418Y9943003D01*
X5418939Y10243000D01*
X8961344Y10243000D01*
X8974098Y10230223D01*
X8824958Y10081343D01*
X8523344Y9354975D01*
X8522657Y8568476D01*
X8823003Y7841582D01*
X9123000Y7541061D01*
X9123000Y6070372D01*
X8429628Y5377000D01*
X5418866Y5377000D01*
X5121343Y5675042D01*
X4394975Y5976656D01*
X3608476Y5977343D01*
X2881582Y5676997D01*
X2324958Y5121343D01*
X2023344Y4394975D01*
X2022657Y3608476D01*
X2323003Y2881582D01*
X2878657Y2324958D01*
X3605025Y2023344D01*
X4391524Y2022657D01*
X5118418Y2323003D01*
X5418939Y2623000D01*
X9000000Y2623000D01*
X9526955Y2727818D01*
X9973686Y3026314D01*
X11473686Y4526314D01*
X11772182Y4973045D01*
X11877000Y5500000D01*
X11877000Y5635628D01*
X14486314Y3026314D01*
X14933045Y2727818D01*
X15460000Y2623000D01*
X18000000Y2623000D01*
X18526955Y2727818D01*
X18973686Y3026314D01*
X19048000Y3100628D01*
X19048000Y952000D01*
X952000Y952000D01*
X952000Y19048000D01*
X19048000Y19048000D01*
X19048000Y9743691D01*
X19048000Y9743691D01*
G37*
X19048000Y9743691D02*
X18780000Y9797000D01*
X18418866Y9797000D01*
X18121343Y10095042D01*
X17394975Y10396656D01*
X16608476Y10397343D01*
X15881582Y10096997D01*
X15877000Y10092423D01*
X15877000Y10500000D01*
X15772182Y11026955D01*
X15473686Y11473686D01*
X11813686Y15133686D01*
X11530357Y15323000D01*
X13229628Y15323000D01*
X15023025Y13529603D01*
X15022657Y13108476D01*
X15323003Y12381582D01*
X15878657Y11824958D01*
X16605025Y11523344D01*
X17391524Y11522657D01*
X18118418Y11823003D01*
X18675042Y12378657D01*
X18976656Y13105025D01*
X18977343Y13891524D01*
X18676997Y14618418D01*
X18121343Y15175042D01*
X17394975Y15476656D01*
X16970345Y15477027D01*
X14773686Y17673686D01*
X14326955Y17972182D01*
X13800000Y18077000D01*
X5418866Y18077000D01*
X5121343Y18375042D01*
X4394975Y18676656D01*
X3608476Y18677343D01*
X2881582Y18376997D01*
X2324958Y17821343D01*
X2023344Y17094975D01*
X2022657Y16308476D01*
X2323003Y15581582D01*
X2474098Y15430223D01*
X2324958Y15281343D01*
X2023344Y14554975D01*
X2022657Y13768476D01*
X2323003Y13041582D01*
X2474098Y12890223D01*
X2324958Y12741343D01*
X2023344Y12014975D01*
X2022657Y11228476D01*
X2323003Y10501582D01*
X2878657Y9944958D01*
X3605025Y9643344D01*
X4391524Y9642657D01*
X5118418Y9943003D01*
X5418939Y10243000D01*
X8961344Y10243000D01*
X8974098Y10230223D01*
X8824958Y10081343D01*
X8523344Y9354975D01*
X8522657Y8568476D01*
X8823003Y7841582D01*
X9123000Y7541061D01*
X9123000Y6070372D01*
X8429628Y5377000D01*
X5418866Y5377000D01*
X5121343Y5675042D01*
X4394975Y5976656D01*
X3608476Y5977343D01*
X2881582Y5676997D01*
X2324958Y5121343D01*
X2023344Y4394975D01*
X2022657Y3608476D01*
X2323003Y2881582D01*
X2878657Y2324958D01*
X3605025Y2023344D01*
X4391524Y2022657D01*
X5118418Y2323003D01*
X5418939Y2623000D01*
X9000000Y2623000D01*
X9526955Y2727818D01*
X9973686Y3026314D01*
X11473686Y4526314D01*
X11772182Y4973045D01*
X11877000Y5500000D01*
X11877000Y5635628D01*
X14486314Y3026314D01*
X14933045Y2727818D01*
X15460000Y2623000D01*
X18000000Y2623000D01*
X18526955Y2727818D01*
X18973686Y3026314D01*
X19048000Y3100628D01*
X19048000Y952000D01*
X952000Y952000D01*
X952000Y19048000D01*
X19048000Y19048000D01*
X19048000Y9743691D01*
M02*
