G04 #@! TF.GenerationSoftware,KiCad,Pcbnew,5.0.2-bee76a0~70~ubuntu18.10.1*
G04 #@! TF.CreationDate,2019-01-10T18:28:36+01:00*
G04 #@! TF.ProjectId,gun_ir_receiver,67756e5f-6972-45f7-9265-636569766572,rev?*
G04 #@! TF.SameCoordinates,PX69fa208PY6e37550*
G04 #@! TF.FileFunction,Copper,L1,Top*
G04 #@! TF.FilePolarity,Positive*
%FSLAX46Y46*%
G04 Gerber Fmt 4.6, Leading zero omitted, Abs format (unit mm)*
G04 Created by KiCad (PCBNEW 5.0.2-bee76a0~70~ubuntu18.10.1) date Do 10 Jan 2019 18:28:36 CET*
%MOMM*%
%LPD*%
G01*
G04 APERTURE LIST*
G04 #@! TA.AperFunction,ComponentPad*
%ADD10R,2.000000X2.000000*%
G04 #@! TD*
G04 #@! TA.AperFunction,Conductor*
%ADD11C,1.000000*%
G04 #@! TD*
G04 #@! TA.AperFunction,Conductor*
%ADD12C,0.544000*%
G04 #@! TD*
G04 APERTURE END LIST*
D10*
G04 #@! TO.P,LEDPL9823,1*
G04 #@! TO.N,/LedIn*
X6985000Y4445000D03*
G04 #@! TO.P,LEDPL9823,2*
G04 #@! TO.N,+5V*
X9525000Y4445000D03*
G04 #@! TO.P,LEDPL9823,3*
G04 #@! TO.N,GND*
X12065000Y4445000D03*
G04 #@! TO.P,LEDPL9823,4*
G04 #@! TO.N,/LedOut*
X14605000Y4445000D03*
G04 #@! TD*
G04 #@! TO.P,Connector1,1*
G04 #@! TO.N,/LedIn*
X3175000Y5522704D03*
G04 #@! TO.P,Connector1,2*
G04 #@! TO.N,+5V*
X3175000Y8022704D03*
G04 #@! TO.P,Connector1,3*
G04 #@! TO.N,GND*
X3175000Y10522704D03*
G04 #@! TO.P,Connector1,4*
G04 #@! TO.N,/IrData*
X3175000Y13022704D03*
G04 #@! TO.P,Connector1,5*
G04 #@! TO.N,/LedOut*
X3175000Y15522704D03*
G04 #@! TD*
G04 #@! TO.P,IrReceiver1,1*
G04 #@! TO.N,/IrData*
X15875000Y12700000D03*
G04 #@! TO.P,IrReceiver1,2*
G04 #@! TO.N,GND*
X15875000Y10160000D03*
G04 #@! TO.P,IrReceiver1,3*
G04 #@! TO.N,+5V*
X15875000Y7620000D03*
G04 #@! TD*
D11*
G04 #@! TO.N,/IrData*
X3497704Y12700000D02*
X3175000Y13022704D01*
X15875000Y12700000D02*
X3497704Y12700000D01*
G04 #@! TO.N,+5V*
X15472296Y8022704D02*
X15875000Y7620000D01*
X3175000Y8022704D02*
X15472296Y8022704D01*
X9525000Y4445000D02*
X9525000Y7620000D01*
G04 #@! TO.N,/LedOut*
X18415000Y4985000D02*
X18415000Y15240000D01*
X18132296Y15522704D02*
X3175000Y15522704D01*
X18415000Y15240000D02*
X18132296Y15522704D01*
X17145000Y4985000D02*
X18415000Y4985000D01*
X16605000Y4445000D02*
X17145000Y4985000D01*
X14605000Y4445000D02*
X16605000Y4445000D01*
G04 #@! TO.N,/LedIn*
X5907296Y5522704D02*
X6985000Y4445000D01*
X3175000Y5522704D02*
X5907296Y5522704D01*
G04 #@! TD*
D12*
G04 #@! TO.N,GND*
G36*
X1586697Y17111007D02*
X1406345Y16841091D01*
X1343014Y16522704D01*
X1343014Y14522704D01*
X1392742Y14272704D01*
X1343014Y14022704D01*
X1343014Y12022704D01*
X1406345Y11704317D01*
X1586697Y11434401D01*
X1856613Y11254049D01*
X2175000Y11190718D01*
X4175000Y11190718D01*
X4493387Y11254049D01*
X4687873Y11384000D01*
X14105870Y11384000D01*
X14106345Y11381613D01*
X14286697Y11111697D01*
X14556613Y10931345D01*
X14875000Y10868014D01*
X16875000Y10868014D01*
X17099001Y10912570D01*
X17099000Y9407430D01*
X16875000Y9451986D01*
X14875000Y9451986D01*
X14556613Y9388655D01*
X14481856Y9338704D01*
X4944130Y9338704D01*
X4943655Y9341091D01*
X4763303Y9611007D01*
X4493387Y9791359D01*
X4175000Y9854690D01*
X2175000Y9854690D01*
X1856613Y9791359D01*
X1586697Y9611007D01*
X1406345Y9341091D01*
X1343014Y9022704D01*
X1343014Y7022704D01*
X1392742Y6772704D01*
X1343014Y6522704D01*
X1343014Y4522704D01*
X1406345Y4204317D01*
X1586697Y3934401D01*
X1856613Y3754049D01*
X2175000Y3690718D01*
X4175000Y3690718D01*
X4493387Y3754049D01*
X4763303Y3934401D01*
X4943655Y4204317D01*
X4944130Y4206704D01*
X5153014Y4206704D01*
X5153014Y3445000D01*
X5216345Y3126613D01*
X5396697Y2856697D01*
X5666613Y2676345D01*
X5985000Y2613014D01*
X7985000Y2613014D01*
X8255000Y2666720D01*
X8525000Y2613014D01*
X10525000Y2613014D01*
X10843387Y2676345D01*
X11113303Y2856697D01*
X11293655Y3126613D01*
X11356986Y3445000D01*
X11356986Y5445000D01*
X11293655Y5763387D01*
X11113303Y6033303D01*
X10843387Y6213655D01*
X10841000Y6214130D01*
X10841000Y6706704D01*
X14043014Y6706704D01*
X14043014Y6620000D01*
X14106345Y6301613D01*
X14122800Y6276986D01*
X13605000Y6276986D01*
X13286613Y6213655D01*
X13016697Y6033303D01*
X12836345Y5763387D01*
X12773014Y5445000D01*
X12773014Y3445000D01*
X12836345Y3126613D01*
X13016697Y2856697D01*
X13286613Y2676345D01*
X13605000Y2613014D01*
X15605000Y2613014D01*
X15923387Y2676345D01*
X16193303Y2856697D01*
X16373655Y3126613D01*
X16374130Y3129000D01*
X16475395Y3129000D01*
X16605000Y3103220D01*
X16734605Y3129000D01*
X16734610Y3129000D01*
X17118477Y3205356D01*
X17553782Y3496218D01*
X17627201Y3606097D01*
X17690104Y3669000D01*
X18285390Y3669000D01*
X18415000Y3643219D01*
X18544609Y3669000D01*
X18544610Y3669000D01*
X18928477Y3745356D01*
X19363782Y4036218D01*
X19429000Y4133824D01*
X19429000Y3186000D01*
X18668884Y3186000D01*
X17964673Y2894307D01*
X17425693Y2355327D01*
X17134000Y1651116D01*
X17134000Y891000D01*
X3186000Y891000D01*
X3186000Y1651116D01*
X2894307Y2355327D01*
X2355327Y2894307D01*
X1651116Y3186000D01*
X891000Y3186000D01*
X891000Y17134000D01*
X1621108Y17134000D01*
X1586697Y17111007D01*
X1586697Y17111007D01*
G37*
X1586697Y17111007D02*
X1406345Y16841091D01*
X1343014Y16522704D01*
X1343014Y14522704D01*
X1392742Y14272704D01*
X1343014Y14022704D01*
X1343014Y12022704D01*
X1406345Y11704317D01*
X1586697Y11434401D01*
X1856613Y11254049D01*
X2175000Y11190718D01*
X4175000Y11190718D01*
X4493387Y11254049D01*
X4687873Y11384000D01*
X14105870Y11384000D01*
X14106345Y11381613D01*
X14286697Y11111697D01*
X14556613Y10931345D01*
X14875000Y10868014D01*
X16875000Y10868014D01*
X17099001Y10912570D01*
X17099000Y9407430D01*
X16875000Y9451986D01*
X14875000Y9451986D01*
X14556613Y9388655D01*
X14481856Y9338704D01*
X4944130Y9338704D01*
X4943655Y9341091D01*
X4763303Y9611007D01*
X4493387Y9791359D01*
X4175000Y9854690D01*
X2175000Y9854690D01*
X1856613Y9791359D01*
X1586697Y9611007D01*
X1406345Y9341091D01*
X1343014Y9022704D01*
X1343014Y7022704D01*
X1392742Y6772704D01*
X1343014Y6522704D01*
X1343014Y4522704D01*
X1406345Y4204317D01*
X1586697Y3934401D01*
X1856613Y3754049D01*
X2175000Y3690718D01*
X4175000Y3690718D01*
X4493387Y3754049D01*
X4763303Y3934401D01*
X4943655Y4204317D01*
X4944130Y4206704D01*
X5153014Y4206704D01*
X5153014Y3445000D01*
X5216345Y3126613D01*
X5396697Y2856697D01*
X5666613Y2676345D01*
X5985000Y2613014D01*
X7985000Y2613014D01*
X8255000Y2666720D01*
X8525000Y2613014D01*
X10525000Y2613014D01*
X10843387Y2676345D01*
X11113303Y2856697D01*
X11293655Y3126613D01*
X11356986Y3445000D01*
X11356986Y5445000D01*
X11293655Y5763387D01*
X11113303Y6033303D01*
X10843387Y6213655D01*
X10841000Y6214130D01*
X10841000Y6706704D01*
X14043014Y6706704D01*
X14043014Y6620000D01*
X14106345Y6301613D01*
X14122800Y6276986D01*
X13605000Y6276986D01*
X13286613Y6213655D01*
X13016697Y6033303D01*
X12836345Y5763387D01*
X12773014Y5445000D01*
X12773014Y3445000D01*
X12836345Y3126613D01*
X13016697Y2856697D01*
X13286613Y2676345D01*
X13605000Y2613014D01*
X15605000Y2613014D01*
X15923387Y2676345D01*
X16193303Y2856697D01*
X16373655Y3126613D01*
X16374130Y3129000D01*
X16475395Y3129000D01*
X16605000Y3103220D01*
X16734605Y3129000D01*
X16734610Y3129000D01*
X17118477Y3205356D01*
X17553782Y3496218D01*
X17627201Y3606097D01*
X17690104Y3669000D01*
X18285390Y3669000D01*
X18415000Y3643219D01*
X18544609Y3669000D01*
X18544610Y3669000D01*
X18928477Y3745356D01*
X19363782Y4036218D01*
X19429000Y4133824D01*
X19429000Y3186000D01*
X18668884Y3186000D01*
X17964673Y2894307D01*
X17425693Y2355327D01*
X17134000Y1651116D01*
X17134000Y891000D01*
X3186000Y891000D01*
X3186000Y1651116D01*
X2894307Y2355327D01*
X2355327Y2894307D01*
X1651116Y3186000D01*
X891000Y3186000D01*
X891000Y17134000D01*
X1621108Y17134000D01*
X1586697Y17111007D01*
G04 #@! TD*
M02*
