G04 #@! TF.FileFunction,Copper,L2,Bot,Signal*
%FSLAX46Y46*%
G04 Gerber Fmt 4.6, Leading zero omitted, Abs format (unit mm)*
G04 Created by KiCad (PCBNEW 4.0.7-e2-6376~61~ubuntu18.04.1) date Sat May 19 10:38:45 2018*
%MOMM*%
%LPD*%
G01*
G04 APERTURE LIST*
%ADD10C,0.100000*%
%ADD11C,2.200000*%
%ADD12C,0.800000*%
%ADD13C,1.800000*%
%ADD14C,2.499360*%
%ADD15C,3.251200*%
%ADD16C,1.000000*%
%ADD17C,0.554000*%
G04 APERTURE END LIST*
D10*
D11*
X6985000Y16510000D03*
D12*
X9525000Y16510000D03*
D11*
X12065000Y16510000D03*
X14605000Y16510000D03*
D12*
X9273540Y5024120D03*
D13*
X7244080Y5024120D03*
D12*
X8257540Y6804660D03*
X10287000Y6804660D03*
X11303000Y5024120D03*
D13*
X12316460Y6804660D03*
D12*
X13332460Y5024120D03*
D13*
X14345920Y6804660D03*
D14*
X18915380Y5913120D03*
X2674620Y5913120D03*
D15*
X17134840Y2484120D03*
X4455160Y2484120D03*
D16*
X6985000Y16510000D02*
X6985000Y5283200D01*
X6985000Y5283200D02*
X7244080Y5024120D01*
X12065000Y16510000D02*
X12065000Y7056120D01*
X12065000Y7056120D02*
X12316460Y6804660D01*
X14345920Y6804660D02*
X14345920Y16250920D01*
X14345920Y16250920D02*
X14605000Y16510000D01*
D17*
G36*
X21313000Y277000D02*
X277000Y277000D01*
X277000Y16118476D01*
X5007657Y16118476D01*
X5308003Y15391582D01*
X5608000Y15091061D01*
X5608000Y5717764D01*
X5467390Y5379138D01*
X5466773Y4672204D01*
X5736735Y4018846D01*
X6236176Y3518532D01*
X6889062Y3247430D01*
X7595996Y3246813D01*
X8249354Y3516775D01*
X8749668Y4016216D01*
X9020770Y4669102D01*
X9021387Y5376036D01*
X8751425Y6029394D01*
X8362000Y6419500D01*
X8362000Y15091134D01*
X8660042Y15388657D01*
X8961656Y16115025D01*
X8961659Y16118476D01*
X10087657Y16118476D01*
X10388003Y15391582D01*
X10688000Y15091061D01*
X10688000Y7516655D01*
X10539770Y7159678D01*
X10539153Y6452744D01*
X10809115Y5799386D01*
X11308556Y5299072D01*
X11961442Y5027970D01*
X12668376Y5027353D01*
X13321734Y5297315D01*
X13330768Y5306333D01*
X13338016Y5299072D01*
X13990902Y5027970D01*
X14697836Y5027353D01*
X15351194Y5297315D01*
X15851508Y5796756D01*
X16122610Y6449642D01*
X16123227Y7156576D01*
X15853265Y7809934D01*
X15722920Y7940507D01*
X15722920Y14832797D01*
X15723418Y14833003D01*
X16280042Y15388657D01*
X16581656Y16115025D01*
X16582343Y16901524D01*
X16281997Y17628418D01*
X15726343Y18185042D01*
X14999975Y18486656D01*
X14213476Y18487343D01*
X13486582Y18186997D01*
X13335223Y18035902D01*
X13186343Y18185042D01*
X12459975Y18486656D01*
X11673476Y18487343D01*
X10946582Y18186997D01*
X10389958Y17631343D01*
X10088344Y16904975D01*
X10087657Y16118476D01*
X8961659Y16118476D01*
X8962343Y16901524D01*
X8661997Y17628418D01*
X8106343Y18185042D01*
X7379975Y18486656D01*
X6593476Y18487343D01*
X5866582Y18186997D01*
X5309958Y17631343D01*
X5008344Y16904975D01*
X5007657Y16118476D01*
X277000Y16118476D01*
X277000Y18773000D01*
X21313000Y18773000D01*
X21313000Y277000D01*
X21313000Y277000D01*
G37*
X21313000Y277000D02*
X277000Y277000D01*
X277000Y16118476D01*
X5007657Y16118476D01*
X5308003Y15391582D01*
X5608000Y15091061D01*
X5608000Y5717764D01*
X5467390Y5379138D01*
X5466773Y4672204D01*
X5736735Y4018846D01*
X6236176Y3518532D01*
X6889062Y3247430D01*
X7595996Y3246813D01*
X8249354Y3516775D01*
X8749668Y4016216D01*
X9020770Y4669102D01*
X9021387Y5376036D01*
X8751425Y6029394D01*
X8362000Y6419500D01*
X8362000Y15091134D01*
X8660042Y15388657D01*
X8961656Y16115025D01*
X8961659Y16118476D01*
X10087657Y16118476D01*
X10388003Y15391582D01*
X10688000Y15091061D01*
X10688000Y7516655D01*
X10539770Y7159678D01*
X10539153Y6452744D01*
X10809115Y5799386D01*
X11308556Y5299072D01*
X11961442Y5027970D01*
X12668376Y5027353D01*
X13321734Y5297315D01*
X13330768Y5306333D01*
X13338016Y5299072D01*
X13990902Y5027970D01*
X14697836Y5027353D01*
X15351194Y5297315D01*
X15851508Y5796756D01*
X16122610Y6449642D01*
X16123227Y7156576D01*
X15853265Y7809934D01*
X15722920Y7940507D01*
X15722920Y14832797D01*
X15723418Y14833003D01*
X16280042Y15388657D01*
X16581656Y16115025D01*
X16582343Y16901524D01*
X16281997Y17628418D01*
X15726343Y18185042D01*
X14999975Y18486656D01*
X14213476Y18487343D01*
X13486582Y18186997D01*
X13335223Y18035902D01*
X13186343Y18185042D01*
X12459975Y18486656D01*
X11673476Y18487343D01*
X10946582Y18186997D01*
X10389958Y17631343D01*
X10088344Y16904975D01*
X10087657Y16118476D01*
X8961659Y16118476D01*
X8962343Y16901524D01*
X8661997Y17628418D01*
X8106343Y18185042D01*
X7379975Y18486656D01*
X6593476Y18487343D01*
X5866582Y18186997D01*
X5309958Y17631343D01*
X5008344Y16904975D01*
X5007657Y16118476D01*
X277000Y16118476D01*
X277000Y18773000D01*
X21313000Y18773000D01*
X21313000Y277000D01*
M02*
