G04 #@! TF.FileFunction,Copper,L1,Top,Signal*
%FSLAX46Y46*%
G04 Gerber Fmt 4.6, Leading zero omitted, Abs format (unit mm)*
G04 Created by KiCad (PCBNEW 4.0.6-e0-6349~52~ubuntu17.04.1) date Fri Jul 14 08:54:50 2017*
%MOMM*%
%LPD*%
G01*
G04 APERTURE LIST*
%ADD10C,0.100000*%
%ADD11C,2.000000*%
%ADD12O,2.000000X2.000000*%
%ADD13C,1.000000*%
%ADD14C,0.554000*%
G04 APERTURE END LIST*
D10*
D11*
X45466000Y7112000D03*
X45466000Y9652000D03*
D12*
X20560000Y28648000D03*
X18020000Y28648000D03*
X15480000Y28648000D03*
X12940000Y28648000D03*
X10400000Y28648000D03*
X7860000Y28648000D03*
X5320000Y28648000D03*
X2780000Y28648000D03*
D11*
X28560000Y28148000D03*
X31100000Y28148000D03*
X33640000Y28148000D03*
X36180000Y28148000D03*
X15060000Y18648000D03*
X15060000Y16108000D03*
X15060000Y13568000D03*
X15060000Y11028000D03*
X15060000Y8488000D03*
X15060000Y5948000D03*
X41030000Y16878000D03*
X38490000Y16878000D03*
X35950000Y16878000D03*
X33410000Y16878000D03*
X30870000Y16878000D03*
X28330000Y16878000D03*
X28330000Y6718000D03*
X30870000Y6718000D03*
X33410000Y6718000D03*
X35950000Y6718000D03*
X38490000Y6718000D03*
X41030000Y6718000D03*
X3060000Y22648000D03*
X5600000Y22648000D03*
X8140000Y22648000D03*
X10680000Y22648000D03*
X13220000Y22648000D03*
X15760000Y22648000D03*
X18300000Y22648000D03*
X20840000Y22648000D03*
X23380000Y22648000D03*
X25920000Y22648000D03*
X28460000Y22648000D03*
X31000000Y22648000D03*
X33540000Y22648000D03*
X36080000Y22648000D03*
X38620000Y22648000D03*
X41160000Y22648000D03*
X49022000Y28194000D03*
X49022000Y25654000D03*
X49022000Y12954000D03*
X49022000Y10414000D03*
X49022000Y23114000D03*
X49022000Y20574000D03*
X49022000Y15494000D03*
X49022000Y18034000D03*
X56642000Y10414000D03*
X56642000Y12954000D03*
X56642000Y15494000D03*
X56642000Y18034000D03*
X56642000Y20574000D03*
X56642000Y23114000D03*
X56642000Y25654000D03*
X56642000Y28194000D03*
X45212000Y18796000D03*
X45212000Y21336000D03*
X3560000Y4148000D03*
X3560000Y14308000D03*
X20560000Y16148000D03*
X20560000Y13608000D03*
X20560000Y11068000D03*
X20560000Y8528000D03*
X20560000Y5988000D03*
X9560000Y13688000D03*
X9560000Y16228000D03*
X9560000Y11148000D03*
D13*
X45466000Y9652000D02*
X35836000Y9652000D01*
X35836000Y9652000D02*
X35950000Y9538000D01*
X45466000Y9652000D02*
X48260000Y9652000D01*
X48260000Y9652000D02*
X49022000Y10414000D01*
X20560000Y16148000D02*
X20560000Y18648000D01*
X20560000Y18648000D02*
X15060000Y18648000D01*
X20560000Y16148000D02*
X23060000Y16148000D01*
X23060000Y16148000D02*
X24060000Y15148000D01*
X24060000Y15148000D02*
X24060000Y12648000D01*
X24060000Y12648000D02*
X25060000Y11648000D01*
X25060000Y11648000D02*
X33840000Y11648000D01*
X33840000Y11648000D02*
X35950000Y9538000D01*
X35950000Y9538000D02*
X35950000Y6718000D01*
X3560000Y4148000D02*
X10330000Y4148000D01*
X33804000Y2032000D02*
X38490000Y6718000D01*
X11684000Y2032000D02*
X33804000Y2032000D01*
X10668000Y3048000D02*
X11684000Y2032000D01*
X10668000Y3810000D02*
X10668000Y3048000D01*
X10330000Y4148000D02*
X10668000Y3810000D01*
X3560000Y4148000D02*
X3560000Y10823000D01*
X6425000Y13688000D02*
X9560000Y13688000D01*
X3560000Y10823000D02*
X6425000Y13688000D01*
X15760000Y22648000D02*
X15760000Y26388000D01*
X15760000Y26388000D02*
X18020000Y28648000D01*
X13220000Y22648000D02*
X13220000Y26388000D01*
X13220000Y26388000D02*
X15480000Y28648000D01*
X10680000Y22648000D02*
X10680000Y26388000D01*
X10680000Y26388000D02*
X12940000Y28648000D01*
X8140000Y22648000D02*
X8140000Y26388000D01*
X8140000Y26388000D02*
X10400000Y28648000D01*
X5600000Y22648000D02*
X5600000Y26388000D01*
X5600000Y26388000D02*
X7860000Y28648000D01*
X20840000Y22648000D02*
X20840000Y23928000D01*
X25060000Y28148000D02*
X28560000Y28148000D01*
X20840000Y23928000D02*
X25060000Y28148000D01*
X23380000Y22648000D02*
X23380000Y23968000D01*
X31100000Y25688000D02*
X31100000Y28148000D01*
X30560000Y25148000D02*
X31100000Y25688000D01*
X24560000Y25148000D02*
X30560000Y25148000D01*
X23380000Y23968000D02*
X24560000Y25148000D01*
X49022000Y28194000D02*
X56642000Y28194000D01*
X36180000Y28148000D02*
X42060000Y28148000D01*
X45466000Y28194000D02*
X49022000Y28194000D01*
X42060000Y28148000D02*
X45466000Y28194000D01*
X36080000Y22648000D02*
X36080000Y28048000D01*
X36080000Y28048000D02*
X36180000Y28148000D01*
X35950000Y16878000D02*
X35950000Y22518000D01*
X35950000Y22518000D02*
X36080000Y22648000D01*
X9560000Y11148000D02*
X14940000Y11148000D01*
X14940000Y11148000D02*
X15060000Y11028000D01*
X15060000Y8488000D02*
X12552000Y8488000D01*
X30870000Y5216000D02*
X30870000Y6718000D01*
X29210000Y3556000D02*
X30870000Y5216000D01*
X12700000Y3556000D02*
X29210000Y3556000D01*
X12446000Y3810000D02*
X12700000Y3556000D01*
X12446000Y8382000D02*
X12446000Y3810000D01*
X12552000Y8488000D02*
X12446000Y8382000D01*
X15060000Y5948000D02*
X20520000Y5948000D01*
X20520000Y5948000D02*
X20560000Y5988000D01*
X41030000Y16878000D02*
X41030000Y22518000D01*
X41030000Y22518000D02*
X41160000Y22648000D01*
X38490000Y16878000D02*
X38490000Y22518000D01*
X38490000Y22518000D02*
X38620000Y22648000D01*
X30870000Y16878000D02*
X30870000Y22518000D01*
X30870000Y22518000D02*
X31000000Y22648000D01*
X28330000Y16878000D02*
X28330000Y22518000D01*
X28330000Y22518000D02*
X28460000Y22648000D01*
X20560000Y8528000D02*
X26520000Y8528000D01*
X26520000Y8528000D02*
X28330000Y6718000D01*
X49022000Y12954000D02*
X46228000Y12700000D01*
X25920000Y14788000D02*
X25920000Y22648000D01*
X26560000Y14148000D02*
X25920000Y14788000D01*
X44060000Y14148000D02*
X26560000Y14148000D01*
X46228000Y12700000D02*
X44060000Y14148000D01*
X45212000Y21336000D02*
X47244000Y21336000D01*
X47244000Y21336000D02*
X49022000Y23114000D01*
X45212000Y18796000D02*
X45720000Y18796000D01*
X45720000Y18796000D02*
X49022000Y15494000D01*
X3060000Y22648000D02*
X3060000Y26388000D01*
X3060000Y26388000D02*
X5320000Y28648000D01*
D14*
G36*
X57976000Y29514469D02*
X57706624Y29784316D01*
X57016996Y30070674D01*
X56270280Y30071325D01*
X55580154Y29786171D01*
X55364607Y29571000D01*
X50299567Y29571000D01*
X50086624Y29784316D01*
X49396996Y30070674D01*
X48650280Y30071325D01*
X47960154Y29786171D01*
X47744607Y29571000D01*
X45466000Y29571000D01*
X45456713Y29569153D01*
X45447405Y29570874D01*
X42050734Y29525000D01*
X37457567Y29525000D01*
X37244624Y29738316D01*
X36554996Y30024674D01*
X35808280Y30025325D01*
X35118154Y29740171D01*
X34589684Y29212624D01*
X34303326Y28522996D01*
X34302675Y27776280D01*
X34587829Y27086154D01*
X34703000Y26970781D01*
X34703000Y23925567D01*
X34489684Y23712624D01*
X34203326Y23022996D01*
X34202675Y22276280D01*
X34487829Y21586154D01*
X34573000Y21500834D01*
X34573000Y18155567D01*
X34359684Y17942624D01*
X34073326Y17252996D01*
X34072675Y16506280D01*
X34357829Y15816154D01*
X34648474Y15525000D01*
X32171435Y15525000D01*
X32460316Y15813376D01*
X32746674Y16503004D01*
X32747325Y17249720D01*
X32462171Y17939846D01*
X32247000Y18155393D01*
X32247000Y21240660D01*
X32590316Y21583376D01*
X32876674Y22273004D01*
X32877325Y23019720D01*
X32592171Y23709846D01*
X32064624Y24238316D01*
X31734689Y24375317D01*
X32073686Y24714314D01*
X32372182Y25161045D01*
X32477000Y25688000D01*
X32477000Y26870433D01*
X32690316Y27083376D01*
X32976674Y27773004D01*
X32977325Y28519720D01*
X32692171Y29209846D01*
X32164624Y29738316D01*
X31474996Y30024674D01*
X30728280Y30025325D01*
X30038154Y29740171D01*
X29830100Y29532480D01*
X29624624Y29738316D01*
X28934996Y30024674D01*
X28188280Y30025325D01*
X27498154Y29740171D01*
X27282607Y29525000D01*
X25060000Y29525000D01*
X24533045Y29420182D01*
X24086314Y29121686D01*
X19866314Y24901686D01*
X19567818Y24454955D01*
X19463000Y23928000D01*
X19463000Y23925567D01*
X19249684Y23712624D01*
X18963326Y23022996D01*
X18962675Y22276280D01*
X19247829Y21586154D01*
X19775376Y21057684D01*
X20465004Y20771326D01*
X21211720Y20770675D01*
X21901846Y21055829D01*
X22109900Y21263520D01*
X22315376Y21057684D01*
X23005004Y20771326D01*
X23751720Y20770675D01*
X24441846Y21055829D01*
X24543000Y21156806D01*
X24543000Y16612372D01*
X24033686Y17121686D01*
X23586955Y17420182D01*
X23060000Y17525000D01*
X21937000Y17525000D01*
X21937000Y18648000D01*
X21832182Y19174955D01*
X21533686Y19621686D01*
X21086955Y19920182D01*
X20560000Y20025000D01*
X16337567Y20025000D01*
X16124624Y20238316D01*
X15434996Y20524674D01*
X14688280Y20525325D01*
X13998154Y20240171D01*
X13469684Y19712624D01*
X13183326Y19022996D01*
X13182675Y18276280D01*
X13467829Y17586154D01*
X13995376Y17057684D01*
X14685004Y16771326D01*
X15431720Y16770675D01*
X16121846Y17055829D01*
X16337393Y17271000D01*
X19028162Y17271000D01*
X18969684Y17212624D01*
X18683326Y16522996D01*
X18682675Y15776280D01*
X18967829Y15086154D01*
X19495376Y14557684D01*
X20185004Y14271326D01*
X20931720Y14270675D01*
X21621846Y14555829D01*
X21837393Y14771000D01*
X22489628Y14771000D01*
X22683000Y14577628D01*
X22683000Y12648000D01*
X22787818Y12121045D01*
X23086314Y11674314D01*
X24086314Y10674314D01*
X24533045Y10375818D01*
X25060000Y10271000D01*
X33269628Y10271000D01*
X34573000Y8967628D01*
X34573000Y7995567D01*
X34359684Y7782624D01*
X34073326Y7092996D01*
X34072675Y6346280D01*
X34357829Y5656154D01*
X34885376Y5127684D01*
X34932673Y5108045D01*
X33233628Y3409000D01*
X31010372Y3409000D01*
X31843686Y4242314D01*
X32142182Y4689045D01*
X32247000Y5216000D01*
X32247000Y5440433D01*
X32460316Y5653376D01*
X32746674Y6343004D01*
X32747325Y7089720D01*
X32462171Y7779846D01*
X31934624Y8308316D01*
X31244996Y8594674D01*
X30498280Y8595325D01*
X29808154Y8310171D01*
X29600100Y8102480D01*
X29394624Y8308316D01*
X28704996Y8594674D01*
X28400432Y8594940D01*
X27493686Y9501686D01*
X27046955Y9800182D01*
X26520000Y9905000D01*
X21837567Y9905000D01*
X21624624Y10118316D01*
X20934996Y10404674D01*
X20188280Y10405325D01*
X19498154Y10120171D01*
X18969684Y9592624D01*
X18683326Y8902996D01*
X18682675Y8156280D01*
X18967829Y7466154D01*
X19108736Y7325000D01*
X16551768Y7325000D01*
X16650316Y7423376D01*
X16936674Y8113004D01*
X16937325Y8859720D01*
X16652171Y9549846D01*
X16444480Y9757900D01*
X16650316Y9963376D01*
X16936674Y10653004D01*
X16937325Y11399720D01*
X16652171Y12089846D01*
X16124624Y12618316D01*
X15434996Y12904674D01*
X14688280Y12905325D01*
X13998154Y12620171D01*
X13902816Y12525000D01*
X11051768Y12525000D01*
X11150316Y12623376D01*
X11436674Y13313004D01*
X11437325Y14059720D01*
X11152171Y14749846D01*
X10624624Y15278316D01*
X9934996Y15564674D01*
X9188280Y15565325D01*
X8498154Y15280171D01*
X8282607Y15065000D01*
X6425000Y15065000D01*
X5898045Y14960182D01*
X5451314Y14661686D01*
X2586314Y11796686D01*
X2287818Y11349955D01*
X2183000Y10823000D01*
X2183000Y5425567D01*
X1969684Y5212624D01*
X1683326Y4522996D01*
X1682675Y3776280D01*
X1967829Y3086154D01*
X2495376Y2557684D01*
X3185004Y2271326D01*
X3931720Y2270675D01*
X4621846Y2555829D01*
X4837393Y2771000D01*
X9346099Y2771000D01*
X9395818Y2521045D01*
X9694314Y2074314D01*
X10710314Y1058314D01*
X10869424Y952000D01*
X444000Y952000D01*
X444000Y22276280D01*
X1182675Y22276280D01*
X1467829Y21586154D01*
X1995376Y21057684D01*
X2685004Y20771326D01*
X3431720Y20770675D01*
X4121846Y21055829D01*
X4329900Y21263520D01*
X4535376Y21057684D01*
X5225004Y20771326D01*
X5971720Y20770675D01*
X6661846Y21055829D01*
X6869900Y21263520D01*
X7075376Y21057684D01*
X7765004Y20771326D01*
X8511720Y20770675D01*
X9201846Y21055829D01*
X9409900Y21263520D01*
X9615376Y21057684D01*
X10305004Y20771326D01*
X11051720Y20770675D01*
X11741846Y21055829D01*
X11949900Y21263520D01*
X12155376Y21057684D01*
X12845004Y20771326D01*
X13591720Y20770675D01*
X14281846Y21055829D01*
X14489900Y21263520D01*
X14695376Y21057684D01*
X15385004Y20771326D01*
X16131720Y20770675D01*
X16821846Y21055829D01*
X17350316Y21583376D01*
X17636674Y22273004D01*
X17637325Y23019720D01*
X17352171Y23709846D01*
X17137000Y23925393D01*
X17137000Y25817628D01*
X18061942Y26742570D01*
X18738297Y26877105D01*
X19347239Y27283988D01*
X19754122Y27892930D01*
X19897000Y28611227D01*
X19897000Y28684773D01*
X19754122Y29403070D01*
X19347239Y30012012D01*
X18738297Y30418895D01*
X18020000Y30561773D01*
X17301703Y30418895D01*
X16750000Y30050258D01*
X16198297Y30418895D01*
X15480000Y30561773D01*
X14761703Y30418895D01*
X14210000Y30050258D01*
X13658297Y30418895D01*
X12940000Y30561773D01*
X12221703Y30418895D01*
X11670000Y30050258D01*
X11118297Y30418895D01*
X10400000Y30561773D01*
X9681703Y30418895D01*
X9130000Y30050258D01*
X8578297Y30418895D01*
X7860000Y30561773D01*
X7141703Y30418895D01*
X6590000Y30050258D01*
X6038297Y30418895D01*
X5320000Y30561773D01*
X4601703Y30418895D01*
X3992761Y30012012D01*
X3585878Y29403070D01*
X3451343Y28726715D01*
X2086314Y27361686D01*
X1787818Y26914955D01*
X1683000Y26388000D01*
X1683000Y23925567D01*
X1469684Y23712624D01*
X1183326Y23022996D01*
X1182675Y22276280D01*
X444000Y22276280D01*
X444000Y31727000D01*
X57976000Y31727000D01*
X57976000Y29514469D01*
X57976000Y29514469D01*
G37*
X57976000Y29514469D02*
X57706624Y29784316D01*
X57016996Y30070674D01*
X56270280Y30071325D01*
X55580154Y29786171D01*
X55364607Y29571000D01*
X50299567Y29571000D01*
X50086624Y29784316D01*
X49396996Y30070674D01*
X48650280Y30071325D01*
X47960154Y29786171D01*
X47744607Y29571000D01*
X45466000Y29571000D01*
X45456713Y29569153D01*
X45447405Y29570874D01*
X42050734Y29525000D01*
X37457567Y29525000D01*
X37244624Y29738316D01*
X36554996Y30024674D01*
X35808280Y30025325D01*
X35118154Y29740171D01*
X34589684Y29212624D01*
X34303326Y28522996D01*
X34302675Y27776280D01*
X34587829Y27086154D01*
X34703000Y26970781D01*
X34703000Y23925567D01*
X34489684Y23712624D01*
X34203326Y23022996D01*
X34202675Y22276280D01*
X34487829Y21586154D01*
X34573000Y21500834D01*
X34573000Y18155567D01*
X34359684Y17942624D01*
X34073326Y17252996D01*
X34072675Y16506280D01*
X34357829Y15816154D01*
X34648474Y15525000D01*
X32171435Y15525000D01*
X32460316Y15813376D01*
X32746674Y16503004D01*
X32747325Y17249720D01*
X32462171Y17939846D01*
X32247000Y18155393D01*
X32247000Y21240660D01*
X32590316Y21583376D01*
X32876674Y22273004D01*
X32877325Y23019720D01*
X32592171Y23709846D01*
X32064624Y24238316D01*
X31734689Y24375317D01*
X32073686Y24714314D01*
X32372182Y25161045D01*
X32477000Y25688000D01*
X32477000Y26870433D01*
X32690316Y27083376D01*
X32976674Y27773004D01*
X32977325Y28519720D01*
X32692171Y29209846D01*
X32164624Y29738316D01*
X31474996Y30024674D01*
X30728280Y30025325D01*
X30038154Y29740171D01*
X29830100Y29532480D01*
X29624624Y29738316D01*
X28934996Y30024674D01*
X28188280Y30025325D01*
X27498154Y29740171D01*
X27282607Y29525000D01*
X25060000Y29525000D01*
X24533045Y29420182D01*
X24086314Y29121686D01*
X19866314Y24901686D01*
X19567818Y24454955D01*
X19463000Y23928000D01*
X19463000Y23925567D01*
X19249684Y23712624D01*
X18963326Y23022996D01*
X18962675Y22276280D01*
X19247829Y21586154D01*
X19775376Y21057684D01*
X20465004Y20771326D01*
X21211720Y20770675D01*
X21901846Y21055829D01*
X22109900Y21263520D01*
X22315376Y21057684D01*
X23005004Y20771326D01*
X23751720Y20770675D01*
X24441846Y21055829D01*
X24543000Y21156806D01*
X24543000Y16612372D01*
X24033686Y17121686D01*
X23586955Y17420182D01*
X23060000Y17525000D01*
X21937000Y17525000D01*
X21937000Y18648000D01*
X21832182Y19174955D01*
X21533686Y19621686D01*
X21086955Y19920182D01*
X20560000Y20025000D01*
X16337567Y20025000D01*
X16124624Y20238316D01*
X15434996Y20524674D01*
X14688280Y20525325D01*
X13998154Y20240171D01*
X13469684Y19712624D01*
X13183326Y19022996D01*
X13182675Y18276280D01*
X13467829Y17586154D01*
X13995376Y17057684D01*
X14685004Y16771326D01*
X15431720Y16770675D01*
X16121846Y17055829D01*
X16337393Y17271000D01*
X19028162Y17271000D01*
X18969684Y17212624D01*
X18683326Y16522996D01*
X18682675Y15776280D01*
X18967829Y15086154D01*
X19495376Y14557684D01*
X20185004Y14271326D01*
X20931720Y14270675D01*
X21621846Y14555829D01*
X21837393Y14771000D01*
X22489628Y14771000D01*
X22683000Y14577628D01*
X22683000Y12648000D01*
X22787818Y12121045D01*
X23086314Y11674314D01*
X24086314Y10674314D01*
X24533045Y10375818D01*
X25060000Y10271000D01*
X33269628Y10271000D01*
X34573000Y8967628D01*
X34573000Y7995567D01*
X34359684Y7782624D01*
X34073326Y7092996D01*
X34072675Y6346280D01*
X34357829Y5656154D01*
X34885376Y5127684D01*
X34932673Y5108045D01*
X33233628Y3409000D01*
X31010372Y3409000D01*
X31843686Y4242314D01*
X32142182Y4689045D01*
X32247000Y5216000D01*
X32247000Y5440433D01*
X32460316Y5653376D01*
X32746674Y6343004D01*
X32747325Y7089720D01*
X32462171Y7779846D01*
X31934624Y8308316D01*
X31244996Y8594674D01*
X30498280Y8595325D01*
X29808154Y8310171D01*
X29600100Y8102480D01*
X29394624Y8308316D01*
X28704996Y8594674D01*
X28400432Y8594940D01*
X27493686Y9501686D01*
X27046955Y9800182D01*
X26520000Y9905000D01*
X21837567Y9905000D01*
X21624624Y10118316D01*
X20934996Y10404674D01*
X20188280Y10405325D01*
X19498154Y10120171D01*
X18969684Y9592624D01*
X18683326Y8902996D01*
X18682675Y8156280D01*
X18967829Y7466154D01*
X19108736Y7325000D01*
X16551768Y7325000D01*
X16650316Y7423376D01*
X16936674Y8113004D01*
X16937325Y8859720D01*
X16652171Y9549846D01*
X16444480Y9757900D01*
X16650316Y9963376D01*
X16936674Y10653004D01*
X16937325Y11399720D01*
X16652171Y12089846D01*
X16124624Y12618316D01*
X15434996Y12904674D01*
X14688280Y12905325D01*
X13998154Y12620171D01*
X13902816Y12525000D01*
X11051768Y12525000D01*
X11150316Y12623376D01*
X11436674Y13313004D01*
X11437325Y14059720D01*
X11152171Y14749846D01*
X10624624Y15278316D01*
X9934996Y15564674D01*
X9188280Y15565325D01*
X8498154Y15280171D01*
X8282607Y15065000D01*
X6425000Y15065000D01*
X5898045Y14960182D01*
X5451314Y14661686D01*
X2586314Y11796686D01*
X2287818Y11349955D01*
X2183000Y10823000D01*
X2183000Y5425567D01*
X1969684Y5212624D01*
X1683326Y4522996D01*
X1682675Y3776280D01*
X1967829Y3086154D01*
X2495376Y2557684D01*
X3185004Y2271326D01*
X3931720Y2270675D01*
X4621846Y2555829D01*
X4837393Y2771000D01*
X9346099Y2771000D01*
X9395818Y2521045D01*
X9694314Y2074314D01*
X10710314Y1058314D01*
X10869424Y952000D01*
X444000Y952000D01*
X444000Y22276280D01*
X1182675Y22276280D01*
X1467829Y21586154D01*
X1995376Y21057684D01*
X2685004Y20771326D01*
X3431720Y20770675D01*
X4121846Y21055829D01*
X4329900Y21263520D01*
X4535376Y21057684D01*
X5225004Y20771326D01*
X5971720Y20770675D01*
X6661846Y21055829D01*
X6869900Y21263520D01*
X7075376Y21057684D01*
X7765004Y20771326D01*
X8511720Y20770675D01*
X9201846Y21055829D01*
X9409900Y21263520D01*
X9615376Y21057684D01*
X10305004Y20771326D01*
X11051720Y20770675D01*
X11741846Y21055829D01*
X11949900Y21263520D01*
X12155376Y21057684D01*
X12845004Y20771326D01*
X13591720Y20770675D01*
X14281846Y21055829D01*
X14489900Y21263520D01*
X14695376Y21057684D01*
X15385004Y20771326D01*
X16131720Y20770675D01*
X16821846Y21055829D01*
X17350316Y21583376D01*
X17636674Y22273004D01*
X17637325Y23019720D01*
X17352171Y23709846D01*
X17137000Y23925393D01*
X17137000Y25817628D01*
X18061942Y26742570D01*
X18738297Y26877105D01*
X19347239Y27283988D01*
X19754122Y27892930D01*
X19897000Y28611227D01*
X19897000Y28684773D01*
X19754122Y29403070D01*
X19347239Y30012012D01*
X18738297Y30418895D01*
X18020000Y30561773D01*
X17301703Y30418895D01*
X16750000Y30050258D01*
X16198297Y30418895D01*
X15480000Y30561773D01*
X14761703Y30418895D01*
X14210000Y30050258D01*
X13658297Y30418895D01*
X12940000Y30561773D01*
X12221703Y30418895D01*
X11670000Y30050258D01*
X11118297Y30418895D01*
X10400000Y30561773D01*
X9681703Y30418895D01*
X9130000Y30050258D01*
X8578297Y30418895D01*
X7860000Y30561773D01*
X7141703Y30418895D01*
X6590000Y30050258D01*
X6038297Y30418895D01*
X5320000Y30561773D01*
X4601703Y30418895D01*
X3992761Y30012012D01*
X3585878Y29403070D01*
X3451343Y28726715D01*
X2086314Y27361686D01*
X1787818Y26914955D01*
X1683000Y26388000D01*
X1683000Y23925567D01*
X1469684Y23712624D01*
X1183326Y23022996D01*
X1182675Y22276280D01*
X444000Y22276280D01*
X444000Y31727000D01*
X57976000Y31727000D01*
X57976000Y29514469D01*
G36*
X47957376Y26603684D02*
X48647004Y26317326D01*
X49393720Y26316675D01*
X50083846Y26601829D01*
X50299393Y26817000D01*
X55150232Y26817000D01*
X55051684Y26718624D01*
X54765326Y26028996D01*
X54764675Y25282280D01*
X55049829Y24592154D01*
X55257520Y24384100D01*
X55051684Y24178624D01*
X54765326Y23488996D01*
X54764675Y22742280D01*
X55049829Y22052154D01*
X55577376Y21523684D01*
X56267004Y21237326D01*
X57013720Y21236675D01*
X57703846Y21521829D01*
X57976000Y21793508D01*
X57976000Y16814469D01*
X57706624Y17084316D01*
X57016996Y17370674D01*
X56270280Y17371325D01*
X55580154Y17086171D01*
X55051684Y16558624D01*
X54765326Y15868996D01*
X54764675Y15122280D01*
X55049829Y14432154D01*
X55257520Y14224100D01*
X55051684Y14018624D01*
X54765326Y13328996D01*
X54764675Y12582280D01*
X55049829Y11892154D01*
X55257520Y11684100D01*
X55051684Y11478624D01*
X54765326Y10788996D01*
X54764675Y10042280D01*
X55049829Y9352154D01*
X55577376Y8823684D01*
X56267004Y8537326D01*
X57013720Y8536675D01*
X57703846Y8821829D01*
X57976000Y9093508D01*
X57976000Y952000D01*
X34618576Y952000D01*
X34777686Y1058314D01*
X38560310Y4840938D01*
X38861720Y4840675D01*
X39551846Y5125829D01*
X39759900Y5333520D01*
X39965376Y5127684D01*
X40655004Y4841326D01*
X41401720Y4840675D01*
X42091846Y5125829D01*
X42620316Y5653376D01*
X42906674Y6343004D01*
X42907325Y7089720D01*
X42622171Y7779846D01*
X42127882Y8275000D01*
X44188433Y8275000D01*
X44401376Y8061684D01*
X45091004Y7775326D01*
X45837720Y7774675D01*
X46527846Y8059829D01*
X46743393Y8275000D01*
X48260000Y8275000D01*
X48786955Y8379818D01*
X49022193Y8536999D01*
X49393720Y8536675D01*
X50083846Y8821829D01*
X50612316Y9349376D01*
X50898674Y10039004D01*
X50899325Y10785720D01*
X50614171Y11475846D01*
X50406480Y11683900D01*
X50612316Y11889376D01*
X50898674Y12579004D01*
X50899325Y13325720D01*
X50614171Y14015846D01*
X50406480Y14223900D01*
X50612316Y14429376D01*
X50898674Y15119004D01*
X50899325Y15865720D01*
X50614171Y16555846D01*
X50086624Y17084316D01*
X49396996Y17370674D01*
X49092432Y17370940D01*
X46944043Y19519329D01*
X46804171Y19857846D01*
X46703194Y19959000D01*
X47244000Y19959000D01*
X47770955Y20063818D01*
X48217686Y20362314D01*
X49092310Y21236938D01*
X49393720Y21236675D01*
X50083846Y21521829D01*
X50612316Y22049376D01*
X50898674Y22739004D01*
X50899325Y23485720D01*
X50614171Y24175846D01*
X50086624Y24704316D01*
X49396996Y24990674D01*
X48650280Y24991325D01*
X47960154Y24706171D01*
X47431684Y24178624D01*
X47145326Y23488996D01*
X47145060Y23184432D01*
X46673628Y22713000D01*
X46489567Y22713000D01*
X46276624Y22926316D01*
X45586996Y23212674D01*
X44840280Y23213325D01*
X44150154Y22928171D01*
X43621684Y22400624D01*
X43335326Y21710996D01*
X43334675Y20964280D01*
X43619829Y20274154D01*
X43827520Y20066100D01*
X43621684Y19860624D01*
X43335326Y19170996D01*
X43334675Y18424280D01*
X43619829Y17734154D01*
X44147376Y17205684D01*
X44837004Y16919326D01*
X45583720Y16918675D01*
X45630588Y16938040D01*
X47144938Y15423690D01*
X47144675Y15122280D01*
X47429829Y14432154D01*
X47637520Y14224100D01*
X47622880Y14209486D01*
X46588053Y14115410D01*
X44824797Y15293083D01*
X44699609Y15344909D01*
X44586955Y15420182D01*
X44453810Y15446666D01*
X44328376Y15498594D01*
X44192885Y15498568D01*
X44060000Y15525000D01*
X42331435Y15525000D01*
X42620316Y15813376D01*
X42906674Y16503004D01*
X42907325Y17249720D01*
X42622171Y17939846D01*
X42407000Y18155393D01*
X42407000Y21240660D01*
X42750316Y21583376D01*
X43036674Y22273004D01*
X43037325Y23019720D01*
X42752171Y23709846D01*
X42224624Y24238316D01*
X41534996Y24524674D01*
X40788280Y24525325D01*
X40098154Y24240171D01*
X39890100Y24032480D01*
X39684624Y24238316D01*
X38994996Y24524674D01*
X38248280Y24525325D01*
X37558154Y24240171D01*
X37457000Y24139194D01*
X37457000Y26770607D01*
X37457393Y26771000D01*
X42060000Y26771000D01*
X42069287Y26772847D01*
X42078595Y26771126D01*
X45475267Y26817000D01*
X47744433Y26817000D01*
X47957376Y26603684D01*
X47957376Y26603684D01*
G37*
X47957376Y26603684D02*
X48647004Y26317326D01*
X49393720Y26316675D01*
X50083846Y26601829D01*
X50299393Y26817000D01*
X55150232Y26817000D01*
X55051684Y26718624D01*
X54765326Y26028996D01*
X54764675Y25282280D01*
X55049829Y24592154D01*
X55257520Y24384100D01*
X55051684Y24178624D01*
X54765326Y23488996D01*
X54764675Y22742280D01*
X55049829Y22052154D01*
X55577376Y21523684D01*
X56267004Y21237326D01*
X57013720Y21236675D01*
X57703846Y21521829D01*
X57976000Y21793508D01*
X57976000Y16814469D01*
X57706624Y17084316D01*
X57016996Y17370674D01*
X56270280Y17371325D01*
X55580154Y17086171D01*
X55051684Y16558624D01*
X54765326Y15868996D01*
X54764675Y15122280D01*
X55049829Y14432154D01*
X55257520Y14224100D01*
X55051684Y14018624D01*
X54765326Y13328996D01*
X54764675Y12582280D01*
X55049829Y11892154D01*
X55257520Y11684100D01*
X55051684Y11478624D01*
X54765326Y10788996D01*
X54764675Y10042280D01*
X55049829Y9352154D01*
X55577376Y8823684D01*
X56267004Y8537326D01*
X57013720Y8536675D01*
X57703846Y8821829D01*
X57976000Y9093508D01*
X57976000Y952000D01*
X34618576Y952000D01*
X34777686Y1058314D01*
X38560310Y4840938D01*
X38861720Y4840675D01*
X39551846Y5125829D01*
X39759900Y5333520D01*
X39965376Y5127684D01*
X40655004Y4841326D01*
X41401720Y4840675D01*
X42091846Y5125829D01*
X42620316Y5653376D01*
X42906674Y6343004D01*
X42907325Y7089720D01*
X42622171Y7779846D01*
X42127882Y8275000D01*
X44188433Y8275000D01*
X44401376Y8061684D01*
X45091004Y7775326D01*
X45837720Y7774675D01*
X46527846Y8059829D01*
X46743393Y8275000D01*
X48260000Y8275000D01*
X48786955Y8379818D01*
X49022193Y8536999D01*
X49393720Y8536675D01*
X50083846Y8821829D01*
X50612316Y9349376D01*
X50898674Y10039004D01*
X50899325Y10785720D01*
X50614171Y11475846D01*
X50406480Y11683900D01*
X50612316Y11889376D01*
X50898674Y12579004D01*
X50899325Y13325720D01*
X50614171Y14015846D01*
X50406480Y14223900D01*
X50612316Y14429376D01*
X50898674Y15119004D01*
X50899325Y15865720D01*
X50614171Y16555846D01*
X50086624Y17084316D01*
X49396996Y17370674D01*
X49092432Y17370940D01*
X46944043Y19519329D01*
X46804171Y19857846D01*
X46703194Y19959000D01*
X47244000Y19959000D01*
X47770955Y20063818D01*
X48217686Y20362314D01*
X49092310Y21236938D01*
X49393720Y21236675D01*
X50083846Y21521829D01*
X50612316Y22049376D01*
X50898674Y22739004D01*
X50899325Y23485720D01*
X50614171Y24175846D01*
X50086624Y24704316D01*
X49396996Y24990674D01*
X48650280Y24991325D01*
X47960154Y24706171D01*
X47431684Y24178624D01*
X47145326Y23488996D01*
X47145060Y23184432D01*
X46673628Y22713000D01*
X46489567Y22713000D01*
X46276624Y22926316D01*
X45586996Y23212674D01*
X44840280Y23213325D01*
X44150154Y22928171D01*
X43621684Y22400624D01*
X43335326Y21710996D01*
X43334675Y20964280D01*
X43619829Y20274154D01*
X43827520Y20066100D01*
X43621684Y19860624D01*
X43335326Y19170996D01*
X43334675Y18424280D01*
X43619829Y17734154D01*
X44147376Y17205684D01*
X44837004Y16919326D01*
X45583720Y16918675D01*
X45630588Y16938040D01*
X47144938Y15423690D01*
X47144675Y15122280D01*
X47429829Y14432154D01*
X47637520Y14224100D01*
X47622880Y14209486D01*
X46588053Y14115410D01*
X44824797Y15293083D01*
X44699609Y15344909D01*
X44586955Y15420182D01*
X44453810Y15446666D01*
X44328376Y15498594D01*
X44192885Y15498568D01*
X44060000Y15525000D01*
X42331435Y15525000D01*
X42620316Y15813376D01*
X42906674Y16503004D01*
X42907325Y17249720D01*
X42622171Y17939846D01*
X42407000Y18155393D01*
X42407000Y21240660D01*
X42750316Y21583376D01*
X43036674Y22273004D01*
X43037325Y23019720D01*
X42752171Y23709846D01*
X42224624Y24238316D01*
X41534996Y24524674D01*
X40788280Y24525325D01*
X40098154Y24240171D01*
X39890100Y24032480D01*
X39684624Y24238316D01*
X38994996Y24524674D01*
X38248280Y24525325D01*
X37558154Y24240171D01*
X37457000Y24139194D01*
X37457000Y26770607D01*
X37457393Y26771000D01*
X42060000Y26771000D01*
X42069287Y26772847D01*
X42078595Y26771126D01*
X45475267Y26817000D01*
X47744433Y26817000D01*
X47957376Y26603684D01*
M02*
