M48
;DRILL file {KiCad 4.0.6-e0-6349~52~ubuntu17.04.1} date Fri Jul 14 08:54:54 2017
;FORMAT={-:-/ absolute / metric / decimal}
FMAT,2
METRIC,TZ
T1C0.800
%
G90
G05
M71
T1
X2.78Y28.648
X3.06Y22.648
X3.56Y14.308
X3.56Y4.148
X5.32Y28.648
X5.6Y22.648
X7.86Y28.648
X8.14Y22.648
X9.56Y16.228
X9.56Y13.688
X9.56Y11.148
X10.4Y28.648
X10.68Y22.648
X12.94Y28.648
X13.22Y22.648
X15.06Y18.648
X15.06Y16.108
X15.06Y13.568
X15.06Y11.028
X15.06Y8.488
X15.06Y5.948
X15.48Y28.648
X15.76Y22.648
X18.02Y28.648
X18.3Y22.648
X20.56Y28.648
X20.56Y16.148
X20.56Y13.608
X20.56Y11.068
X20.56Y8.528
X20.56Y5.988
X20.84Y22.648
X23.38Y22.648
X25.92Y22.648
X28.33Y16.878
X28.33Y6.718
X28.46Y22.648
X28.56Y28.148
X30.87Y16.878
X30.87Y6.718
X31.Y22.648
X31.1Y28.148
X33.41Y16.878
X33.41Y6.718
X33.54Y22.648
X33.64Y28.148
X35.95Y16.878
X35.95Y6.718
X36.08Y22.648
X36.18Y28.148
X38.49Y16.878
X38.49Y6.718
X38.62Y22.648
X41.03Y16.878
X41.03Y6.718
X41.16Y22.648
X45.212Y21.336
X45.212Y18.796
X45.466Y9.652
X45.466Y7.112
X49.022Y28.194
X49.022Y25.654
X49.022Y23.114
X49.022Y20.574
X49.022Y18.034
X49.022Y15.494
X49.022Y12.954
X49.022Y10.414
X56.642Y28.194
X56.642Y25.654
X56.642Y23.114
X56.642Y20.574
X56.642Y18.034
X56.642Y15.494
X56.642Y12.954
X56.642Y10.414
T0
M30
