G04 #@! TF.FileFunction,Copper,L1,Top,Signal*
%FSLAX46Y46*%
G04 Gerber Fmt 4.6, Leading zero omitted, Abs format (unit mm)*
G04 Created by KiCad (PCBNEW 4.0.6-e0-6349~52~ubuntu17.04.1) date Sat Jul 15 15:40:24 2017*
%MOMM*%
%LPD*%
G01*
G04 APERTURE LIST*
%ADD10C,0.100000*%
%ADD11C,2.000000*%
%ADD12C,1.000000*%
%ADD13C,0.554000*%
G04 APERTURE END LIST*
D10*
D11*
X42046000Y17386000D03*
X39506000Y17386000D03*
X36966000Y17386000D03*
X34426000Y17386000D03*
X31886000Y17386000D03*
X29346000Y17386000D03*
X29346000Y7226000D03*
X31886000Y7226000D03*
X34426000Y7226000D03*
X36966000Y7226000D03*
X39506000Y7226000D03*
X42046000Y7226000D03*
X4076000Y23156000D03*
X6616000Y23156000D03*
X9156000Y23156000D03*
X11696000Y23156000D03*
X14236000Y23156000D03*
X16776000Y23156000D03*
X19316000Y23156000D03*
X21856000Y23156000D03*
X24396000Y23156000D03*
X26936000Y23156000D03*
X29476000Y23156000D03*
X32016000Y23156000D03*
X34556000Y23156000D03*
X37096000Y23156000D03*
X39636000Y23156000D03*
X42176000Y23156000D03*
X50038000Y28702000D03*
X50038000Y26162000D03*
X50038000Y13462000D03*
X50038000Y10922000D03*
X50038000Y23622000D03*
X50038000Y21082000D03*
X50038000Y16002000D03*
X50038000Y18542000D03*
X57658000Y10922000D03*
X57658000Y13462000D03*
X57658000Y16002000D03*
X57658000Y18542000D03*
X57658000Y21082000D03*
X57658000Y23622000D03*
X57658000Y26162000D03*
X57658000Y28702000D03*
X46228000Y19304000D03*
X46228000Y21844000D03*
X4572000Y7620000D03*
X4572000Y17780000D03*
X10414000Y15240000D03*
X10414000Y17780000D03*
X10414000Y12700000D03*
X55372000Y5334000D03*
X52872000Y5334000D03*
X29576000Y28656000D03*
X32076000Y28656000D03*
X34576000Y28656000D03*
X37076000Y28656000D03*
X16510000Y17526000D03*
X16510000Y15026000D03*
X16510000Y12526000D03*
X16510000Y10026000D03*
X16510000Y7526000D03*
X22352000Y15240000D03*
X22352000Y12740000D03*
X22352000Y10240000D03*
X22352000Y7740000D03*
X16764000Y27686000D03*
X14264000Y27686000D03*
X11764000Y27686000D03*
X9264000Y27686000D03*
X6764000Y27686000D03*
X4264000Y27686000D03*
X22098000Y29718000D03*
D12*
X36852000Y10160000D02*
X36852000Y12170000D01*
X24638000Y15240000D02*
X22352000Y15240000D01*
X26670000Y13208000D02*
X24638000Y15240000D01*
X35814000Y13208000D02*
X26670000Y13208000D01*
X36852000Y12170000D02*
X35814000Y13208000D01*
X22352000Y15240000D02*
X20066000Y17526000D01*
X20066000Y17526000D02*
X16510000Y17526000D01*
X52872000Y5334000D02*
X52872000Y8088000D01*
X52872000Y8088000D02*
X50038000Y10922000D01*
X46482000Y10160000D02*
X37338000Y10160000D01*
X37338000Y10160000D02*
X37084000Y10160000D01*
X37084000Y10160000D02*
X36852000Y10160000D01*
X36852000Y10160000D02*
X36966000Y10046000D01*
X46482000Y10160000D02*
X49276000Y10160000D01*
X49276000Y10160000D02*
X50038000Y10922000D01*
X36966000Y10046000D02*
X36966000Y7226000D01*
X4572000Y7620000D02*
X8382000Y7620000D01*
X39506000Y5216000D02*
X39506000Y7226000D01*
X36830000Y2540000D02*
X39506000Y5216000D01*
X13462000Y2540000D02*
X36830000Y2540000D01*
X8382000Y7620000D02*
X13462000Y2540000D01*
X4572000Y7620000D02*
X4576000Y11331000D01*
X7441000Y14196000D02*
X10414000Y15240000D01*
X4576000Y11331000D02*
X7441000Y14196000D01*
X14304000Y27686000D02*
X14304000Y23224000D01*
X14304000Y23224000D02*
X14236000Y23156000D01*
X11804000Y27686000D02*
X11804000Y23264000D01*
X11804000Y23264000D02*
X11696000Y23156000D01*
X9304000Y27686000D02*
X9304000Y23304000D01*
X9304000Y23304000D02*
X9156000Y23156000D01*
X6804000Y27686000D02*
X6804000Y23344000D01*
X6804000Y23344000D02*
X6616000Y23156000D01*
X4304000Y27686000D02*
X4304000Y23384000D01*
X4304000Y23384000D02*
X4076000Y23156000D01*
X21856000Y23156000D02*
X21856000Y25412000D01*
X25100000Y28656000D02*
X29576000Y28656000D01*
X21856000Y25412000D02*
X25100000Y28656000D01*
X24396000Y23156000D02*
X24396000Y25412000D01*
X32076000Y27250000D02*
X32076000Y28656000D01*
X31242000Y26416000D02*
X32076000Y27250000D01*
X25400000Y26416000D02*
X31242000Y26416000D01*
X24396000Y25412000D02*
X25400000Y26416000D01*
X50038000Y28702000D02*
X57658000Y28702000D01*
X37196000Y28656000D02*
X43076000Y28656000D01*
X46482000Y28702000D02*
X50038000Y28702000D01*
X43076000Y28656000D02*
X46482000Y28702000D01*
X37096000Y23156000D02*
X37096000Y28556000D01*
X37096000Y28556000D02*
X37196000Y28656000D01*
X36966000Y17386000D02*
X36966000Y23026000D01*
X36966000Y23026000D02*
X37096000Y23156000D01*
X10414000Y12700000D02*
X16210000Y12672000D01*
X16210000Y12672000D02*
X16330000Y12552000D01*
X16510000Y10026000D02*
X13836000Y10026000D01*
X31886000Y5216000D02*
X31886000Y7226000D01*
X31242000Y4572000D02*
X31886000Y5216000D01*
X14478000Y4572000D02*
X31242000Y4572000D01*
X13970000Y5080000D02*
X14478000Y4572000D01*
X13970000Y9892000D02*
X13970000Y5080000D01*
X13836000Y10026000D02*
X13970000Y9892000D01*
X16510000Y7526000D02*
X22138000Y7526000D01*
X22138000Y7526000D02*
X22352000Y7740000D01*
X22044000Y7472000D02*
X22084000Y7512000D01*
X42046000Y17386000D02*
X42046000Y23026000D01*
X42046000Y23026000D02*
X42176000Y23156000D01*
X39506000Y17386000D02*
X39506000Y23026000D01*
X39506000Y23026000D02*
X39636000Y23156000D01*
X31886000Y17386000D02*
X31886000Y23026000D01*
X31886000Y23026000D02*
X32016000Y23156000D01*
X29346000Y17386000D02*
X29346000Y23026000D01*
X29346000Y23026000D02*
X29476000Y23156000D01*
X22352000Y10240000D02*
X24812000Y10240000D01*
X27826000Y7226000D02*
X29346000Y7226000D01*
X24812000Y10240000D02*
X27826000Y7226000D01*
X50038000Y13462000D02*
X47244000Y13208000D01*
X26936000Y15296000D02*
X26936000Y23156000D01*
X27576000Y14656000D02*
X26936000Y15296000D01*
X45076000Y14656000D02*
X27576000Y14656000D01*
X47244000Y13208000D02*
X45076000Y14656000D01*
X46228000Y21844000D02*
X48260000Y21844000D01*
X48260000Y21844000D02*
X50038000Y23622000D01*
X46228000Y19304000D02*
X46736000Y19304000D01*
X46736000Y19304000D02*
X50038000Y16002000D01*
X16804000Y27686000D02*
X16804000Y23184000D01*
X16804000Y23184000D02*
X16776000Y23156000D01*
D13*
G36*
X60008000Y952000D02*
X952000Y952000D01*
X952000Y7248280D01*
X2694675Y7248280D01*
X2979829Y6558154D01*
X3507376Y6029684D01*
X4197004Y5743326D01*
X4943720Y5742675D01*
X5633846Y6027829D01*
X5849393Y6243000D01*
X7811628Y6243000D01*
X12488314Y1566314D01*
X12935045Y1267818D01*
X13462000Y1163000D01*
X36830000Y1163000D01*
X37356955Y1267818D01*
X37803686Y1566314D01*
X40479686Y4242314D01*
X40778182Y4689045D01*
X40883000Y5216000D01*
X40883000Y5734232D01*
X40981376Y5635684D01*
X41671004Y5349326D01*
X42417720Y5348675D01*
X43107846Y5633829D01*
X43636316Y6161376D01*
X43922674Y6851004D01*
X43923325Y7597720D01*
X43638171Y8287846D01*
X43143882Y8783000D01*
X49276000Y8783000D01*
X49802955Y8887818D01*
X49995893Y9016735D01*
X51495000Y7517628D01*
X51495000Y6611567D01*
X51281684Y6398624D01*
X50995326Y5708996D01*
X50994675Y4962280D01*
X51279829Y4272154D01*
X51807376Y3743684D01*
X52497004Y3457326D01*
X53243720Y3456675D01*
X53933846Y3741829D01*
X54462316Y4269376D01*
X54748674Y4959004D01*
X54749325Y5705720D01*
X54464171Y6395846D01*
X54249000Y6611393D01*
X54249000Y8088000D01*
X54144182Y8614955D01*
X53845686Y9061686D01*
X51915062Y10992310D01*
X51915325Y11293720D01*
X51630171Y11983846D01*
X51422480Y12191900D01*
X51628316Y12397376D01*
X51914674Y13087004D01*
X51915325Y13833720D01*
X51630171Y14523846D01*
X51422480Y14731900D01*
X51628316Y14937376D01*
X51914674Y15627004D01*
X51914676Y15630280D01*
X55780675Y15630280D01*
X56065829Y14940154D01*
X56273520Y14732100D01*
X56067684Y14526624D01*
X55781326Y13836996D01*
X55780675Y13090280D01*
X56065829Y12400154D01*
X56273520Y12192100D01*
X56067684Y11986624D01*
X55781326Y11296996D01*
X55780675Y10550280D01*
X56065829Y9860154D01*
X56593376Y9331684D01*
X57283004Y9045326D01*
X58029720Y9044675D01*
X58719846Y9329829D01*
X59248316Y9857376D01*
X59534674Y10547004D01*
X59535325Y11293720D01*
X59250171Y11983846D01*
X59042480Y12191900D01*
X59248316Y12397376D01*
X59534674Y13087004D01*
X59535325Y13833720D01*
X59250171Y14523846D01*
X59042480Y14731900D01*
X59248316Y14937376D01*
X59534674Y15627004D01*
X59535325Y16373720D01*
X59250171Y17063846D01*
X58722624Y17592316D01*
X58032996Y17878674D01*
X57286280Y17879325D01*
X56596154Y17594171D01*
X56067684Y17066624D01*
X55781326Y16376996D01*
X55780675Y15630280D01*
X51914676Y15630280D01*
X51915325Y16373720D01*
X51630171Y17063846D01*
X51102624Y17592316D01*
X50412996Y17878674D01*
X50108432Y17878940D01*
X47960043Y20027329D01*
X47820171Y20365846D01*
X47719194Y20467000D01*
X48260000Y20467000D01*
X48786955Y20571818D01*
X49233686Y20870314D01*
X50108310Y21744938D01*
X50409720Y21744675D01*
X51099846Y22029829D01*
X51628316Y22557376D01*
X51914674Y23247004D01*
X51915325Y23993720D01*
X51630171Y24683846D01*
X51102624Y25212316D01*
X50412996Y25498674D01*
X49666280Y25499325D01*
X48976154Y25214171D01*
X48447684Y24686624D01*
X48161326Y23996996D01*
X48161060Y23692432D01*
X47689628Y23221000D01*
X47505567Y23221000D01*
X47292624Y23434316D01*
X46602996Y23720674D01*
X45856280Y23721325D01*
X45166154Y23436171D01*
X44637684Y22908624D01*
X44351326Y22218996D01*
X44350675Y21472280D01*
X44635829Y20782154D01*
X44843520Y20574100D01*
X44637684Y20368624D01*
X44351326Y19678996D01*
X44350675Y18932280D01*
X44635829Y18242154D01*
X45163376Y17713684D01*
X45853004Y17427326D01*
X46599720Y17426675D01*
X46646588Y17446040D01*
X48160938Y15931690D01*
X48160675Y15630280D01*
X48445829Y14940154D01*
X48653520Y14732100D01*
X48638880Y14717486D01*
X47604053Y14623410D01*
X45840797Y15801083D01*
X45715609Y15852909D01*
X45602955Y15928182D01*
X45469810Y15954666D01*
X45344376Y16006594D01*
X45208885Y16006568D01*
X45076000Y16033000D01*
X43347435Y16033000D01*
X43636316Y16321376D01*
X43922674Y17011004D01*
X43923325Y17757720D01*
X43638171Y18447846D01*
X43423000Y18663393D01*
X43423000Y21748660D01*
X43766316Y22091376D01*
X44052674Y22781004D01*
X44053325Y23527720D01*
X43768171Y24217846D01*
X43240624Y24746316D01*
X42550996Y25032674D01*
X41804280Y25033325D01*
X41114154Y24748171D01*
X40906100Y24540480D01*
X40700624Y24746316D01*
X40010996Y25032674D01*
X39264280Y25033325D01*
X38574154Y24748171D01*
X38473000Y24647194D01*
X38473000Y27279000D01*
X43076000Y27279000D01*
X43085287Y27280847D01*
X43094595Y27279126D01*
X46491267Y27325000D01*
X48760433Y27325000D01*
X48973376Y27111684D01*
X49663004Y26825326D01*
X50409720Y26824675D01*
X51099846Y27109829D01*
X51315393Y27325000D01*
X56166232Y27325000D01*
X56067684Y27226624D01*
X55781326Y26536996D01*
X55780675Y25790280D01*
X56065829Y25100154D01*
X56273520Y24892100D01*
X56067684Y24686624D01*
X55781326Y23996996D01*
X55780675Y23250280D01*
X56065829Y22560154D01*
X56593376Y22031684D01*
X57283004Y21745326D01*
X58029720Y21744675D01*
X58719846Y22029829D01*
X59248316Y22557376D01*
X59534674Y23247004D01*
X59535325Y23993720D01*
X59250171Y24683846D01*
X59042480Y24891900D01*
X59248316Y25097376D01*
X59534674Y25787004D01*
X59535325Y26533720D01*
X59250171Y27223846D01*
X59042480Y27431900D01*
X59248316Y27637376D01*
X59534674Y28327004D01*
X59535325Y29073720D01*
X59250171Y29763846D01*
X58722624Y30292316D01*
X58032996Y30578674D01*
X57286280Y30579325D01*
X56596154Y30294171D01*
X56380607Y30079000D01*
X51315567Y30079000D01*
X51102624Y30292316D01*
X50412996Y30578674D01*
X49666280Y30579325D01*
X48976154Y30294171D01*
X48760607Y30079000D01*
X46482000Y30079000D01*
X46472713Y30077153D01*
X46463405Y30078874D01*
X43066734Y30033000D01*
X38353567Y30033000D01*
X38140624Y30246316D01*
X37450996Y30532674D01*
X36704280Y30533325D01*
X36014154Y30248171D01*
X35485684Y29720624D01*
X35199326Y29030996D01*
X35198675Y28284280D01*
X35483829Y27594154D01*
X35719000Y27358572D01*
X35719000Y24433567D01*
X35505684Y24220624D01*
X35219326Y23530996D01*
X35218675Y22784280D01*
X35503829Y22094154D01*
X35589000Y22008834D01*
X35589000Y18663567D01*
X35375684Y18450624D01*
X35089326Y17760996D01*
X35088675Y17014280D01*
X35373829Y16324154D01*
X35664474Y16033000D01*
X33187435Y16033000D01*
X33476316Y16321376D01*
X33762674Y17011004D01*
X33763325Y17757720D01*
X33478171Y18447846D01*
X33263000Y18663393D01*
X33263000Y21748660D01*
X33606316Y22091376D01*
X33892674Y22781004D01*
X33893325Y23527720D01*
X33608171Y24217846D01*
X33080624Y24746316D01*
X32390996Y25032674D01*
X31644280Y25033325D01*
X30954154Y24748171D01*
X30746100Y24540480D01*
X30540624Y24746316D01*
X29850996Y25032674D01*
X29104280Y25033325D01*
X28414154Y24748171D01*
X28206100Y24540480D01*
X28000624Y24746316D01*
X27310996Y25032674D01*
X26564280Y25033325D01*
X25874154Y24748171D01*
X25773000Y24647194D01*
X25773000Y24841628D01*
X25970372Y25039000D01*
X31242000Y25039000D01*
X31768955Y25143818D01*
X32215686Y25442314D01*
X33049686Y26276314D01*
X33348182Y26723045D01*
X33453000Y27250000D01*
X33453000Y27378433D01*
X33666316Y27591376D01*
X33952674Y28281004D01*
X33953325Y29027720D01*
X33668171Y29717846D01*
X33140624Y30246316D01*
X32450996Y30532674D01*
X31704280Y30533325D01*
X31014154Y30248171D01*
X30826135Y30060480D01*
X30640624Y30246316D01*
X29950996Y30532674D01*
X29204280Y30533325D01*
X28514154Y30248171D01*
X28298607Y30033000D01*
X25100000Y30033000D01*
X24573045Y29928182D01*
X24126314Y29629686D01*
X20882314Y26385686D01*
X20583818Y25938955D01*
X20479000Y25412000D01*
X20479000Y24433567D01*
X20265684Y24220624D01*
X19979326Y23530996D01*
X19978675Y22784280D01*
X20263829Y22094154D01*
X20791376Y21565684D01*
X21481004Y21279326D01*
X22227720Y21278675D01*
X22917846Y21563829D01*
X23125900Y21771520D01*
X23331376Y21565684D01*
X24021004Y21279326D01*
X24767720Y21278675D01*
X25457846Y21563829D01*
X25559000Y21664806D01*
X25559000Y16248890D01*
X25164955Y16512182D01*
X24638000Y16617000D01*
X23629567Y16617000D01*
X23416624Y16830316D01*
X22726996Y17116674D01*
X22422432Y17116940D01*
X21039686Y18499686D01*
X20592955Y18798182D01*
X20066000Y18903000D01*
X17787567Y18903000D01*
X17574624Y19116316D01*
X16884996Y19402674D01*
X16138280Y19403325D01*
X15448154Y19118171D01*
X14919684Y18590624D01*
X14633326Y17900996D01*
X14632675Y17154280D01*
X14917829Y16464154D01*
X15445376Y15935684D01*
X16135004Y15649326D01*
X16881720Y15648675D01*
X17571846Y15933829D01*
X17787393Y16149000D01*
X19495628Y16149000D01*
X20474938Y15169690D01*
X20474675Y14868280D01*
X20759829Y14178154D01*
X21287376Y13649684D01*
X21977004Y13363326D01*
X22723720Y13362675D01*
X23413846Y13647829D01*
X23629393Y13863000D01*
X24067628Y13863000D01*
X25696314Y12234314D01*
X26143045Y11935818D01*
X26670000Y11831000D01*
X35243628Y11831000D01*
X35475000Y11599628D01*
X35475000Y10160000D01*
X35579818Y9633045D01*
X35589000Y9619303D01*
X35589000Y8503567D01*
X35375684Y8290624D01*
X35089326Y7600996D01*
X35088675Y6854280D01*
X35373829Y6164154D01*
X35901376Y5635684D01*
X36591004Y5349326D01*
X37337720Y5348675D01*
X37940272Y5597644D01*
X36259628Y3917000D01*
X32534372Y3917000D01*
X32859686Y4242314D01*
X33158182Y4689045D01*
X33263000Y5216000D01*
X33263000Y5948433D01*
X33476316Y6161376D01*
X33762674Y6851004D01*
X33763325Y7597720D01*
X33478171Y8287846D01*
X32950624Y8816316D01*
X32260996Y9102674D01*
X31514280Y9103325D01*
X30824154Y8818171D01*
X30616100Y8610480D01*
X30410624Y8816316D01*
X29720996Y9102674D01*
X28974280Y9103325D01*
X28284154Y8818171D01*
X28232633Y8766739D01*
X25785686Y11213686D01*
X25338955Y11512182D01*
X24812000Y11617000D01*
X23629567Y11617000D01*
X23416624Y11830316D01*
X22726996Y12116674D01*
X21980280Y12117325D01*
X21290154Y11832171D01*
X20761684Y11304624D01*
X20475326Y10614996D01*
X20474675Y9868280D01*
X20759829Y9178154D01*
X20947520Y8990135D01*
X20860232Y8903000D01*
X18041838Y8903000D01*
X18100316Y8961376D01*
X18386674Y9651004D01*
X18387325Y10397720D01*
X18102171Y11087846D01*
X17914480Y11275865D01*
X18100316Y11461376D01*
X18386674Y12151004D01*
X18387325Y12897720D01*
X18102171Y13587846D01*
X17574624Y14116316D01*
X16884996Y14402674D01*
X16138280Y14403325D01*
X15448154Y14118171D01*
X15382881Y14053012D01*
X11898600Y14069844D01*
X12004316Y14175376D01*
X12290674Y14865004D01*
X12291325Y15611720D01*
X12006171Y16301846D01*
X11478624Y16830316D01*
X10788996Y17116674D01*
X10042280Y17117325D01*
X9352154Y16832171D01*
X8823684Y16304624D01*
X8744133Y16113043D01*
X6984765Y15495222D01*
X6951710Y15475674D01*
X6914045Y15468182D01*
X6721560Y15339568D01*
X6522303Y15221731D01*
X6499245Y15191022D01*
X6467314Y15169686D01*
X3602314Y12304686D01*
X3453444Y12081887D01*
X3304387Y11859326D01*
X3304239Y11858585D01*
X3303818Y11857955D01*
X3251506Y11594966D01*
X3199001Y11332484D01*
X3196378Y8898943D01*
X2981684Y8684624D01*
X2695326Y7994996D01*
X2694675Y7248280D01*
X952000Y7248280D01*
X952000Y22784280D01*
X2198675Y22784280D01*
X2483829Y22094154D01*
X3011376Y21565684D01*
X3701004Y21279326D01*
X4447720Y21278675D01*
X5137846Y21563829D01*
X5345900Y21771520D01*
X5551376Y21565684D01*
X6241004Y21279326D01*
X6987720Y21278675D01*
X7677846Y21563829D01*
X7885900Y21771520D01*
X8091376Y21565684D01*
X8781004Y21279326D01*
X9527720Y21278675D01*
X10217846Y21563829D01*
X10425900Y21771520D01*
X10631376Y21565684D01*
X11321004Y21279326D01*
X12067720Y21278675D01*
X12757846Y21563829D01*
X12965900Y21771520D01*
X13171376Y21565684D01*
X13861004Y21279326D01*
X14607720Y21278675D01*
X15297846Y21563829D01*
X15505900Y21771520D01*
X15711376Y21565684D01*
X16401004Y21279326D01*
X17147720Y21278675D01*
X17837846Y21563829D01*
X18366316Y22091376D01*
X18652674Y22781004D01*
X18653325Y23527720D01*
X18368171Y24217846D01*
X18181000Y24405344D01*
X18181000Y26448363D01*
X18354316Y26621376D01*
X18640674Y27311004D01*
X18641325Y28057720D01*
X18356171Y28747846D01*
X17828624Y29276316D01*
X17138996Y29562674D01*
X16392280Y29563325D01*
X15702154Y29278171D01*
X15514135Y29090480D01*
X15328624Y29276316D01*
X14638996Y29562674D01*
X13892280Y29563325D01*
X13202154Y29278171D01*
X13014135Y29090480D01*
X12828624Y29276316D01*
X12138996Y29562674D01*
X11392280Y29563325D01*
X10702154Y29278171D01*
X10514135Y29090480D01*
X10328624Y29276316D01*
X9638996Y29562674D01*
X8892280Y29563325D01*
X8202154Y29278171D01*
X8014135Y29090480D01*
X7828624Y29276316D01*
X7138996Y29562674D01*
X6392280Y29563325D01*
X5702154Y29278171D01*
X5514135Y29090480D01*
X5328624Y29276316D01*
X4638996Y29562674D01*
X3892280Y29563325D01*
X3202154Y29278171D01*
X2673684Y28750624D01*
X2387326Y28060996D01*
X2386675Y27314280D01*
X2671829Y26624154D01*
X2927000Y26368537D01*
X2927000Y24661169D01*
X2485684Y24220624D01*
X2199326Y23530996D01*
X2198675Y22784280D01*
X952000Y22784280D01*
X952000Y31052000D01*
X60008000Y31052000D01*
X60008000Y952000D01*
X60008000Y952000D01*
G37*
X60008000Y952000D02*
X952000Y952000D01*
X952000Y7248280D01*
X2694675Y7248280D01*
X2979829Y6558154D01*
X3507376Y6029684D01*
X4197004Y5743326D01*
X4943720Y5742675D01*
X5633846Y6027829D01*
X5849393Y6243000D01*
X7811628Y6243000D01*
X12488314Y1566314D01*
X12935045Y1267818D01*
X13462000Y1163000D01*
X36830000Y1163000D01*
X37356955Y1267818D01*
X37803686Y1566314D01*
X40479686Y4242314D01*
X40778182Y4689045D01*
X40883000Y5216000D01*
X40883000Y5734232D01*
X40981376Y5635684D01*
X41671004Y5349326D01*
X42417720Y5348675D01*
X43107846Y5633829D01*
X43636316Y6161376D01*
X43922674Y6851004D01*
X43923325Y7597720D01*
X43638171Y8287846D01*
X43143882Y8783000D01*
X49276000Y8783000D01*
X49802955Y8887818D01*
X49995893Y9016735D01*
X51495000Y7517628D01*
X51495000Y6611567D01*
X51281684Y6398624D01*
X50995326Y5708996D01*
X50994675Y4962280D01*
X51279829Y4272154D01*
X51807376Y3743684D01*
X52497004Y3457326D01*
X53243720Y3456675D01*
X53933846Y3741829D01*
X54462316Y4269376D01*
X54748674Y4959004D01*
X54749325Y5705720D01*
X54464171Y6395846D01*
X54249000Y6611393D01*
X54249000Y8088000D01*
X54144182Y8614955D01*
X53845686Y9061686D01*
X51915062Y10992310D01*
X51915325Y11293720D01*
X51630171Y11983846D01*
X51422480Y12191900D01*
X51628316Y12397376D01*
X51914674Y13087004D01*
X51915325Y13833720D01*
X51630171Y14523846D01*
X51422480Y14731900D01*
X51628316Y14937376D01*
X51914674Y15627004D01*
X51914676Y15630280D01*
X55780675Y15630280D01*
X56065829Y14940154D01*
X56273520Y14732100D01*
X56067684Y14526624D01*
X55781326Y13836996D01*
X55780675Y13090280D01*
X56065829Y12400154D01*
X56273520Y12192100D01*
X56067684Y11986624D01*
X55781326Y11296996D01*
X55780675Y10550280D01*
X56065829Y9860154D01*
X56593376Y9331684D01*
X57283004Y9045326D01*
X58029720Y9044675D01*
X58719846Y9329829D01*
X59248316Y9857376D01*
X59534674Y10547004D01*
X59535325Y11293720D01*
X59250171Y11983846D01*
X59042480Y12191900D01*
X59248316Y12397376D01*
X59534674Y13087004D01*
X59535325Y13833720D01*
X59250171Y14523846D01*
X59042480Y14731900D01*
X59248316Y14937376D01*
X59534674Y15627004D01*
X59535325Y16373720D01*
X59250171Y17063846D01*
X58722624Y17592316D01*
X58032996Y17878674D01*
X57286280Y17879325D01*
X56596154Y17594171D01*
X56067684Y17066624D01*
X55781326Y16376996D01*
X55780675Y15630280D01*
X51914676Y15630280D01*
X51915325Y16373720D01*
X51630171Y17063846D01*
X51102624Y17592316D01*
X50412996Y17878674D01*
X50108432Y17878940D01*
X47960043Y20027329D01*
X47820171Y20365846D01*
X47719194Y20467000D01*
X48260000Y20467000D01*
X48786955Y20571818D01*
X49233686Y20870314D01*
X50108310Y21744938D01*
X50409720Y21744675D01*
X51099846Y22029829D01*
X51628316Y22557376D01*
X51914674Y23247004D01*
X51915325Y23993720D01*
X51630171Y24683846D01*
X51102624Y25212316D01*
X50412996Y25498674D01*
X49666280Y25499325D01*
X48976154Y25214171D01*
X48447684Y24686624D01*
X48161326Y23996996D01*
X48161060Y23692432D01*
X47689628Y23221000D01*
X47505567Y23221000D01*
X47292624Y23434316D01*
X46602996Y23720674D01*
X45856280Y23721325D01*
X45166154Y23436171D01*
X44637684Y22908624D01*
X44351326Y22218996D01*
X44350675Y21472280D01*
X44635829Y20782154D01*
X44843520Y20574100D01*
X44637684Y20368624D01*
X44351326Y19678996D01*
X44350675Y18932280D01*
X44635829Y18242154D01*
X45163376Y17713684D01*
X45853004Y17427326D01*
X46599720Y17426675D01*
X46646588Y17446040D01*
X48160938Y15931690D01*
X48160675Y15630280D01*
X48445829Y14940154D01*
X48653520Y14732100D01*
X48638880Y14717486D01*
X47604053Y14623410D01*
X45840797Y15801083D01*
X45715609Y15852909D01*
X45602955Y15928182D01*
X45469810Y15954666D01*
X45344376Y16006594D01*
X45208885Y16006568D01*
X45076000Y16033000D01*
X43347435Y16033000D01*
X43636316Y16321376D01*
X43922674Y17011004D01*
X43923325Y17757720D01*
X43638171Y18447846D01*
X43423000Y18663393D01*
X43423000Y21748660D01*
X43766316Y22091376D01*
X44052674Y22781004D01*
X44053325Y23527720D01*
X43768171Y24217846D01*
X43240624Y24746316D01*
X42550996Y25032674D01*
X41804280Y25033325D01*
X41114154Y24748171D01*
X40906100Y24540480D01*
X40700624Y24746316D01*
X40010996Y25032674D01*
X39264280Y25033325D01*
X38574154Y24748171D01*
X38473000Y24647194D01*
X38473000Y27279000D01*
X43076000Y27279000D01*
X43085287Y27280847D01*
X43094595Y27279126D01*
X46491267Y27325000D01*
X48760433Y27325000D01*
X48973376Y27111684D01*
X49663004Y26825326D01*
X50409720Y26824675D01*
X51099846Y27109829D01*
X51315393Y27325000D01*
X56166232Y27325000D01*
X56067684Y27226624D01*
X55781326Y26536996D01*
X55780675Y25790280D01*
X56065829Y25100154D01*
X56273520Y24892100D01*
X56067684Y24686624D01*
X55781326Y23996996D01*
X55780675Y23250280D01*
X56065829Y22560154D01*
X56593376Y22031684D01*
X57283004Y21745326D01*
X58029720Y21744675D01*
X58719846Y22029829D01*
X59248316Y22557376D01*
X59534674Y23247004D01*
X59535325Y23993720D01*
X59250171Y24683846D01*
X59042480Y24891900D01*
X59248316Y25097376D01*
X59534674Y25787004D01*
X59535325Y26533720D01*
X59250171Y27223846D01*
X59042480Y27431900D01*
X59248316Y27637376D01*
X59534674Y28327004D01*
X59535325Y29073720D01*
X59250171Y29763846D01*
X58722624Y30292316D01*
X58032996Y30578674D01*
X57286280Y30579325D01*
X56596154Y30294171D01*
X56380607Y30079000D01*
X51315567Y30079000D01*
X51102624Y30292316D01*
X50412996Y30578674D01*
X49666280Y30579325D01*
X48976154Y30294171D01*
X48760607Y30079000D01*
X46482000Y30079000D01*
X46472713Y30077153D01*
X46463405Y30078874D01*
X43066734Y30033000D01*
X38353567Y30033000D01*
X38140624Y30246316D01*
X37450996Y30532674D01*
X36704280Y30533325D01*
X36014154Y30248171D01*
X35485684Y29720624D01*
X35199326Y29030996D01*
X35198675Y28284280D01*
X35483829Y27594154D01*
X35719000Y27358572D01*
X35719000Y24433567D01*
X35505684Y24220624D01*
X35219326Y23530996D01*
X35218675Y22784280D01*
X35503829Y22094154D01*
X35589000Y22008834D01*
X35589000Y18663567D01*
X35375684Y18450624D01*
X35089326Y17760996D01*
X35088675Y17014280D01*
X35373829Y16324154D01*
X35664474Y16033000D01*
X33187435Y16033000D01*
X33476316Y16321376D01*
X33762674Y17011004D01*
X33763325Y17757720D01*
X33478171Y18447846D01*
X33263000Y18663393D01*
X33263000Y21748660D01*
X33606316Y22091376D01*
X33892674Y22781004D01*
X33893325Y23527720D01*
X33608171Y24217846D01*
X33080624Y24746316D01*
X32390996Y25032674D01*
X31644280Y25033325D01*
X30954154Y24748171D01*
X30746100Y24540480D01*
X30540624Y24746316D01*
X29850996Y25032674D01*
X29104280Y25033325D01*
X28414154Y24748171D01*
X28206100Y24540480D01*
X28000624Y24746316D01*
X27310996Y25032674D01*
X26564280Y25033325D01*
X25874154Y24748171D01*
X25773000Y24647194D01*
X25773000Y24841628D01*
X25970372Y25039000D01*
X31242000Y25039000D01*
X31768955Y25143818D01*
X32215686Y25442314D01*
X33049686Y26276314D01*
X33348182Y26723045D01*
X33453000Y27250000D01*
X33453000Y27378433D01*
X33666316Y27591376D01*
X33952674Y28281004D01*
X33953325Y29027720D01*
X33668171Y29717846D01*
X33140624Y30246316D01*
X32450996Y30532674D01*
X31704280Y30533325D01*
X31014154Y30248171D01*
X30826135Y30060480D01*
X30640624Y30246316D01*
X29950996Y30532674D01*
X29204280Y30533325D01*
X28514154Y30248171D01*
X28298607Y30033000D01*
X25100000Y30033000D01*
X24573045Y29928182D01*
X24126314Y29629686D01*
X20882314Y26385686D01*
X20583818Y25938955D01*
X20479000Y25412000D01*
X20479000Y24433567D01*
X20265684Y24220624D01*
X19979326Y23530996D01*
X19978675Y22784280D01*
X20263829Y22094154D01*
X20791376Y21565684D01*
X21481004Y21279326D01*
X22227720Y21278675D01*
X22917846Y21563829D01*
X23125900Y21771520D01*
X23331376Y21565684D01*
X24021004Y21279326D01*
X24767720Y21278675D01*
X25457846Y21563829D01*
X25559000Y21664806D01*
X25559000Y16248890D01*
X25164955Y16512182D01*
X24638000Y16617000D01*
X23629567Y16617000D01*
X23416624Y16830316D01*
X22726996Y17116674D01*
X22422432Y17116940D01*
X21039686Y18499686D01*
X20592955Y18798182D01*
X20066000Y18903000D01*
X17787567Y18903000D01*
X17574624Y19116316D01*
X16884996Y19402674D01*
X16138280Y19403325D01*
X15448154Y19118171D01*
X14919684Y18590624D01*
X14633326Y17900996D01*
X14632675Y17154280D01*
X14917829Y16464154D01*
X15445376Y15935684D01*
X16135004Y15649326D01*
X16881720Y15648675D01*
X17571846Y15933829D01*
X17787393Y16149000D01*
X19495628Y16149000D01*
X20474938Y15169690D01*
X20474675Y14868280D01*
X20759829Y14178154D01*
X21287376Y13649684D01*
X21977004Y13363326D01*
X22723720Y13362675D01*
X23413846Y13647829D01*
X23629393Y13863000D01*
X24067628Y13863000D01*
X25696314Y12234314D01*
X26143045Y11935818D01*
X26670000Y11831000D01*
X35243628Y11831000D01*
X35475000Y11599628D01*
X35475000Y10160000D01*
X35579818Y9633045D01*
X35589000Y9619303D01*
X35589000Y8503567D01*
X35375684Y8290624D01*
X35089326Y7600996D01*
X35088675Y6854280D01*
X35373829Y6164154D01*
X35901376Y5635684D01*
X36591004Y5349326D01*
X37337720Y5348675D01*
X37940272Y5597644D01*
X36259628Y3917000D01*
X32534372Y3917000D01*
X32859686Y4242314D01*
X33158182Y4689045D01*
X33263000Y5216000D01*
X33263000Y5948433D01*
X33476316Y6161376D01*
X33762674Y6851004D01*
X33763325Y7597720D01*
X33478171Y8287846D01*
X32950624Y8816316D01*
X32260996Y9102674D01*
X31514280Y9103325D01*
X30824154Y8818171D01*
X30616100Y8610480D01*
X30410624Y8816316D01*
X29720996Y9102674D01*
X28974280Y9103325D01*
X28284154Y8818171D01*
X28232633Y8766739D01*
X25785686Y11213686D01*
X25338955Y11512182D01*
X24812000Y11617000D01*
X23629567Y11617000D01*
X23416624Y11830316D01*
X22726996Y12116674D01*
X21980280Y12117325D01*
X21290154Y11832171D01*
X20761684Y11304624D01*
X20475326Y10614996D01*
X20474675Y9868280D01*
X20759829Y9178154D01*
X20947520Y8990135D01*
X20860232Y8903000D01*
X18041838Y8903000D01*
X18100316Y8961376D01*
X18386674Y9651004D01*
X18387325Y10397720D01*
X18102171Y11087846D01*
X17914480Y11275865D01*
X18100316Y11461376D01*
X18386674Y12151004D01*
X18387325Y12897720D01*
X18102171Y13587846D01*
X17574624Y14116316D01*
X16884996Y14402674D01*
X16138280Y14403325D01*
X15448154Y14118171D01*
X15382881Y14053012D01*
X11898600Y14069844D01*
X12004316Y14175376D01*
X12290674Y14865004D01*
X12291325Y15611720D01*
X12006171Y16301846D01*
X11478624Y16830316D01*
X10788996Y17116674D01*
X10042280Y17117325D01*
X9352154Y16832171D01*
X8823684Y16304624D01*
X8744133Y16113043D01*
X6984765Y15495222D01*
X6951710Y15475674D01*
X6914045Y15468182D01*
X6721560Y15339568D01*
X6522303Y15221731D01*
X6499245Y15191022D01*
X6467314Y15169686D01*
X3602314Y12304686D01*
X3453444Y12081887D01*
X3304387Y11859326D01*
X3304239Y11858585D01*
X3303818Y11857955D01*
X3251506Y11594966D01*
X3199001Y11332484D01*
X3196378Y8898943D01*
X2981684Y8684624D01*
X2695326Y7994996D01*
X2694675Y7248280D01*
X952000Y7248280D01*
X952000Y22784280D01*
X2198675Y22784280D01*
X2483829Y22094154D01*
X3011376Y21565684D01*
X3701004Y21279326D01*
X4447720Y21278675D01*
X5137846Y21563829D01*
X5345900Y21771520D01*
X5551376Y21565684D01*
X6241004Y21279326D01*
X6987720Y21278675D01*
X7677846Y21563829D01*
X7885900Y21771520D01*
X8091376Y21565684D01*
X8781004Y21279326D01*
X9527720Y21278675D01*
X10217846Y21563829D01*
X10425900Y21771520D01*
X10631376Y21565684D01*
X11321004Y21279326D01*
X12067720Y21278675D01*
X12757846Y21563829D01*
X12965900Y21771520D01*
X13171376Y21565684D01*
X13861004Y21279326D01*
X14607720Y21278675D01*
X15297846Y21563829D01*
X15505900Y21771520D01*
X15711376Y21565684D01*
X16401004Y21279326D01*
X17147720Y21278675D01*
X17837846Y21563829D01*
X18366316Y22091376D01*
X18652674Y22781004D01*
X18653325Y23527720D01*
X18368171Y24217846D01*
X18181000Y24405344D01*
X18181000Y26448363D01*
X18354316Y26621376D01*
X18640674Y27311004D01*
X18641325Y28057720D01*
X18356171Y28747846D01*
X17828624Y29276316D01*
X17138996Y29562674D01*
X16392280Y29563325D01*
X15702154Y29278171D01*
X15514135Y29090480D01*
X15328624Y29276316D01*
X14638996Y29562674D01*
X13892280Y29563325D01*
X13202154Y29278171D01*
X13014135Y29090480D01*
X12828624Y29276316D01*
X12138996Y29562674D01*
X11392280Y29563325D01*
X10702154Y29278171D01*
X10514135Y29090480D01*
X10328624Y29276316D01*
X9638996Y29562674D01*
X8892280Y29563325D01*
X8202154Y29278171D01*
X8014135Y29090480D01*
X7828624Y29276316D01*
X7138996Y29562674D01*
X6392280Y29563325D01*
X5702154Y29278171D01*
X5514135Y29090480D01*
X5328624Y29276316D01*
X4638996Y29562674D01*
X3892280Y29563325D01*
X3202154Y29278171D01*
X2673684Y28750624D01*
X2387326Y28060996D01*
X2386675Y27314280D01*
X2671829Y26624154D01*
X2927000Y26368537D01*
X2927000Y24661169D01*
X2485684Y24220624D01*
X2199326Y23530996D01*
X2198675Y22784280D01*
X952000Y22784280D01*
X952000Y31052000D01*
X60008000Y31052000D01*
X60008000Y952000D01*
M02*
