M48
;DRILL file {KiCad 4.0.6-e0-6349~52~ubuntu17.04.1} date Thu Jul 13 00:47:30 2017
;FORMAT={-:-/ absolute / metric / decimal}
FMAT,2
METRIC,TZ
T1C0.800
%
G90
G05
M71
T1
X3.288Y28.648
X3.568Y22.648
X4.068Y14.308
X4.068Y4.148
X5.828Y28.648
X6.108Y22.648
X8.368Y28.648
X8.648Y22.648
X10.068Y16.228
X10.068Y13.688
X10.068Y11.148
X10.908Y28.648
X11.188Y22.648
X13.448Y28.648
X13.728Y22.648
X15.568Y18.648
X15.568Y16.108
X15.568Y13.568
X15.568Y11.028
X15.568Y8.488
X15.568Y5.948
X15.988Y28.648
X16.268Y22.648
X18.528Y28.648
X18.808Y22.648
X21.068Y28.648
X21.068Y16.148
X21.068Y13.608
X21.068Y11.068
X21.068Y8.528
X21.068Y5.988
X21.348Y22.648
X23.888Y22.648
X26.428Y22.648
X28.838Y16.878
X28.838Y6.718
X28.968Y22.648
X29.068Y28.148
X31.378Y16.878
X31.378Y6.718
X31.508Y22.648
X31.608Y28.148
X33.918Y16.878
X33.918Y6.718
X34.048Y22.648
X34.148Y28.148
X36.458Y16.878
X36.458Y6.718
X36.588Y22.648
X36.688Y28.148
X38.998Y16.878
X38.998Y6.718
X39.128Y22.648
X41.538Y16.878
X41.538Y6.718
X41.668Y22.648
X45.568Y24.188
X45.568Y21.648
X49.258Y31.538
X49.258Y28.998
X49.258Y26.458
X49.258Y23.918
X49.258Y21.378
X49.258Y18.838
X49.258Y16.298
X49.258Y13.758
X52.028Y8.148
X54.568Y8.148
X56.878Y31.538
X56.878Y28.998
X56.878Y26.458
X56.878Y23.918
X56.878Y21.378
X56.878Y18.838
X56.878Y16.298
X56.878Y13.758
T0
M30
