M48
;DRILL file {KiCad 4.0.6-e0-6349~52~ubuntu17.04.1} date Sat Jul 15 15:40:25 2017
;FORMAT={-:-/ absolute / metric / decimal}
FMAT,2
METRIC,TZ
T1C0.800
%
G90
G05
M71
T1
X4.076Y23.156
X4.264Y27.686
X4.572Y17.78
X4.572Y7.62
X6.616Y23.156
X6.764Y27.686
X9.156Y23.156
X9.264Y27.686
X10.414Y17.78
X10.414Y15.24
X10.414Y12.7
X11.696Y23.156
X11.764Y27.686
X14.236Y23.156
X14.264Y27.686
X16.51Y17.526
X16.51Y15.026
X16.51Y12.526
X16.51Y10.026
X16.51Y7.526
X16.764Y27.686
X16.776Y23.156
X19.316Y23.156
X21.856Y23.156
X22.098Y29.718
X22.352Y15.24
X22.352Y12.74
X22.352Y10.24
X22.352Y7.74
X24.396Y23.156
X26.936Y23.156
X29.346Y17.386
X29.346Y7.226
X29.476Y23.156
X29.576Y28.656
X31.886Y17.386
X31.886Y7.226
X32.016Y23.156
X32.076Y28.656
X34.426Y17.386
X34.426Y7.226
X34.556Y23.156
X34.576Y28.656
X36.966Y17.386
X36.966Y7.226
X37.076Y28.656
X37.096Y23.156
X39.506Y17.386
X39.506Y7.226
X39.636Y23.156
X42.046Y17.386
X42.046Y7.226
X42.176Y23.156
X46.228Y21.844
X46.228Y19.304
X50.038Y28.702
X50.038Y26.162
X50.038Y23.622
X50.038Y21.082
X50.038Y18.542
X50.038Y16.002
X50.038Y13.462
X50.038Y10.922
X52.872Y5.334
X55.372Y5.334
X57.658Y28.702
X57.658Y26.162
X57.658Y23.622
X57.658Y21.082
X57.658Y18.542
X57.658Y16.002
X57.658Y13.462
X57.658Y10.922
T0
M30
