G04 #@! TF.FileFunction,Copper,L1,Top,Signal*
%FSLAX46Y46*%
G04 Gerber Fmt 4.6, Leading zero omitted, Abs format (unit mm)*
G04 Created by KiCad (PCBNEW 4.0.6-e0-6349~52~ubuntu17.04.1) date Thu Jul 13 00:47:22 2017*
%MOMM*%
%LPD*%
G01*
G04 APERTURE LIST*
%ADD10C,0.100000*%
%ADD11C,2.000000*%
%ADD12O,2.000000X2.000000*%
%ADD13C,1.000000*%
%ADD14C,0.554000*%
G04 APERTURE END LIST*
D10*
D11*
X54568000Y8148000D03*
X52028000Y8148000D03*
D12*
X21068000Y28648000D03*
X18528000Y28648000D03*
X15988000Y28648000D03*
X13448000Y28648000D03*
X10908000Y28648000D03*
X8368000Y28648000D03*
X5828000Y28648000D03*
X3288000Y28648000D03*
D11*
X29068000Y28148000D03*
X31608000Y28148000D03*
X34148000Y28148000D03*
X36688000Y28148000D03*
X15568000Y18648000D03*
X15568000Y16108000D03*
X15568000Y13568000D03*
X15568000Y11028000D03*
X15568000Y8488000D03*
X15568000Y5948000D03*
X41538000Y16878000D03*
X38998000Y16878000D03*
X36458000Y16878000D03*
X33918000Y16878000D03*
X31378000Y16878000D03*
X28838000Y16878000D03*
X28838000Y6718000D03*
X31378000Y6718000D03*
X33918000Y6718000D03*
X36458000Y6718000D03*
X38998000Y6718000D03*
X41538000Y6718000D03*
X3568000Y22648000D03*
X6108000Y22648000D03*
X8648000Y22648000D03*
X11188000Y22648000D03*
X13728000Y22648000D03*
X16268000Y22648000D03*
X18808000Y22648000D03*
X21348000Y22648000D03*
X23888000Y22648000D03*
X26428000Y22648000D03*
X28968000Y22648000D03*
X31508000Y22648000D03*
X34048000Y22648000D03*
X36588000Y22648000D03*
X39128000Y22648000D03*
X41668000Y22648000D03*
X49258000Y31538000D03*
X49258000Y28998000D03*
X49258000Y16298000D03*
X49258000Y13758000D03*
X49258000Y26458000D03*
X49258000Y23918000D03*
X49258000Y18838000D03*
X49258000Y21378000D03*
X56878000Y13758000D03*
X56878000Y16298000D03*
X56878000Y18838000D03*
X56878000Y21378000D03*
X56878000Y23918000D03*
X56878000Y26458000D03*
X56878000Y28998000D03*
X56878000Y31538000D03*
X45568000Y21648000D03*
X45568000Y24188000D03*
X4068000Y4148000D03*
X4068000Y14308000D03*
X21068000Y16148000D03*
X21068000Y13608000D03*
X21068000Y11068000D03*
X21068000Y8528000D03*
X21068000Y5988000D03*
X10068000Y13688000D03*
X10068000Y16228000D03*
X10068000Y11148000D03*
D13*
X21068000Y16148000D02*
X21068000Y18648000D01*
X21068000Y18648000D02*
X15568000Y18648000D01*
X21068000Y16148000D02*
X23568000Y16148000D01*
X34348000Y11648000D02*
X36458000Y9538000D01*
X25568000Y11648000D02*
X34348000Y11648000D01*
X24568000Y12648000D02*
X25568000Y11648000D01*
X24568000Y15148000D02*
X24568000Y12648000D01*
X23568000Y16148000D02*
X24568000Y15148000D01*
X52028000Y8148000D02*
X47568000Y8148000D01*
X36458000Y9538000D02*
X36458000Y6718000D01*
X36568000Y9648000D02*
X36458000Y9538000D01*
X46068000Y9648000D02*
X36568000Y9648000D01*
X47568000Y8148000D02*
X46068000Y9648000D01*
X49258000Y13758000D02*
X51958000Y13758000D01*
X52028000Y13688000D02*
X52028000Y8148000D01*
X51958000Y13758000D02*
X52028000Y13688000D01*
X4068000Y4148000D02*
X4068000Y10823000D01*
X6933000Y13688000D02*
X10068000Y13688000D01*
X4068000Y10823000D02*
X6933000Y13688000D01*
X4068000Y4148000D02*
X7568000Y4148000D01*
X38998000Y5078000D02*
X38998000Y6718000D01*
X35568000Y1648000D02*
X38998000Y5078000D01*
X10068000Y1648000D02*
X35568000Y1648000D01*
X7568000Y4148000D02*
X10068000Y1648000D01*
X16268000Y22648000D02*
X16268000Y26388000D01*
X16268000Y26388000D02*
X18528000Y28648000D01*
X13728000Y22648000D02*
X13728000Y26388000D01*
X13728000Y26388000D02*
X15988000Y28648000D01*
X11188000Y22648000D02*
X11188000Y26388000D01*
X11188000Y26388000D02*
X13448000Y28648000D01*
X8648000Y22648000D02*
X8648000Y26388000D01*
X8648000Y26388000D02*
X10908000Y28648000D01*
X6108000Y22648000D02*
X6108000Y26388000D01*
X6108000Y26388000D02*
X8368000Y28648000D01*
X21348000Y22648000D02*
X21348000Y23928000D01*
X25568000Y28148000D02*
X29068000Y28148000D01*
X21348000Y23928000D02*
X25568000Y28148000D01*
X23888000Y22648000D02*
X23888000Y23968000D01*
X31608000Y25688000D02*
X31608000Y28148000D01*
X31068000Y25148000D02*
X31608000Y25688000D01*
X25068000Y25148000D02*
X31068000Y25148000D01*
X23888000Y23968000D02*
X25068000Y25148000D01*
X49258000Y31538000D02*
X56878000Y31538000D01*
X36688000Y28148000D02*
X42568000Y28148000D01*
X45958000Y31538000D02*
X49258000Y31538000D01*
X42568000Y28148000D02*
X45958000Y31538000D01*
X36588000Y22648000D02*
X36588000Y28048000D01*
X36588000Y28048000D02*
X36688000Y28148000D01*
X36458000Y16878000D02*
X36458000Y22518000D01*
X36458000Y22518000D02*
X36588000Y22648000D01*
X10068000Y11148000D02*
X15448000Y11148000D01*
X15448000Y11148000D02*
X15568000Y11028000D01*
X15568000Y8488000D02*
X14908000Y8488000D01*
X14908000Y8488000D02*
X12568000Y6148000D01*
X12568000Y6148000D02*
X12568000Y3148000D01*
X12568000Y3148000D02*
X29568000Y3148000D01*
X29568000Y3148000D02*
X31378000Y4958000D01*
X31378000Y4958000D02*
X31378000Y6718000D01*
X15568000Y5948000D02*
X21028000Y5948000D01*
X21028000Y5948000D02*
X21068000Y5988000D01*
X41538000Y16878000D02*
X41538000Y22518000D01*
X41538000Y22518000D02*
X41668000Y22648000D01*
X38998000Y16878000D02*
X38998000Y22518000D01*
X38998000Y22518000D02*
X39128000Y22648000D01*
X31378000Y16878000D02*
X31378000Y22518000D01*
X31378000Y22518000D02*
X31508000Y22648000D01*
X28838000Y16878000D02*
X28838000Y22518000D01*
X28838000Y22518000D02*
X28968000Y22648000D01*
X21068000Y8528000D02*
X27028000Y8528000D01*
X27028000Y8528000D02*
X28838000Y6718000D01*
X49258000Y16298000D02*
X46718000Y16298000D01*
X26428000Y14788000D02*
X26428000Y22648000D01*
X27068000Y14148000D02*
X26428000Y14788000D01*
X44568000Y14148000D02*
X27068000Y14148000D01*
X46718000Y16298000D02*
X44568000Y14148000D01*
X45568000Y24188000D02*
X45568000Y26148000D01*
X45878000Y26458000D02*
X49258000Y26458000D01*
X45568000Y26148000D02*
X45878000Y26458000D01*
X49258000Y18838000D02*
X47378000Y18838000D01*
X45568000Y20648000D02*
X45568000Y21648000D01*
X47378000Y18838000D02*
X45568000Y20648000D01*
X3568000Y22648000D02*
X3568000Y26388000D01*
X3568000Y26388000D02*
X5828000Y28648000D01*
D14*
G36*
X59159000Y277000D02*
X35598164Y277000D01*
X36094955Y375818D01*
X36541686Y674314D01*
X39971686Y4104314D01*
X40270182Y4551045D01*
X40375000Y5078000D01*
X40375000Y5226232D01*
X40473376Y5127684D01*
X41163004Y4841326D01*
X41909720Y4840675D01*
X42599846Y5125829D01*
X43128316Y5653376D01*
X43414674Y6343004D01*
X43415325Y7089720D01*
X43130171Y7779846D01*
X42639875Y8271000D01*
X45497628Y8271000D01*
X46594314Y7174314D01*
X47041045Y6875818D01*
X47568000Y6771000D01*
X50750433Y6771000D01*
X50963376Y6557684D01*
X51653004Y6271326D01*
X52399720Y6270675D01*
X53089846Y6555829D01*
X53618316Y7083376D01*
X53904674Y7773004D01*
X53905325Y8519720D01*
X53620171Y9209846D01*
X53405000Y9425393D01*
X53405000Y13688000D01*
X53300182Y14214955D01*
X53001686Y14661686D01*
X52931686Y14731686D01*
X52484955Y15030182D01*
X51958000Y15135000D01*
X50749768Y15135000D01*
X50848316Y15233376D01*
X51134674Y15923004D01*
X51135325Y16669720D01*
X50850171Y17359846D01*
X50642480Y17567900D01*
X50848316Y17773376D01*
X51134674Y18463004D01*
X51134676Y18466280D01*
X55000675Y18466280D01*
X55285829Y17776154D01*
X55493520Y17568100D01*
X55287684Y17362624D01*
X55001326Y16672996D01*
X55000675Y15926280D01*
X55285829Y15236154D01*
X55493520Y15028100D01*
X55287684Y14822624D01*
X55001326Y14132996D01*
X55000675Y13386280D01*
X55285829Y12696154D01*
X55813376Y12167684D01*
X56503004Y11881326D01*
X57249720Y11880675D01*
X57939846Y12165829D01*
X58468316Y12693376D01*
X58754674Y13383004D01*
X58755325Y14129720D01*
X58470171Y14819846D01*
X58262480Y15027900D01*
X58468316Y15233376D01*
X58754674Y15923004D01*
X58755325Y16669720D01*
X58470171Y17359846D01*
X58262480Y17567900D01*
X58468316Y17773376D01*
X58754674Y18463004D01*
X58755325Y19209720D01*
X58470171Y19899846D01*
X57942624Y20428316D01*
X57252996Y20714674D01*
X56506280Y20715325D01*
X55816154Y20430171D01*
X55287684Y19902624D01*
X55001326Y19212996D01*
X55000675Y18466280D01*
X51134676Y18466280D01*
X51135325Y19209720D01*
X50850171Y19899846D01*
X50322624Y20428316D01*
X49632996Y20714674D01*
X48886280Y20715325D01*
X48196154Y20430171D01*
X47980607Y20215000D01*
X47948372Y20215000D01*
X47282039Y20881333D01*
X47444674Y21273004D01*
X47445325Y22019720D01*
X47160171Y22709846D01*
X46952480Y22917900D01*
X47158316Y23123376D01*
X47444674Y23813004D01*
X47445325Y24559720D01*
X47229937Y25081000D01*
X47980433Y25081000D01*
X48193376Y24867684D01*
X48883004Y24581326D01*
X49629720Y24580675D01*
X50319846Y24865829D01*
X50848316Y25393376D01*
X51134674Y26083004D01*
X51135325Y26829720D01*
X50850171Y27519846D01*
X50322624Y28048316D01*
X49632996Y28334674D01*
X48886280Y28335325D01*
X48196154Y28050171D01*
X47980607Y27835000D01*
X45878000Y27835000D01*
X45351045Y27730182D01*
X44904314Y27431686D01*
X44594314Y27121686D01*
X44295818Y26674955D01*
X44191000Y26148000D01*
X44191000Y25465567D01*
X43977684Y25252624D01*
X43691326Y24562996D01*
X43690675Y23816280D01*
X43975829Y23126154D01*
X44183520Y22918100D01*
X43977684Y22712624D01*
X43691326Y22022996D01*
X43690675Y21276280D01*
X43975829Y20586154D01*
X44259908Y20301578D01*
X44295818Y20121045D01*
X44594314Y19674314D01*
X46404314Y17864314D01*
X46694607Y17670347D01*
X46191045Y17570182D01*
X45744314Y17271686D01*
X43997628Y15525000D01*
X42839435Y15525000D01*
X43128316Y15813376D01*
X43414674Y16503004D01*
X43415325Y17249720D01*
X43130171Y17939846D01*
X42915000Y18155393D01*
X42915000Y21240660D01*
X43258316Y21583376D01*
X43544674Y22273004D01*
X43545325Y23019720D01*
X43260171Y23709846D01*
X42732624Y24238316D01*
X42042996Y24524674D01*
X41296280Y24525325D01*
X40606154Y24240171D01*
X40398100Y24032480D01*
X40192624Y24238316D01*
X39502996Y24524674D01*
X38756280Y24525325D01*
X38066154Y24240171D01*
X37965000Y24139194D01*
X37965000Y26770607D01*
X37965393Y26771000D01*
X42568000Y26771000D01*
X43094955Y26875818D01*
X43541686Y27174314D01*
X46528372Y30161000D01*
X47980433Y30161000D01*
X48193376Y29947684D01*
X48883004Y29661326D01*
X49629720Y29660675D01*
X50319846Y29945829D01*
X50535393Y30161000D01*
X55386232Y30161000D01*
X55287684Y30062624D01*
X55001326Y29372996D01*
X55000675Y28626280D01*
X55285829Y27936154D01*
X55493520Y27728100D01*
X55287684Y27522624D01*
X55001326Y26832996D01*
X55000675Y26086280D01*
X55285829Y25396154D01*
X55813376Y24867684D01*
X56503004Y24581326D01*
X57249720Y24580675D01*
X57939846Y24865829D01*
X58468316Y25393376D01*
X58754674Y26083004D01*
X58755325Y26829720D01*
X58470171Y27519846D01*
X58262480Y27727900D01*
X58468316Y27933376D01*
X58754674Y28623004D01*
X58755325Y29369720D01*
X58470171Y30059846D01*
X58262480Y30267900D01*
X58468316Y30473376D01*
X58754674Y31163004D01*
X58755325Y31909720D01*
X58470171Y32599846D01*
X57942624Y33128316D01*
X57252996Y33414674D01*
X56506280Y33415325D01*
X55816154Y33130171D01*
X55600607Y32915000D01*
X50535567Y32915000D01*
X50322624Y33128316D01*
X49632996Y33414674D01*
X48886280Y33415325D01*
X48196154Y33130171D01*
X47980607Y32915000D01*
X45958000Y32915000D01*
X45431045Y32810182D01*
X44984314Y32511686D01*
X41997628Y29525000D01*
X37965567Y29525000D01*
X37752624Y29738316D01*
X37062996Y30024674D01*
X36316280Y30025325D01*
X35626154Y29740171D01*
X35097684Y29212624D01*
X34811326Y28522996D01*
X34810675Y27776280D01*
X35095829Y27086154D01*
X35211000Y26970781D01*
X35211000Y23925567D01*
X34997684Y23712624D01*
X34711326Y23022996D01*
X34710675Y22276280D01*
X34995829Y21586154D01*
X35081000Y21500834D01*
X35081000Y18155567D01*
X34867684Y17942624D01*
X34581326Y17252996D01*
X34580675Y16506280D01*
X34865829Y15816154D01*
X35156474Y15525000D01*
X32679435Y15525000D01*
X32968316Y15813376D01*
X33254674Y16503004D01*
X33255325Y17249720D01*
X32970171Y17939846D01*
X32755000Y18155393D01*
X32755000Y21240660D01*
X33098316Y21583376D01*
X33384674Y22273004D01*
X33385325Y23019720D01*
X33100171Y23709846D01*
X32572624Y24238316D01*
X32242689Y24375317D01*
X32581686Y24714314D01*
X32880182Y25161045D01*
X32985000Y25688000D01*
X32985000Y26870433D01*
X33198316Y27083376D01*
X33484674Y27773004D01*
X33485325Y28519720D01*
X33200171Y29209846D01*
X32672624Y29738316D01*
X31982996Y30024674D01*
X31236280Y30025325D01*
X30546154Y29740171D01*
X30338100Y29532480D01*
X30132624Y29738316D01*
X29442996Y30024674D01*
X28696280Y30025325D01*
X28006154Y29740171D01*
X27790607Y29525000D01*
X25568000Y29525000D01*
X25041045Y29420182D01*
X24594314Y29121686D01*
X20374314Y24901686D01*
X20075818Y24454955D01*
X19971000Y23928000D01*
X19971000Y23925567D01*
X19757684Y23712624D01*
X19471326Y23022996D01*
X19470675Y22276280D01*
X19755829Y21586154D01*
X20283376Y21057684D01*
X20973004Y20771326D01*
X21719720Y20770675D01*
X22409846Y21055829D01*
X22617900Y21263520D01*
X22823376Y21057684D01*
X23513004Y20771326D01*
X24259720Y20770675D01*
X24949846Y21055829D01*
X25051000Y21156806D01*
X25051000Y16612372D01*
X24541686Y17121686D01*
X24094955Y17420182D01*
X23568000Y17525000D01*
X22445000Y17525000D01*
X22445000Y18648000D01*
X22340182Y19174955D01*
X22041686Y19621686D01*
X21594955Y19920182D01*
X21068000Y20025000D01*
X16845567Y20025000D01*
X16632624Y20238316D01*
X15942996Y20524674D01*
X15196280Y20525325D01*
X14506154Y20240171D01*
X13977684Y19712624D01*
X13691326Y19022996D01*
X13690675Y18276280D01*
X13975829Y17586154D01*
X14503376Y17057684D01*
X15193004Y16771326D01*
X15939720Y16770675D01*
X16629846Y17055829D01*
X16845393Y17271000D01*
X19536162Y17271000D01*
X19477684Y17212624D01*
X19191326Y16522996D01*
X19190675Y15776280D01*
X19475829Y15086154D01*
X20003376Y14557684D01*
X20693004Y14271326D01*
X21439720Y14270675D01*
X22129846Y14555829D01*
X22345393Y14771000D01*
X22997628Y14771000D01*
X23191000Y14577628D01*
X23191000Y12648000D01*
X23295818Y12121045D01*
X23594314Y11674314D01*
X24594314Y10674314D01*
X25041045Y10375818D01*
X25568000Y10271000D01*
X33777628Y10271000D01*
X35081000Y8967628D01*
X35081000Y7995567D01*
X34867684Y7782624D01*
X34581326Y7092996D01*
X34580675Y6346280D01*
X34865829Y5656154D01*
X35393376Y5127684D01*
X36083004Y4841326D01*
X36813317Y4840689D01*
X34997628Y3025000D01*
X31392372Y3025000D01*
X32351686Y3984314D01*
X32650182Y4431045D01*
X32755000Y4958000D01*
X32755000Y5440433D01*
X32968316Y5653376D01*
X33254674Y6343004D01*
X33255325Y7089720D01*
X32970171Y7779846D01*
X32442624Y8308316D01*
X31752996Y8594674D01*
X31006280Y8595325D01*
X30316154Y8310171D01*
X30108100Y8102480D01*
X29902624Y8308316D01*
X29212996Y8594674D01*
X28908432Y8594940D01*
X28001686Y9501686D01*
X27554955Y9800182D01*
X27028000Y9905000D01*
X22345567Y9905000D01*
X22132624Y10118316D01*
X21442996Y10404674D01*
X20696280Y10405325D01*
X20006154Y10120171D01*
X19477684Y9592624D01*
X19191326Y8902996D01*
X19190675Y8156280D01*
X19475829Y7466154D01*
X19616736Y7325000D01*
X17059768Y7325000D01*
X17158316Y7423376D01*
X17444674Y8113004D01*
X17445325Y8859720D01*
X17160171Y9549846D01*
X16952480Y9757900D01*
X17158316Y9963376D01*
X17444674Y10653004D01*
X17445325Y11399720D01*
X17160171Y12089846D01*
X16632624Y12618316D01*
X15942996Y12904674D01*
X15196280Y12905325D01*
X14506154Y12620171D01*
X14410816Y12525000D01*
X11559768Y12525000D01*
X11658316Y12623376D01*
X11944674Y13313004D01*
X11945325Y14059720D01*
X11660171Y14749846D01*
X11132624Y15278316D01*
X10442996Y15564674D01*
X9696280Y15565325D01*
X9006154Y15280171D01*
X8790607Y15065000D01*
X6933000Y15065000D01*
X6406045Y14960182D01*
X5959314Y14661686D01*
X3094314Y11796686D01*
X2795818Y11349955D01*
X2691000Y10823000D01*
X2691000Y5425567D01*
X2477684Y5212624D01*
X2191326Y4522996D01*
X2190675Y3776280D01*
X2475829Y3086154D01*
X3003376Y2557684D01*
X3693004Y2271326D01*
X4439720Y2270675D01*
X5129846Y2555829D01*
X5345393Y2771000D01*
X6997628Y2771000D01*
X9094314Y674314D01*
X9541045Y375818D01*
X10037836Y277000D01*
X277000Y277000D01*
X277000Y22276280D01*
X1690675Y22276280D01*
X1975829Y21586154D01*
X2503376Y21057684D01*
X3193004Y20771326D01*
X3939720Y20770675D01*
X4629846Y21055829D01*
X4837900Y21263520D01*
X5043376Y21057684D01*
X5733004Y20771326D01*
X6479720Y20770675D01*
X7169846Y21055829D01*
X7377900Y21263520D01*
X7583376Y21057684D01*
X8273004Y20771326D01*
X9019720Y20770675D01*
X9709846Y21055829D01*
X9917900Y21263520D01*
X10123376Y21057684D01*
X10813004Y20771326D01*
X11559720Y20770675D01*
X12249846Y21055829D01*
X12457900Y21263520D01*
X12663376Y21057684D01*
X13353004Y20771326D01*
X14099720Y20770675D01*
X14789846Y21055829D01*
X14997900Y21263520D01*
X15203376Y21057684D01*
X15893004Y20771326D01*
X16639720Y20770675D01*
X17329846Y21055829D01*
X17858316Y21583376D01*
X18144674Y22273004D01*
X18145325Y23019720D01*
X17860171Y23709846D01*
X17645000Y23925393D01*
X17645000Y25817628D01*
X18569942Y26742570D01*
X19246297Y26877105D01*
X19855239Y27283988D01*
X20262122Y27892930D01*
X20405000Y28611227D01*
X20405000Y28684773D01*
X20262122Y29403070D01*
X19855239Y30012012D01*
X19246297Y30418895D01*
X18528000Y30561773D01*
X17809703Y30418895D01*
X17258000Y30050258D01*
X16706297Y30418895D01*
X15988000Y30561773D01*
X15269703Y30418895D01*
X14718000Y30050258D01*
X14166297Y30418895D01*
X13448000Y30561773D01*
X12729703Y30418895D01*
X12178000Y30050258D01*
X11626297Y30418895D01*
X10908000Y30561773D01*
X10189703Y30418895D01*
X9638000Y30050258D01*
X9086297Y30418895D01*
X8368000Y30561773D01*
X7649703Y30418895D01*
X7098000Y30050258D01*
X6546297Y30418895D01*
X5828000Y30561773D01*
X5109703Y30418895D01*
X4500761Y30012012D01*
X4093878Y29403070D01*
X3959343Y28726715D01*
X2594314Y27361686D01*
X2295818Y26914955D01*
X2191000Y26388000D01*
X2191000Y23925567D01*
X1977684Y23712624D01*
X1691326Y23022996D01*
X1690675Y22276280D01*
X277000Y22276280D01*
X277000Y34267000D01*
X59159000Y34267000D01*
X59159000Y277000D01*
X59159000Y277000D01*
G37*
X59159000Y277000D02*
X35598164Y277000D01*
X36094955Y375818D01*
X36541686Y674314D01*
X39971686Y4104314D01*
X40270182Y4551045D01*
X40375000Y5078000D01*
X40375000Y5226232D01*
X40473376Y5127684D01*
X41163004Y4841326D01*
X41909720Y4840675D01*
X42599846Y5125829D01*
X43128316Y5653376D01*
X43414674Y6343004D01*
X43415325Y7089720D01*
X43130171Y7779846D01*
X42639875Y8271000D01*
X45497628Y8271000D01*
X46594314Y7174314D01*
X47041045Y6875818D01*
X47568000Y6771000D01*
X50750433Y6771000D01*
X50963376Y6557684D01*
X51653004Y6271326D01*
X52399720Y6270675D01*
X53089846Y6555829D01*
X53618316Y7083376D01*
X53904674Y7773004D01*
X53905325Y8519720D01*
X53620171Y9209846D01*
X53405000Y9425393D01*
X53405000Y13688000D01*
X53300182Y14214955D01*
X53001686Y14661686D01*
X52931686Y14731686D01*
X52484955Y15030182D01*
X51958000Y15135000D01*
X50749768Y15135000D01*
X50848316Y15233376D01*
X51134674Y15923004D01*
X51135325Y16669720D01*
X50850171Y17359846D01*
X50642480Y17567900D01*
X50848316Y17773376D01*
X51134674Y18463004D01*
X51134676Y18466280D01*
X55000675Y18466280D01*
X55285829Y17776154D01*
X55493520Y17568100D01*
X55287684Y17362624D01*
X55001326Y16672996D01*
X55000675Y15926280D01*
X55285829Y15236154D01*
X55493520Y15028100D01*
X55287684Y14822624D01*
X55001326Y14132996D01*
X55000675Y13386280D01*
X55285829Y12696154D01*
X55813376Y12167684D01*
X56503004Y11881326D01*
X57249720Y11880675D01*
X57939846Y12165829D01*
X58468316Y12693376D01*
X58754674Y13383004D01*
X58755325Y14129720D01*
X58470171Y14819846D01*
X58262480Y15027900D01*
X58468316Y15233376D01*
X58754674Y15923004D01*
X58755325Y16669720D01*
X58470171Y17359846D01*
X58262480Y17567900D01*
X58468316Y17773376D01*
X58754674Y18463004D01*
X58755325Y19209720D01*
X58470171Y19899846D01*
X57942624Y20428316D01*
X57252996Y20714674D01*
X56506280Y20715325D01*
X55816154Y20430171D01*
X55287684Y19902624D01*
X55001326Y19212996D01*
X55000675Y18466280D01*
X51134676Y18466280D01*
X51135325Y19209720D01*
X50850171Y19899846D01*
X50322624Y20428316D01*
X49632996Y20714674D01*
X48886280Y20715325D01*
X48196154Y20430171D01*
X47980607Y20215000D01*
X47948372Y20215000D01*
X47282039Y20881333D01*
X47444674Y21273004D01*
X47445325Y22019720D01*
X47160171Y22709846D01*
X46952480Y22917900D01*
X47158316Y23123376D01*
X47444674Y23813004D01*
X47445325Y24559720D01*
X47229937Y25081000D01*
X47980433Y25081000D01*
X48193376Y24867684D01*
X48883004Y24581326D01*
X49629720Y24580675D01*
X50319846Y24865829D01*
X50848316Y25393376D01*
X51134674Y26083004D01*
X51135325Y26829720D01*
X50850171Y27519846D01*
X50322624Y28048316D01*
X49632996Y28334674D01*
X48886280Y28335325D01*
X48196154Y28050171D01*
X47980607Y27835000D01*
X45878000Y27835000D01*
X45351045Y27730182D01*
X44904314Y27431686D01*
X44594314Y27121686D01*
X44295818Y26674955D01*
X44191000Y26148000D01*
X44191000Y25465567D01*
X43977684Y25252624D01*
X43691326Y24562996D01*
X43690675Y23816280D01*
X43975829Y23126154D01*
X44183520Y22918100D01*
X43977684Y22712624D01*
X43691326Y22022996D01*
X43690675Y21276280D01*
X43975829Y20586154D01*
X44259908Y20301578D01*
X44295818Y20121045D01*
X44594314Y19674314D01*
X46404314Y17864314D01*
X46694607Y17670347D01*
X46191045Y17570182D01*
X45744314Y17271686D01*
X43997628Y15525000D01*
X42839435Y15525000D01*
X43128316Y15813376D01*
X43414674Y16503004D01*
X43415325Y17249720D01*
X43130171Y17939846D01*
X42915000Y18155393D01*
X42915000Y21240660D01*
X43258316Y21583376D01*
X43544674Y22273004D01*
X43545325Y23019720D01*
X43260171Y23709846D01*
X42732624Y24238316D01*
X42042996Y24524674D01*
X41296280Y24525325D01*
X40606154Y24240171D01*
X40398100Y24032480D01*
X40192624Y24238316D01*
X39502996Y24524674D01*
X38756280Y24525325D01*
X38066154Y24240171D01*
X37965000Y24139194D01*
X37965000Y26770607D01*
X37965393Y26771000D01*
X42568000Y26771000D01*
X43094955Y26875818D01*
X43541686Y27174314D01*
X46528372Y30161000D01*
X47980433Y30161000D01*
X48193376Y29947684D01*
X48883004Y29661326D01*
X49629720Y29660675D01*
X50319846Y29945829D01*
X50535393Y30161000D01*
X55386232Y30161000D01*
X55287684Y30062624D01*
X55001326Y29372996D01*
X55000675Y28626280D01*
X55285829Y27936154D01*
X55493520Y27728100D01*
X55287684Y27522624D01*
X55001326Y26832996D01*
X55000675Y26086280D01*
X55285829Y25396154D01*
X55813376Y24867684D01*
X56503004Y24581326D01*
X57249720Y24580675D01*
X57939846Y24865829D01*
X58468316Y25393376D01*
X58754674Y26083004D01*
X58755325Y26829720D01*
X58470171Y27519846D01*
X58262480Y27727900D01*
X58468316Y27933376D01*
X58754674Y28623004D01*
X58755325Y29369720D01*
X58470171Y30059846D01*
X58262480Y30267900D01*
X58468316Y30473376D01*
X58754674Y31163004D01*
X58755325Y31909720D01*
X58470171Y32599846D01*
X57942624Y33128316D01*
X57252996Y33414674D01*
X56506280Y33415325D01*
X55816154Y33130171D01*
X55600607Y32915000D01*
X50535567Y32915000D01*
X50322624Y33128316D01*
X49632996Y33414674D01*
X48886280Y33415325D01*
X48196154Y33130171D01*
X47980607Y32915000D01*
X45958000Y32915000D01*
X45431045Y32810182D01*
X44984314Y32511686D01*
X41997628Y29525000D01*
X37965567Y29525000D01*
X37752624Y29738316D01*
X37062996Y30024674D01*
X36316280Y30025325D01*
X35626154Y29740171D01*
X35097684Y29212624D01*
X34811326Y28522996D01*
X34810675Y27776280D01*
X35095829Y27086154D01*
X35211000Y26970781D01*
X35211000Y23925567D01*
X34997684Y23712624D01*
X34711326Y23022996D01*
X34710675Y22276280D01*
X34995829Y21586154D01*
X35081000Y21500834D01*
X35081000Y18155567D01*
X34867684Y17942624D01*
X34581326Y17252996D01*
X34580675Y16506280D01*
X34865829Y15816154D01*
X35156474Y15525000D01*
X32679435Y15525000D01*
X32968316Y15813376D01*
X33254674Y16503004D01*
X33255325Y17249720D01*
X32970171Y17939846D01*
X32755000Y18155393D01*
X32755000Y21240660D01*
X33098316Y21583376D01*
X33384674Y22273004D01*
X33385325Y23019720D01*
X33100171Y23709846D01*
X32572624Y24238316D01*
X32242689Y24375317D01*
X32581686Y24714314D01*
X32880182Y25161045D01*
X32985000Y25688000D01*
X32985000Y26870433D01*
X33198316Y27083376D01*
X33484674Y27773004D01*
X33485325Y28519720D01*
X33200171Y29209846D01*
X32672624Y29738316D01*
X31982996Y30024674D01*
X31236280Y30025325D01*
X30546154Y29740171D01*
X30338100Y29532480D01*
X30132624Y29738316D01*
X29442996Y30024674D01*
X28696280Y30025325D01*
X28006154Y29740171D01*
X27790607Y29525000D01*
X25568000Y29525000D01*
X25041045Y29420182D01*
X24594314Y29121686D01*
X20374314Y24901686D01*
X20075818Y24454955D01*
X19971000Y23928000D01*
X19971000Y23925567D01*
X19757684Y23712624D01*
X19471326Y23022996D01*
X19470675Y22276280D01*
X19755829Y21586154D01*
X20283376Y21057684D01*
X20973004Y20771326D01*
X21719720Y20770675D01*
X22409846Y21055829D01*
X22617900Y21263520D01*
X22823376Y21057684D01*
X23513004Y20771326D01*
X24259720Y20770675D01*
X24949846Y21055829D01*
X25051000Y21156806D01*
X25051000Y16612372D01*
X24541686Y17121686D01*
X24094955Y17420182D01*
X23568000Y17525000D01*
X22445000Y17525000D01*
X22445000Y18648000D01*
X22340182Y19174955D01*
X22041686Y19621686D01*
X21594955Y19920182D01*
X21068000Y20025000D01*
X16845567Y20025000D01*
X16632624Y20238316D01*
X15942996Y20524674D01*
X15196280Y20525325D01*
X14506154Y20240171D01*
X13977684Y19712624D01*
X13691326Y19022996D01*
X13690675Y18276280D01*
X13975829Y17586154D01*
X14503376Y17057684D01*
X15193004Y16771326D01*
X15939720Y16770675D01*
X16629846Y17055829D01*
X16845393Y17271000D01*
X19536162Y17271000D01*
X19477684Y17212624D01*
X19191326Y16522996D01*
X19190675Y15776280D01*
X19475829Y15086154D01*
X20003376Y14557684D01*
X20693004Y14271326D01*
X21439720Y14270675D01*
X22129846Y14555829D01*
X22345393Y14771000D01*
X22997628Y14771000D01*
X23191000Y14577628D01*
X23191000Y12648000D01*
X23295818Y12121045D01*
X23594314Y11674314D01*
X24594314Y10674314D01*
X25041045Y10375818D01*
X25568000Y10271000D01*
X33777628Y10271000D01*
X35081000Y8967628D01*
X35081000Y7995567D01*
X34867684Y7782624D01*
X34581326Y7092996D01*
X34580675Y6346280D01*
X34865829Y5656154D01*
X35393376Y5127684D01*
X36083004Y4841326D01*
X36813317Y4840689D01*
X34997628Y3025000D01*
X31392372Y3025000D01*
X32351686Y3984314D01*
X32650182Y4431045D01*
X32755000Y4958000D01*
X32755000Y5440433D01*
X32968316Y5653376D01*
X33254674Y6343004D01*
X33255325Y7089720D01*
X32970171Y7779846D01*
X32442624Y8308316D01*
X31752996Y8594674D01*
X31006280Y8595325D01*
X30316154Y8310171D01*
X30108100Y8102480D01*
X29902624Y8308316D01*
X29212996Y8594674D01*
X28908432Y8594940D01*
X28001686Y9501686D01*
X27554955Y9800182D01*
X27028000Y9905000D01*
X22345567Y9905000D01*
X22132624Y10118316D01*
X21442996Y10404674D01*
X20696280Y10405325D01*
X20006154Y10120171D01*
X19477684Y9592624D01*
X19191326Y8902996D01*
X19190675Y8156280D01*
X19475829Y7466154D01*
X19616736Y7325000D01*
X17059768Y7325000D01*
X17158316Y7423376D01*
X17444674Y8113004D01*
X17445325Y8859720D01*
X17160171Y9549846D01*
X16952480Y9757900D01*
X17158316Y9963376D01*
X17444674Y10653004D01*
X17445325Y11399720D01*
X17160171Y12089846D01*
X16632624Y12618316D01*
X15942996Y12904674D01*
X15196280Y12905325D01*
X14506154Y12620171D01*
X14410816Y12525000D01*
X11559768Y12525000D01*
X11658316Y12623376D01*
X11944674Y13313004D01*
X11945325Y14059720D01*
X11660171Y14749846D01*
X11132624Y15278316D01*
X10442996Y15564674D01*
X9696280Y15565325D01*
X9006154Y15280171D01*
X8790607Y15065000D01*
X6933000Y15065000D01*
X6406045Y14960182D01*
X5959314Y14661686D01*
X3094314Y11796686D01*
X2795818Y11349955D01*
X2691000Y10823000D01*
X2691000Y5425567D01*
X2477684Y5212624D01*
X2191326Y4522996D01*
X2190675Y3776280D01*
X2475829Y3086154D01*
X3003376Y2557684D01*
X3693004Y2271326D01*
X4439720Y2270675D01*
X5129846Y2555829D01*
X5345393Y2771000D01*
X6997628Y2771000D01*
X9094314Y674314D01*
X9541045Y375818D01*
X10037836Y277000D01*
X277000Y277000D01*
X277000Y22276280D01*
X1690675Y22276280D01*
X1975829Y21586154D01*
X2503376Y21057684D01*
X3193004Y20771326D01*
X3939720Y20770675D01*
X4629846Y21055829D01*
X4837900Y21263520D01*
X5043376Y21057684D01*
X5733004Y20771326D01*
X6479720Y20770675D01*
X7169846Y21055829D01*
X7377900Y21263520D01*
X7583376Y21057684D01*
X8273004Y20771326D01*
X9019720Y20770675D01*
X9709846Y21055829D01*
X9917900Y21263520D01*
X10123376Y21057684D01*
X10813004Y20771326D01*
X11559720Y20770675D01*
X12249846Y21055829D01*
X12457900Y21263520D01*
X12663376Y21057684D01*
X13353004Y20771326D01*
X14099720Y20770675D01*
X14789846Y21055829D01*
X14997900Y21263520D01*
X15203376Y21057684D01*
X15893004Y20771326D01*
X16639720Y20770675D01*
X17329846Y21055829D01*
X17858316Y21583376D01*
X18144674Y22273004D01*
X18145325Y23019720D01*
X17860171Y23709846D01*
X17645000Y23925393D01*
X17645000Y25817628D01*
X18569942Y26742570D01*
X19246297Y26877105D01*
X19855239Y27283988D01*
X20262122Y27892930D01*
X20405000Y28611227D01*
X20405000Y28684773D01*
X20262122Y29403070D01*
X19855239Y30012012D01*
X19246297Y30418895D01*
X18528000Y30561773D01*
X17809703Y30418895D01*
X17258000Y30050258D01*
X16706297Y30418895D01*
X15988000Y30561773D01*
X15269703Y30418895D01*
X14718000Y30050258D01*
X14166297Y30418895D01*
X13448000Y30561773D01*
X12729703Y30418895D01*
X12178000Y30050258D01*
X11626297Y30418895D01*
X10908000Y30561773D01*
X10189703Y30418895D01*
X9638000Y30050258D01*
X9086297Y30418895D01*
X8368000Y30561773D01*
X7649703Y30418895D01*
X7098000Y30050258D01*
X6546297Y30418895D01*
X5828000Y30561773D01*
X5109703Y30418895D01*
X4500761Y30012012D01*
X4093878Y29403070D01*
X3959343Y28726715D01*
X2594314Y27361686D01*
X2295818Y26914955D01*
X2191000Y26388000D01*
X2191000Y23925567D01*
X1977684Y23712624D01*
X1691326Y23022996D01*
X1690675Y22276280D01*
X277000Y22276280D01*
X277000Y34267000D01*
X59159000Y34267000D01*
X59159000Y277000D01*
M02*
