M48
;DRILL file {KiCad 4.0.7-e2-6376~61~ubuntu18.04.1} date Sat May 19 10:45:28 2018
;FORMAT={-:-/ absolute / metric / decimal}
FMAT,2
METRIC,TZ
T1C0.800
%
G90
G05
M71
T1
X4.076Y-17.314
X4.264Y-21.844
X4.572Y-1.778
X4.572Y-11.938
X6.616Y-17.314
X6.764Y-21.844
X9.156Y-17.314
X9.264Y-21.844
X10.414Y-6.858
X10.414Y-9.398
X10.414Y-11.938
X11.696Y-17.314
X11.764Y-21.844
X14.236Y-17.314
X14.264Y-21.844
X16.51Y-1.684
X16.51Y-4.184
X16.51Y-6.684
X16.51Y-9.184
X16.51Y-11.684
X16.764Y-21.844
X16.776Y-17.314
X19.316Y-17.314
X21.856Y-17.314
X22.098Y-23.876
X22.352Y-1.898
X22.352Y-4.398
X22.352Y-6.898
X22.352Y-9.398
X24.396Y-17.314
X26.936Y-17.314
X29.346Y-1.384
X29.346Y-11.544
X29.476Y-17.314
X29.576Y-22.814
X31.886Y-1.384
X31.886Y-11.544
X32.016Y-17.314
X32.076Y-22.814
X34.426Y-1.384
X34.426Y-11.544
X34.556Y-17.314
X34.576Y-22.814
X36.966Y-1.384
X36.966Y-11.544
X37.076Y-22.814
X37.096Y-17.314
X39.506Y-1.384
X39.506Y-11.544
X39.636Y-17.314
X42.046Y-1.384
X42.046Y-11.544
X42.176Y-17.314
X46.228Y-13.462
X46.228Y-16.002
X50.038Y-5.08
X50.038Y-7.62
X50.038Y-10.16
X50.038Y-12.7
X50.038Y-15.24
X50.038Y-17.78
X50.038Y-20.32
X50.038Y-22.86
X52.872Y0.508
X55.372Y0.508
X57.658Y-5.08
X57.658Y-7.62
X57.658Y-10.16
X57.658Y-12.7
X57.658Y-15.24
X57.658Y-17.78
X57.658Y-20.32
X57.658Y-22.86
T0
M30
