G04 #@! TF.FileFunction,Copper,L2,Bot,Signal*
%FSLAX46Y46*%
G04 Gerber Fmt 4.6, Leading zero omitted, Abs format (unit mm)*
G04 Created by KiCad (PCBNEW 4.0.7-e2-6376~61~ubuntu18.04.1) date Sat May 19 13:00:04 2018*
%MOMM*%
%LPD*%
G01*
G04 APERTURE LIST*
%ADD10C,0.100000*%
%ADD11C,2.000000*%
%ADD12C,1.000000*%
%ADD13C,0.554000*%
G04 APERTURE END LIST*
D10*
D11*
X42046000Y14618000D03*
X39506000Y14618000D03*
X36966000Y14618000D03*
X34426000Y14618000D03*
X31886000Y14618000D03*
X29346000Y14618000D03*
X29346000Y24778000D03*
X31886000Y24778000D03*
X34426000Y24778000D03*
X36966000Y24778000D03*
X39506000Y24778000D03*
X42046000Y24778000D03*
X4076000Y8848000D03*
X6616000Y8848000D03*
X9156000Y8848000D03*
X11696000Y8848000D03*
X14236000Y8848000D03*
X16776000Y8848000D03*
X19316000Y8848000D03*
X21856000Y8848000D03*
X24396000Y8848000D03*
X26936000Y8848000D03*
X29476000Y8848000D03*
X32016000Y8848000D03*
X34556000Y8848000D03*
X37096000Y8848000D03*
X39636000Y8848000D03*
X42176000Y8848000D03*
X50038000Y3302000D03*
X50038000Y5842000D03*
X50038000Y18542000D03*
X50038000Y21082000D03*
X50038000Y8382000D03*
X50038000Y10922000D03*
X50038000Y16002000D03*
X50038000Y13462000D03*
X57658000Y21082000D03*
X57658000Y18542000D03*
X57658000Y16002000D03*
X57658000Y13462000D03*
X57658000Y10922000D03*
X57658000Y8382000D03*
X57658000Y5842000D03*
X57658000Y3302000D03*
X46228000Y12700000D03*
X46228000Y10160000D03*
X4572000Y24384000D03*
X4572000Y14224000D03*
X10414000Y16764000D03*
X10414000Y14224000D03*
X10414000Y19304000D03*
X55372000Y26670000D03*
X52872000Y26670000D03*
X29576000Y3348000D03*
X32076000Y3348000D03*
X34576000Y3348000D03*
X37076000Y3348000D03*
X16510000Y14478000D03*
X16510000Y16978000D03*
X16510000Y19478000D03*
X16510000Y21978000D03*
X16510000Y24478000D03*
X22352000Y16764000D03*
X22352000Y19264000D03*
X22352000Y21764000D03*
X22352000Y24264000D03*
X16764000Y4318000D03*
X14264000Y4318000D03*
X11764000Y4318000D03*
X9264000Y4318000D03*
X6764000Y4318000D03*
X4264000Y4318000D03*
X22098000Y2286000D03*
D12*
X36852000Y21844000D02*
X36852000Y19834000D01*
X24638000Y16764000D02*
X22352000Y16764000D01*
X26670000Y18796000D02*
X24638000Y16764000D01*
X35814000Y18796000D02*
X26670000Y18796000D01*
X36852000Y19834000D02*
X35814000Y18796000D01*
X22352000Y16764000D02*
X20066000Y14478000D01*
X20066000Y14478000D02*
X16510000Y14478000D01*
X52872000Y26670000D02*
X52872000Y23916000D01*
X52872000Y23916000D02*
X50038000Y21082000D01*
X46482000Y21844000D02*
X37338000Y21844000D01*
X37338000Y21844000D02*
X37084000Y21844000D01*
X37084000Y21844000D02*
X36852000Y21844000D01*
X36852000Y21844000D02*
X36966000Y21958000D01*
X46482000Y21844000D02*
X49276000Y21844000D01*
X49276000Y21844000D02*
X50038000Y21082000D01*
X36966000Y21958000D02*
X36966000Y24778000D01*
X4572000Y24384000D02*
X8382000Y24384000D01*
X39506000Y26788000D02*
X39506000Y24778000D01*
X36830000Y29464000D02*
X39506000Y26788000D01*
X13462000Y29464000D02*
X36830000Y29464000D01*
X8382000Y24384000D02*
X13462000Y29464000D01*
X4572000Y24384000D02*
X4576000Y20673000D01*
X7441000Y17808000D02*
X10414000Y16764000D01*
X4576000Y20673000D02*
X7441000Y17808000D01*
X14304000Y4318000D02*
X14304000Y8780000D01*
X14304000Y8780000D02*
X14236000Y8848000D01*
X11804000Y4318000D02*
X11804000Y8740000D01*
X11804000Y8740000D02*
X11696000Y8848000D01*
X9304000Y4318000D02*
X9304000Y8700000D01*
X9304000Y8700000D02*
X9156000Y8848000D01*
X6804000Y4318000D02*
X6804000Y8660000D01*
X6804000Y8660000D02*
X6616000Y8848000D01*
X4304000Y4318000D02*
X4304000Y8620000D01*
X4304000Y8620000D02*
X4076000Y8848000D01*
X21856000Y8848000D02*
X21856000Y6592000D01*
X25100000Y3348000D02*
X29576000Y3348000D01*
X21856000Y6592000D02*
X25100000Y3348000D01*
X24396000Y8848000D02*
X24396000Y6592000D01*
X32076000Y4754000D02*
X32076000Y3348000D01*
X31242000Y5588000D02*
X32076000Y4754000D01*
X25400000Y5588000D02*
X31242000Y5588000D01*
X24396000Y6592000D02*
X25400000Y5588000D01*
X50038000Y3302000D02*
X57658000Y3302000D01*
X37196000Y3348000D02*
X43076000Y3348000D01*
X46482000Y3302000D02*
X50038000Y3302000D01*
X43076000Y3348000D02*
X46482000Y3302000D01*
X37096000Y8848000D02*
X37096000Y3448000D01*
X37096000Y3448000D02*
X37196000Y3348000D01*
X36966000Y14618000D02*
X36966000Y8978000D01*
X36966000Y8978000D02*
X37096000Y8848000D01*
X10414000Y19304000D02*
X16210000Y19332000D01*
X16210000Y19332000D02*
X16330000Y19452000D01*
X16510000Y21978000D02*
X13836000Y21978000D01*
X31886000Y26788000D02*
X31886000Y24778000D01*
X31242000Y27432000D02*
X31886000Y26788000D01*
X14478000Y27432000D02*
X31242000Y27432000D01*
X13970000Y26924000D02*
X14478000Y27432000D01*
X13970000Y22112000D02*
X13970000Y26924000D01*
X13836000Y21978000D02*
X13970000Y22112000D01*
X16510000Y24478000D02*
X22138000Y24478000D01*
X22138000Y24478000D02*
X22352000Y24264000D01*
X22044000Y24532000D02*
X22084000Y24492000D01*
X42046000Y14618000D02*
X42046000Y8978000D01*
X42046000Y8978000D02*
X42176000Y8848000D01*
X39506000Y14618000D02*
X39506000Y8978000D01*
X39506000Y8978000D02*
X39636000Y8848000D01*
X31886000Y14618000D02*
X31886000Y8978000D01*
X31886000Y8978000D02*
X32016000Y8848000D01*
X29346000Y14618000D02*
X29346000Y8978000D01*
X29346000Y8978000D02*
X29476000Y8848000D01*
X22352000Y21764000D02*
X24812000Y21764000D01*
X27826000Y24778000D02*
X29346000Y24778000D01*
X24812000Y21764000D02*
X27826000Y24778000D01*
X50038000Y18542000D02*
X47244000Y18796000D01*
X26936000Y16708000D02*
X26936000Y8848000D01*
X27576000Y17348000D02*
X26936000Y16708000D01*
X45076000Y17348000D02*
X27576000Y17348000D01*
X47244000Y18796000D02*
X45076000Y17348000D01*
X46228000Y10160000D02*
X48260000Y10160000D01*
X48260000Y10160000D02*
X50038000Y8382000D01*
X46228000Y12700000D02*
X46736000Y12700000D01*
X46736000Y12700000D02*
X50038000Y16002000D01*
X16804000Y4318000D02*
X16804000Y8820000D01*
X16804000Y8820000D02*
X16776000Y8848000D01*
D13*
G36*
X60008000Y31052000D02*
X952000Y31052000D01*
X952000Y24755720D01*
X2694675Y24755720D01*
X2979829Y25445846D01*
X3507376Y25974316D01*
X4197004Y26260674D01*
X4943720Y26261325D01*
X5633846Y25976171D01*
X5849393Y25761000D01*
X7811628Y25761000D01*
X12488314Y30437686D01*
X12935045Y30736182D01*
X13462000Y30841000D01*
X36830000Y30841000D01*
X37356955Y30736182D01*
X37803686Y30437686D01*
X40479686Y27761686D01*
X40778182Y27314955D01*
X40883000Y26788000D01*
X40883000Y26269768D01*
X40981376Y26368316D01*
X41671004Y26654674D01*
X42417720Y26655325D01*
X43107846Y26370171D01*
X43636316Y25842624D01*
X43922674Y25152996D01*
X43923325Y24406280D01*
X43638171Y23716154D01*
X43143882Y23221000D01*
X49276000Y23221000D01*
X49802955Y23116182D01*
X49995893Y22987265D01*
X51495000Y24486372D01*
X51495000Y25392433D01*
X51281684Y25605376D01*
X50995326Y26295004D01*
X50994675Y27041720D01*
X51279829Y27731846D01*
X51807376Y28260316D01*
X52497004Y28546674D01*
X53243720Y28547325D01*
X53933846Y28262171D01*
X54462316Y27734624D01*
X54748674Y27044996D01*
X54749325Y26298280D01*
X54464171Y25608154D01*
X54249000Y25392607D01*
X54249000Y23916000D01*
X54144182Y23389045D01*
X53845686Y22942314D01*
X51915062Y21011690D01*
X51915325Y20710280D01*
X51630171Y20020154D01*
X51422480Y19812100D01*
X51628316Y19606624D01*
X51914674Y18916996D01*
X51915325Y18170280D01*
X51630171Y17480154D01*
X51422480Y17272100D01*
X51628316Y17066624D01*
X51914674Y16376996D01*
X51914676Y16373720D01*
X55780675Y16373720D01*
X56065829Y17063846D01*
X56273520Y17271900D01*
X56067684Y17477376D01*
X55781326Y18167004D01*
X55780675Y18913720D01*
X56065829Y19603846D01*
X56273520Y19811900D01*
X56067684Y20017376D01*
X55781326Y20707004D01*
X55780675Y21453720D01*
X56065829Y22143846D01*
X56593376Y22672316D01*
X57283004Y22958674D01*
X58029720Y22959325D01*
X58719846Y22674171D01*
X59248316Y22146624D01*
X59534674Y21456996D01*
X59535325Y20710280D01*
X59250171Y20020154D01*
X59042480Y19812100D01*
X59248316Y19606624D01*
X59534674Y18916996D01*
X59535325Y18170280D01*
X59250171Y17480154D01*
X59042480Y17272100D01*
X59248316Y17066624D01*
X59534674Y16376996D01*
X59535325Y15630280D01*
X59250171Y14940154D01*
X58722624Y14411684D01*
X58032996Y14125326D01*
X57286280Y14124675D01*
X56596154Y14409829D01*
X56067684Y14937376D01*
X55781326Y15627004D01*
X55780675Y16373720D01*
X51914676Y16373720D01*
X51915325Y15630280D01*
X51630171Y14940154D01*
X51102624Y14411684D01*
X50412996Y14125326D01*
X50108432Y14125060D01*
X47960043Y11976671D01*
X47820171Y11638154D01*
X47719194Y11537000D01*
X48260000Y11537000D01*
X48786955Y11432182D01*
X49233686Y11133686D01*
X50108310Y10259062D01*
X50409720Y10259325D01*
X51099846Y9974171D01*
X51628316Y9446624D01*
X51914674Y8756996D01*
X51915325Y8010280D01*
X51630171Y7320154D01*
X51102624Y6791684D01*
X50412996Y6505326D01*
X49666280Y6504675D01*
X48976154Y6789829D01*
X48447684Y7317376D01*
X48161326Y8007004D01*
X48161060Y8311568D01*
X47689628Y8783000D01*
X47505567Y8783000D01*
X47292624Y8569684D01*
X46602996Y8283326D01*
X45856280Y8282675D01*
X45166154Y8567829D01*
X44637684Y9095376D01*
X44351326Y9785004D01*
X44350675Y10531720D01*
X44635829Y11221846D01*
X44843520Y11429900D01*
X44637684Y11635376D01*
X44351326Y12325004D01*
X44350675Y13071720D01*
X44635829Y13761846D01*
X45163376Y14290316D01*
X45853004Y14576674D01*
X46599720Y14577325D01*
X46646588Y14557960D01*
X48160938Y16072310D01*
X48160675Y16373720D01*
X48445829Y17063846D01*
X48653520Y17271900D01*
X48638880Y17286514D01*
X47604053Y17380590D01*
X45840797Y16202917D01*
X45715609Y16151091D01*
X45602955Y16075818D01*
X45469810Y16049334D01*
X45344376Y15997406D01*
X45208885Y15997432D01*
X45076000Y15971000D01*
X43347435Y15971000D01*
X43636316Y15682624D01*
X43922674Y14992996D01*
X43923325Y14246280D01*
X43638171Y13556154D01*
X43423000Y13340607D01*
X43423000Y10255340D01*
X43766316Y9912624D01*
X44052674Y9222996D01*
X44053325Y8476280D01*
X43768171Y7786154D01*
X43240624Y7257684D01*
X42550996Y6971326D01*
X41804280Y6970675D01*
X41114154Y7255829D01*
X40906100Y7463520D01*
X40700624Y7257684D01*
X40010996Y6971326D01*
X39264280Y6970675D01*
X38574154Y7255829D01*
X38473000Y7356806D01*
X38473000Y4725000D01*
X43076000Y4725000D01*
X43085287Y4723153D01*
X43094595Y4724874D01*
X46491267Y4679000D01*
X48760433Y4679000D01*
X48973376Y4892316D01*
X49663004Y5178674D01*
X50409720Y5179325D01*
X51099846Y4894171D01*
X51315393Y4679000D01*
X56166232Y4679000D01*
X56067684Y4777376D01*
X55781326Y5467004D01*
X55780675Y6213720D01*
X56065829Y6903846D01*
X56273520Y7111900D01*
X56067684Y7317376D01*
X55781326Y8007004D01*
X55780675Y8753720D01*
X56065829Y9443846D01*
X56593376Y9972316D01*
X57283004Y10258674D01*
X58029720Y10259325D01*
X58719846Y9974171D01*
X59248316Y9446624D01*
X59534674Y8756996D01*
X59535325Y8010280D01*
X59250171Y7320154D01*
X59042480Y7112100D01*
X59248316Y6906624D01*
X59534674Y6216996D01*
X59535325Y5470280D01*
X59250171Y4780154D01*
X59042480Y4572100D01*
X59248316Y4366624D01*
X59534674Y3676996D01*
X59535325Y2930280D01*
X59250171Y2240154D01*
X58722624Y1711684D01*
X58032996Y1425326D01*
X57286280Y1424675D01*
X56596154Y1709829D01*
X56380607Y1925000D01*
X51315567Y1925000D01*
X51102624Y1711684D01*
X50412996Y1425326D01*
X49666280Y1424675D01*
X48976154Y1709829D01*
X48760607Y1925000D01*
X46482000Y1925000D01*
X46472713Y1926847D01*
X46463405Y1925126D01*
X43066734Y1971000D01*
X38353567Y1971000D01*
X38140624Y1757684D01*
X37450996Y1471326D01*
X36704280Y1470675D01*
X36014154Y1755829D01*
X35485684Y2283376D01*
X35199326Y2973004D01*
X35198675Y3719720D01*
X35483829Y4409846D01*
X35719000Y4645428D01*
X35719000Y7570433D01*
X35505684Y7783376D01*
X35219326Y8473004D01*
X35218675Y9219720D01*
X35503829Y9909846D01*
X35589000Y9995166D01*
X35589000Y13340433D01*
X35375684Y13553376D01*
X35089326Y14243004D01*
X35088675Y14989720D01*
X35373829Y15679846D01*
X35664474Y15971000D01*
X33187435Y15971000D01*
X33476316Y15682624D01*
X33762674Y14992996D01*
X33763325Y14246280D01*
X33478171Y13556154D01*
X33263000Y13340607D01*
X33263000Y10255340D01*
X33606316Y9912624D01*
X33892674Y9222996D01*
X33893325Y8476280D01*
X33608171Y7786154D01*
X33080624Y7257684D01*
X32390996Y6971326D01*
X31644280Y6970675D01*
X30954154Y7255829D01*
X30746100Y7463520D01*
X30540624Y7257684D01*
X29850996Y6971326D01*
X29104280Y6970675D01*
X28414154Y7255829D01*
X28206100Y7463520D01*
X28000624Y7257684D01*
X27310996Y6971326D01*
X26564280Y6970675D01*
X25874154Y7255829D01*
X25773000Y7356806D01*
X25773000Y7162372D01*
X25970372Y6965000D01*
X31242000Y6965000D01*
X31768955Y6860182D01*
X32215686Y6561686D01*
X33049686Y5727686D01*
X33348182Y5280955D01*
X33453000Y4754000D01*
X33453000Y4625567D01*
X33666316Y4412624D01*
X33952674Y3722996D01*
X33953325Y2976280D01*
X33668171Y2286154D01*
X33140624Y1757684D01*
X32450996Y1471326D01*
X31704280Y1470675D01*
X31014154Y1755829D01*
X30826135Y1943520D01*
X30640624Y1757684D01*
X29950996Y1471326D01*
X29204280Y1470675D01*
X28514154Y1755829D01*
X28298607Y1971000D01*
X25100000Y1971000D01*
X24573045Y2075818D01*
X24126314Y2374314D01*
X20882314Y5618314D01*
X20583818Y6065045D01*
X20479000Y6592000D01*
X20479000Y7570433D01*
X20265684Y7783376D01*
X19979326Y8473004D01*
X19978675Y9219720D01*
X20263829Y9909846D01*
X20791376Y10438316D01*
X21481004Y10724674D01*
X22227720Y10725325D01*
X22917846Y10440171D01*
X23125900Y10232480D01*
X23331376Y10438316D01*
X24021004Y10724674D01*
X24767720Y10725325D01*
X25457846Y10440171D01*
X25559000Y10339194D01*
X25559000Y15755110D01*
X25164955Y15491818D01*
X24638000Y15387000D01*
X23629567Y15387000D01*
X23416624Y15173684D01*
X22726996Y14887326D01*
X22422432Y14887060D01*
X21039686Y13504314D01*
X20592955Y13205818D01*
X20066000Y13101000D01*
X17787567Y13101000D01*
X17574624Y12887684D01*
X16884996Y12601326D01*
X16138280Y12600675D01*
X15448154Y12885829D01*
X14919684Y13413376D01*
X14633326Y14103004D01*
X14632675Y14849720D01*
X14917829Y15539846D01*
X15445376Y16068316D01*
X16135004Y16354674D01*
X16881720Y16355325D01*
X17571846Y16070171D01*
X17787393Y15855000D01*
X19495628Y15855000D01*
X20474938Y16834310D01*
X20474675Y17135720D01*
X20759829Y17825846D01*
X21287376Y18354316D01*
X21977004Y18640674D01*
X22723720Y18641325D01*
X23413846Y18356171D01*
X23629393Y18141000D01*
X24067628Y18141000D01*
X25696314Y19769686D01*
X26143045Y20068182D01*
X26670000Y20173000D01*
X35243628Y20173000D01*
X35475000Y20404372D01*
X35475000Y21844000D01*
X35579818Y22370955D01*
X35589000Y22384697D01*
X35589000Y23500433D01*
X35375684Y23713376D01*
X35089326Y24403004D01*
X35088675Y25149720D01*
X35373829Y25839846D01*
X35901376Y26368316D01*
X36591004Y26654674D01*
X37337720Y26655325D01*
X37940272Y26406356D01*
X36259628Y28087000D01*
X32534372Y28087000D01*
X32859686Y27761686D01*
X33158182Y27314955D01*
X33263000Y26788000D01*
X33263000Y26055567D01*
X33476316Y25842624D01*
X33762674Y25152996D01*
X33763325Y24406280D01*
X33478171Y23716154D01*
X32950624Y23187684D01*
X32260996Y22901326D01*
X31514280Y22900675D01*
X30824154Y23185829D01*
X30616100Y23393520D01*
X30410624Y23187684D01*
X29720996Y22901326D01*
X28974280Y22900675D01*
X28284154Y23185829D01*
X28232633Y23237261D01*
X25785686Y20790314D01*
X25338955Y20491818D01*
X24812000Y20387000D01*
X23629567Y20387000D01*
X23416624Y20173684D01*
X22726996Y19887326D01*
X21980280Y19886675D01*
X21290154Y20171829D01*
X20761684Y20699376D01*
X20475326Y21389004D01*
X20474675Y22135720D01*
X20759829Y22825846D01*
X20947520Y23013865D01*
X20860232Y23101000D01*
X18041838Y23101000D01*
X18100316Y23042624D01*
X18386674Y22352996D01*
X18387325Y21606280D01*
X18102171Y20916154D01*
X17914480Y20728135D01*
X18100316Y20542624D01*
X18386674Y19852996D01*
X18387325Y19106280D01*
X18102171Y18416154D01*
X17574624Y17887684D01*
X16884996Y17601326D01*
X16138280Y17600675D01*
X15448154Y17885829D01*
X15382881Y17950988D01*
X11898600Y17934156D01*
X12004316Y17828624D01*
X12290674Y17138996D01*
X12291325Y16392280D01*
X12006171Y15702154D01*
X11478624Y15173684D01*
X10788996Y14887326D01*
X10042280Y14886675D01*
X9352154Y15171829D01*
X8823684Y15699376D01*
X8744133Y15890957D01*
X6984765Y16508778D01*
X6951710Y16528326D01*
X6914045Y16535818D01*
X6721560Y16664432D01*
X6522303Y16782269D01*
X6499245Y16812978D01*
X6467314Y16834314D01*
X3602314Y19699314D01*
X3453444Y19922113D01*
X3304387Y20144674D01*
X3304239Y20145415D01*
X3303818Y20146045D01*
X3251506Y20409034D01*
X3199001Y20671516D01*
X3196378Y23105057D01*
X2981684Y23319376D01*
X2695326Y24009004D01*
X2694675Y24755720D01*
X952000Y24755720D01*
X952000Y9219720D01*
X2198675Y9219720D01*
X2483829Y9909846D01*
X3011376Y10438316D01*
X3701004Y10724674D01*
X4447720Y10725325D01*
X5137846Y10440171D01*
X5345900Y10232480D01*
X5551376Y10438316D01*
X6241004Y10724674D01*
X6987720Y10725325D01*
X7677846Y10440171D01*
X7885900Y10232480D01*
X8091376Y10438316D01*
X8781004Y10724674D01*
X9527720Y10725325D01*
X10217846Y10440171D01*
X10425900Y10232480D01*
X10631376Y10438316D01*
X11321004Y10724674D01*
X12067720Y10725325D01*
X12757846Y10440171D01*
X12965900Y10232480D01*
X13171376Y10438316D01*
X13861004Y10724674D01*
X14607720Y10725325D01*
X15297846Y10440171D01*
X15505900Y10232480D01*
X15711376Y10438316D01*
X16401004Y10724674D01*
X17147720Y10725325D01*
X17837846Y10440171D01*
X18366316Y9912624D01*
X18652674Y9222996D01*
X18653325Y8476280D01*
X18368171Y7786154D01*
X18181000Y7598656D01*
X18181000Y5555637D01*
X18354316Y5382624D01*
X18640674Y4692996D01*
X18641325Y3946280D01*
X18356171Y3256154D01*
X17828624Y2727684D01*
X17138996Y2441326D01*
X16392280Y2440675D01*
X15702154Y2725829D01*
X15514135Y2913520D01*
X15328624Y2727684D01*
X14638996Y2441326D01*
X13892280Y2440675D01*
X13202154Y2725829D01*
X13014135Y2913520D01*
X12828624Y2727684D01*
X12138996Y2441326D01*
X11392280Y2440675D01*
X10702154Y2725829D01*
X10514135Y2913520D01*
X10328624Y2727684D01*
X9638996Y2441326D01*
X8892280Y2440675D01*
X8202154Y2725829D01*
X8014135Y2913520D01*
X7828624Y2727684D01*
X7138996Y2441326D01*
X6392280Y2440675D01*
X5702154Y2725829D01*
X5514135Y2913520D01*
X5328624Y2727684D01*
X4638996Y2441326D01*
X3892280Y2440675D01*
X3202154Y2725829D01*
X2673684Y3253376D01*
X2387326Y3943004D01*
X2386675Y4689720D01*
X2671829Y5379846D01*
X2927000Y5635463D01*
X2927000Y7342831D01*
X2485684Y7783376D01*
X2199326Y8473004D01*
X2198675Y9219720D01*
X952000Y9219720D01*
X952000Y952000D01*
X60008000Y952000D01*
X60008000Y31052000D01*
X60008000Y31052000D01*
G37*
X60008000Y31052000D02*
X952000Y31052000D01*
X952000Y24755720D01*
X2694675Y24755720D01*
X2979829Y25445846D01*
X3507376Y25974316D01*
X4197004Y26260674D01*
X4943720Y26261325D01*
X5633846Y25976171D01*
X5849393Y25761000D01*
X7811628Y25761000D01*
X12488314Y30437686D01*
X12935045Y30736182D01*
X13462000Y30841000D01*
X36830000Y30841000D01*
X37356955Y30736182D01*
X37803686Y30437686D01*
X40479686Y27761686D01*
X40778182Y27314955D01*
X40883000Y26788000D01*
X40883000Y26269768D01*
X40981376Y26368316D01*
X41671004Y26654674D01*
X42417720Y26655325D01*
X43107846Y26370171D01*
X43636316Y25842624D01*
X43922674Y25152996D01*
X43923325Y24406280D01*
X43638171Y23716154D01*
X43143882Y23221000D01*
X49276000Y23221000D01*
X49802955Y23116182D01*
X49995893Y22987265D01*
X51495000Y24486372D01*
X51495000Y25392433D01*
X51281684Y25605376D01*
X50995326Y26295004D01*
X50994675Y27041720D01*
X51279829Y27731846D01*
X51807376Y28260316D01*
X52497004Y28546674D01*
X53243720Y28547325D01*
X53933846Y28262171D01*
X54462316Y27734624D01*
X54748674Y27044996D01*
X54749325Y26298280D01*
X54464171Y25608154D01*
X54249000Y25392607D01*
X54249000Y23916000D01*
X54144182Y23389045D01*
X53845686Y22942314D01*
X51915062Y21011690D01*
X51915325Y20710280D01*
X51630171Y20020154D01*
X51422480Y19812100D01*
X51628316Y19606624D01*
X51914674Y18916996D01*
X51915325Y18170280D01*
X51630171Y17480154D01*
X51422480Y17272100D01*
X51628316Y17066624D01*
X51914674Y16376996D01*
X51914676Y16373720D01*
X55780675Y16373720D01*
X56065829Y17063846D01*
X56273520Y17271900D01*
X56067684Y17477376D01*
X55781326Y18167004D01*
X55780675Y18913720D01*
X56065829Y19603846D01*
X56273520Y19811900D01*
X56067684Y20017376D01*
X55781326Y20707004D01*
X55780675Y21453720D01*
X56065829Y22143846D01*
X56593376Y22672316D01*
X57283004Y22958674D01*
X58029720Y22959325D01*
X58719846Y22674171D01*
X59248316Y22146624D01*
X59534674Y21456996D01*
X59535325Y20710280D01*
X59250171Y20020154D01*
X59042480Y19812100D01*
X59248316Y19606624D01*
X59534674Y18916996D01*
X59535325Y18170280D01*
X59250171Y17480154D01*
X59042480Y17272100D01*
X59248316Y17066624D01*
X59534674Y16376996D01*
X59535325Y15630280D01*
X59250171Y14940154D01*
X58722624Y14411684D01*
X58032996Y14125326D01*
X57286280Y14124675D01*
X56596154Y14409829D01*
X56067684Y14937376D01*
X55781326Y15627004D01*
X55780675Y16373720D01*
X51914676Y16373720D01*
X51915325Y15630280D01*
X51630171Y14940154D01*
X51102624Y14411684D01*
X50412996Y14125326D01*
X50108432Y14125060D01*
X47960043Y11976671D01*
X47820171Y11638154D01*
X47719194Y11537000D01*
X48260000Y11537000D01*
X48786955Y11432182D01*
X49233686Y11133686D01*
X50108310Y10259062D01*
X50409720Y10259325D01*
X51099846Y9974171D01*
X51628316Y9446624D01*
X51914674Y8756996D01*
X51915325Y8010280D01*
X51630171Y7320154D01*
X51102624Y6791684D01*
X50412996Y6505326D01*
X49666280Y6504675D01*
X48976154Y6789829D01*
X48447684Y7317376D01*
X48161326Y8007004D01*
X48161060Y8311568D01*
X47689628Y8783000D01*
X47505567Y8783000D01*
X47292624Y8569684D01*
X46602996Y8283326D01*
X45856280Y8282675D01*
X45166154Y8567829D01*
X44637684Y9095376D01*
X44351326Y9785004D01*
X44350675Y10531720D01*
X44635829Y11221846D01*
X44843520Y11429900D01*
X44637684Y11635376D01*
X44351326Y12325004D01*
X44350675Y13071720D01*
X44635829Y13761846D01*
X45163376Y14290316D01*
X45853004Y14576674D01*
X46599720Y14577325D01*
X46646588Y14557960D01*
X48160938Y16072310D01*
X48160675Y16373720D01*
X48445829Y17063846D01*
X48653520Y17271900D01*
X48638880Y17286514D01*
X47604053Y17380590D01*
X45840797Y16202917D01*
X45715609Y16151091D01*
X45602955Y16075818D01*
X45469810Y16049334D01*
X45344376Y15997406D01*
X45208885Y15997432D01*
X45076000Y15971000D01*
X43347435Y15971000D01*
X43636316Y15682624D01*
X43922674Y14992996D01*
X43923325Y14246280D01*
X43638171Y13556154D01*
X43423000Y13340607D01*
X43423000Y10255340D01*
X43766316Y9912624D01*
X44052674Y9222996D01*
X44053325Y8476280D01*
X43768171Y7786154D01*
X43240624Y7257684D01*
X42550996Y6971326D01*
X41804280Y6970675D01*
X41114154Y7255829D01*
X40906100Y7463520D01*
X40700624Y7257684D01*
X40010996Y6971326D01*
X39264280Y6970675D01*
X38574154Y7255829D01*
X38473000Y7356806D01*
X38473000Y4725000D01*
X43076000Y4725000D01*
X43085287Y4723153D01*
X43094595Y4724874D01*
X46491267Y4679000D01*
X48760433Y4679000D01*
X48973376Y4892316D01*
X49663004Y5178674D01*
X50409720Y5179325D01*
X51099846Y4894171D01*
X51315393Y4679000D01*
X56166232Y4679000D01*
X56067684Y4777376D01*
X55781326Y5467004D01*
X55780675Y6213720D01*
X56065829Y6903846D01*
X56273520Y7111900D01*
X56067684Y7317376D01*
X55781326Y8007004D01*
X55780675Y8753720D01*
X56065829Y9443846D01*
X56593376Y9972316D01*
X57283004Y10258674D01*
X58029720Y10259325D01*
X58719846Y9974171D01*
X59248316Y9446624D01*
X59534674Y8756996D01*
X59535325Y8010280D01*
X59250171Y7320154D01*
X59042480Y7112100D01*
X59248316Y6906624D01*
X59534674Y6216996D01*
X59535325Y5470280D01*
X59250171Y4780154D01*
X59042480Y4572100D01*
X59248316Y4366624D01*
X59534674Y3676996D01*
X59535325Y2930280D01*
X59250171Y2240154D01*
X58722624Y1711684D01*
X58032996Y1425326D01*
X57286280Y1424675D01*
X56596154Y1709829D01*
X56380607Y1925000D01*
X51315567Y1925000D01*
X51102624Y1711684D01*
X50412996Y1425326D01*
X49666280Y1424675D01*
X48976154Y1709829D01*
X48760607Y1925000D01*
X46482000Y1925000D01*
X46472713Y1926847D01*
X46463405Y1925126D01*
X43066734Y1971000D01*
X38353567Y1971000D01*
X38140624Y1757684D01*
X37450996Y1471326D01*
X36704280Y1470675D01*
X36014154Y1755829D01*
X35485684Y2283376D01*
X35199326Y2973004D01*
X35198675Y3719720D01*
X35483829Y4409846D01*
X35719000Y4645428D01*
X35719000Y7570433D01*
X35505684Y7783376D01*
X35219326Y8473004D01*
X35218675Y9219720D01*
X35503829Y9909846D01*
X35589000Y9995166D01*
X35589000Y13340433D01*
X35375684Y13553376D01*
X35089326Y14243004D01*
X35088675Y14989720D01*
X35373829Y15679846D01*
X35664474Y15971000D01*
X33187435Y15971000D01*
X33476316Y15682624D01*
X33762674Y14992996D01*
X33763325Y14246280D01*
X33478171Y13556154D01*
X33263000Y13340607D01*
X33263000Y10255340D01*
X33606316Y9912624D01*
X33892674Y9222996D01*
X33893325Y8476280D01*
X33608171Y7786154D01*
X33080624Y7257684D01*
X32390996Y6971326D01*
X31644280Y6970675D01*
X30954154Y7255829D01*
X30746100Y7463520D01*
X30540624Y7257684D01*
X29850996Y6971326D01*
X29104280Y6970675D01*
X28414154Y7255829D01*
X28206100Y7463520D01*
X28000624Y7257684D01*
X27310996Y6971326D01*
X26564280Y6970675D01*
X25874154Y7255829D01*
X25773000Y7356806D01*
X25773000Y7162372D01*
X25970372Y6965000D01*
X31242000Y6965000D01*
X31768955Y6860182D01*
X32215686Y6561686D01*
X33049686Y5727686D01*
X33348182Y5280955D01*
X33453000Y4754000D01*
X33453000Y4625567D01*
X33666316Y4412624D01*
X33952674Y3722996D01*
X33953325Y2976280D01*
X33668171Y2286154D01*
X33140624Y1757684D01*
X32450996Y1471326D01*
X31704280Y1470675D01*
X31014154Y1755829D01*
X30826135Y1943520D01*
X30640624Y1757684D01*
X29950996Y1471326D01*
X29204280Y1470675D01*
X28514154Y1755829D01*
X28298607Y1971000D01*
X25100000Y1971000D01*
X24573045Y2075818D01*
X24126314Y2374314D01*
X20882314Y5618314D01*
X20583818Y6065045D01*
X20479000Y6592000D01*
X20479000Y7570433D01*
X20265684Y7783376D01*
X19979326Y8473004D01*
X19978675Y9219720D01*
X20263829Y9909846D01*
X20791376Y10438316D01*
X21481004Y10724674D01*
X22227720Y10725325D01*
X22917846Y10440171D01*
X23125900Y10232480D01*
X23331376Y10438316D01*
X24021004Y10724674D01*
X24767720Y10725325D01*
X25457846Y10440171D01*
X25559000Y10339194D01*
X25559000Y15755110D01*
X25164955Y15491818D01*
X24638000Y15387000D01*
X23629567Y15387000D01*
X23416624Y15173684D01*
X22726996Y14887326D01*
X22422432Y14887060D01*
X21039686Y13504314D01*
X20592955Y13205818D01*
X20066000Y13101000D01*
X17787567Y13101000D01*
X17574624Y12887684D01*
X16884996Y12601326D01*
X16138280Y12600675D01*
X15448154Y12885829D01*
X14919684Y13413376D01*
X14633326Y14103004D01*
X14632675Y14849720D01*
X14917829Y15539846D01*
X15445376Y16068316D01*
X16135004Y16354674D01*
X16881720Y16355325D01*
X17571846Y16070171D01*
X17787393Y15855000D01*
X19495628Y15855000D01*
X20474938Y16834310D01*
X20474675Y17135720D01*
X20759829Y17825846D01*
X21287376Y18354316D01*
X21977004Y18640674D01*
X22723720Y18641325D01*
X23413846Y18356171D01*
X23629393Y18141000D01*
X24067628Y18141000D01*
X25696314Y19769686D01*
X26143045Y20068182D01*
X26670000Y20173000D01*
X35243628Y20173000D01*
X35475000Y20404372D01*
X35475000Y21844000D01*
X35579818Y22370955D01*
X35589000Y22384697D01*
X35589000Y23500433D01*
X35375684Y23713376D01*
X35089326Y24403004D01*
X35088675Y25149720D01*
X35373829Y25839846D01*
X35901376Y26368316D01*
X36591004Y26654674D01*
X37337720Y26655325D01*
X37940272Y26406356D01*
X36259628Y28087000D01*
X32534372Y28087000D01*
X32859686Y27761686D01*
X33158182Y27314955D01*
X33263000Y26788000D01*
X33263000Y26055567D01*
X33476316Y25842624D01*
X33762674Y25152996D01*
X33763325Y24406280D01*
X33478171Y23716154D01*
X32950624Y23187684D01*
X32260996Y22901326D01*
X31514280Y22900675D01*
X30824154Y23185829D01*
X30616100Y23393520D01*
X30410624Y23187684D01*
X29720996Y22901326D01*
X28974280Y22900675D01*
X28284154Y23185829D01*
X28232633Y23237261D01*
X25785686Y20790314D01*
X25338955Y20491818D01*
X24812000Y20387000D01*
X23629567Y20387000D01*
X23416624Y20173684D01*
X22726996Y19887326D01*
X21980280Y19886675D01*
X21290154Y20171829D01*
X20761684Y20699376D01*
X20475326Y21389004D01*
X20474675Y22135720D01*
X20759829Y22825846D01*
X20947520Y23013865D01*
X20860232Y23101000D01*
X18041838Y23101000D01*
X18100316Y23042624D01*
X18386674Y22352996D01*
X18387325Y21606280D01*
X18102171Y20916154D01*
X17914480Y20728135D01*
X18100316Y20542624D01*
X18386674Y19852996D01*
X18387325Y19106280D01*
X18102171Y18416154D01*
X17574624Y17887684D01*
X16884996Y17601326D01*
X16138280Y17600675D01*
X15448154Y17885829D01*
X15382881Y17950988D01*
X11898600Y17934156D01*
X12004316Y17828624D01*
X12290674Y17138996D01*
X12291325Y16392280D01*
X12006171Y15702154D01*
X11478624Y15173684D01*
X10788996Y14887326D01*
X10042280Y14886675D01*
X9352154Y15171829D01*
X8823684Y15699376D01*
X8744133Y15890957D01*
X6984765Y16508778D01*
X6951710Y16528326D01*
X6914045Y16535818D01*
X6721560Y16664432D01*
X6522303Y16782269D01*
X6499245Y16812978D01*
X6467314Y16834314D01*
X3602314Y19699314D01*
X3453444Y19922113D01*
X3304387Y20144674D01*
X3304239Y20145415D01*
X3303818Y20146045D01*
X3251506Y20409034D01*
X3199001Y20671516D01*
X3196378Y23105057D01*
X2981684Y23319376D01*
X2695326Y24009004D01*
X2694675Y24755720D01*
X952000Y24755720D01*
X952000Y9219720D01*
X2198675Y9219720D01*
X2483829Y9909846D01*
X3011376Y10438316D01*
X3701004Y10724674D01*
X4447720Y10725325D01*
X5137846Y10440171D01*
X5345900Y10232480D01*
X5551376Y10438316D01*
X6241004Y10724674D01*
X6987720Y10725325D01*
X7677846Y10440171D01*
X7885900Y10232480D01*
X8091376Y10438316D01*
X8781004Y10724674D01*
X9527720Y10725325D01*
X10217846Y10440171D01*
X10425900Y10232480D01*
X10631376Y10438316D01*
X11321004Y10724674D01*
X12067720Y10725325D01*
X12757846Y10440171D01*
X12965900Y10232480D01*
X13171376Y10438316D01*
X13861004Y10724674D01*
X14607720Y10725325D01*
X15297846Y10440171D01*
X15505900Y10232480D01*
X15711376Y10438316D01*
X16401004Y10724674D01*
X17147720Y10725325D01*
X17837846Y10440171D01*
X18366316Y9912624D01*
X18652674Y9222996D01*
X18653325Y8476280D01*
X18368171Y7786154D01*
X18181000Y7598656D01*
X18181000Y5555637D01*
X18354316Y5382624D01*
X18640674Y4692996D01*
X18641325Y3946280D01*
X18356171Y3256154D01*
X17828624Y2727684D01*
X17138996Y2441326D01*
X16392280Y2440675D01*
X15702154Y2725829D01*
X15514135Y2913520D01*
X15328624Y2727684D01*
X14638996Y2441326D01*
X13892280Y2440675D01*
X13202154Y2725829D01*
X13014135Y2913520D01*
X12828624Y2727684D01*
X12138996Y2441326D01*
X11392280Y2440675D01*
X10702154Y2725829D01*
X10514135Y2913520D01*
X10328624Y2727684D01*
X9638996Y2441326D01*
X8892280Y2440675D01*
X8202154Y2725829D01*
X8014135Y2913520D01*
X7828624Y2727684D01*
X7138996Y2441326D01*
X6392280Y2440675D01*
X5702154Y2725829D01*
X5514135Y2913520D01*
X5328624Y2727684D01*
X4638996Y2441326D01*
X3892280Y2440675D01*
X3202154Y2725829D01*
X2673684Y3253376D01*
X2387326Y3943004D01*
X2386675Y4689720D01*
X2671829Y5379846D01*
X2927000Y5635463D01*
X2927000Y7342831D01*
X2485684Y7783376D01*
X2199326Y8473004D01*
X2198675Y9219720D01*
X952000Y9219720D01*
X952000Y952000D01*
X60008000Y952000D01*
X60008000Y31052000D01*
M02*
