M48
;DRILL file {KiCad 4.0.7-e2-6376~61~ubuntu18.04.1} date Sat May 19 13:00:08 2018
;FORMAT={-:-/ absolute / metric / decimal}
FMAT,2
METRIC,TZ
T1C0.800
%
G90
G05
M71
T1
X4.076Y8.848
X4.264Y4.318
X4.572Y24.384
X4.572Y14.224
X6.616Y8.848
X6.764Y4.318
X9.156Y8.848
X9.264Y4.318
X10.414Y19.304
X10.414Y16.764
X10.414Y14.224
X11.696Y8.848
X11.764Y4.318
X14.236Y8.848
X14.264Y4.318
X16.51Y24.478
X16.51Y21.978
X16.51Y19.478
X16.51Y16.978
X16.51Y14.478
X16.764Y4.318
X16.776Y8.848
X19.316Y8.848
X21.856Y8.848
X22.098Y2.286
X22.352Y24.264
X22.352Y21.764
X22.352Y19.264
X22.352Y16.764
X24.396Y8.848
X26.936Y8.848
X29.346Y24.778
X29.346Y14.618
X29.476Y8.848
X29.576Y3.348
X31.886Y24.778
X31.886Y14.618
X32.016Y8.848
X32.076Y3.348
X34.426Y24.778
X34.426Y14.618
X34.556Y8.848
X34.576Y3.348
X36.966Y24.778
X36.966Y14.618
X37.076Y3.348
X37.096Y8.848
X39.506Y24.778
X39.506Y14.618
X39.636Y8.848
X42.046Y24.778
X42.046Y14.618
X42.176Y8.848
X46.228Y12.7
X46.228Y10.16
X50.038Y21.082
X50.038Y18.542
X50.038Y16.002
X50.038Y13.462
X50.038Y10.922
X50.038Y8.382
X50.038Y5.842
X50.038Y3.302
X52.872Y26.67
X55.372Y26.67
X57.658Y21.082
X57.658Y18.542
X57.658Y16.002
X57.658Y13.462
X57.658Y10.922
X57.658Y8.382
X57.658Y5.842
X57.658Y3.302
T0
M30
